<?xml version="1.0" encoding="UTF-8" standalone="no"?>
<!-- Created with Inkscape (http://www.inkscape.org/) -->

<svg
   width="1920"
   height="1080"
   viewBox="0 0 1920 1080"
   version="1.1"
   id="svg1"
   inkscape:version="1.4 (e7c3feb1, 2024-10-09)"
   sodipodi:docname="Locate.svg"
   xml:space="preserve"
   xmlns:inkscape="http://www.inkscape.org/namespaces/inkscape"
   xmlns:sodipodi="http://sodipodi.sourceforge.net/DTD/sodipodi-0.dtd"
   xmlns:xlink="http://www.w3.org/1999/xlink"
   xmlns="http://www.w3.org/2000/svg"
   xmlns:svg="http://www.w3.org/2000/svg"><sodipodi:namedview
     id="namedview1"
     pagecolor="#ffffff"
     bordercolor="#000000"
     borderopacity="0.25"
     inkscape:showpageshadow="2"
     inkscape:pageopacity="0.0"
     inkscape:pagecheckerboard="0"
     inkscape:deskcolor="#d1d1d1"
     inkscape:document-units="px"
     inkscape:zoom="0.45260417"
     inkscape:cx="942.32451"
     inkscape:cy="694.86766"
     inkscape:window-width="1440"
     inkscape:window-height="900"
     inkscape:window-x="0"
     inkscape:window-y="0"
     inkscape:window-maximized="0"
     inkscape:current-layer="g63" /><defs
     id="defs1"><symbol
       id="MapSymbolsNPS.svg:GasStation_Inv"><title
         id="title84">Gas Station</title><rect
         x="0.5"
         y="0.5"
         width="71"
         height="71"
         ry="6"
         style="stroke:#ffffff"
         id="rect84" /><path
         d="M 19,63 V 14 c 0,-2 2,-4 4,-4 h 14 c 2,0 4,2 4,4 v 18 h 4 c 2.5,0 5,2.5 5,5 v 20.5 c 0,1.5 1,2.5 2.5,2.5 1.5,0 3.25,-1 3.25,-3 L 53.75,44.75 53,41 53.5,28.75 h -1.25 c -2.25,0 -4,-2.125 -4,-4 L 48.5,18.5 45,14.625 47,13 54.25,20.25 C 55.5,21.5 56,22.75 56,24.5 V 41 l 0.5,3.5 2.25,13 c 0,3.25 -3.5,5.5 -6.25,5.5 C 50,63 47,60.5 47,57.5 V 37 c 0,-1 -1,-2 -2,-2 H 41 V 63 H 19 M 53,26.75 V 24 C 53,23 52.75,22.375 52,22.25 51.75,22 50.75,22 50.75,22 v 3 c 0,1 0.5,1.25 2.25,1.75 z M 38,14.5 C 38,13.5 37.5,13 36.625,13 H 23.5 c -1,0 -1.5,0.5 -1.5,1.5 V 25 c 0,1 0.5,1.5 1.5,1.5 h 13 c 1,0 1.5,-0.5 1.5,-1.5 z"
         style="fill:#ffffff;stroke:none"
         id="path84" /></symbol><symbol
       id="symbol8"><path
         d="m 1283.0004,1381.557 0.082,-0.1 -23.4094,-18.9616 -7.3739,9.0946 12.0967,9.7968 a 17.498506,17.498506 0 0 0 -8.1581,17.9199 c 0.8778,5.2612 4.5004,9.8085 9.1882,12.3542 5.2378,2.8501 9.8319,2.5868 13.9168,1.1354 l -0.088,36.1792 a 5.8289337,5.8289337 0 0 1 -8.1347,5.3958 5.8230814,5.8230814 0 0 1 -1.8611,-1.2699 5.8289337,5.8289337 0 0 1 -1.703,-4.1259 l 0.1346,-11.7047 a 17.439982,17.439982 0 0 0 -5.1325,-12.4011 17.557029,17.557029 0 0 0 -12.4245,-5.1559 h -5.8524 v -46.8188 a 11.704686,11.704686 0 0 0 -11.7046,-11.7047 h -40.9664 a 11.704686,11.704686 0 0 0 -11.7047,11.7047 v 81.9328 a 11.704686,11.704686 0 0 0 11.7047,11.7047 h 40.9664 a 11.704686,11.704686 0 0 0 11.7046,-11.7047 v -23.4093 h 5.8524 c 0.7959,0 1.5626,0.158 2.2883,0.4564 a 6.0162087,6.0162087 0 0 1 3.1075,3.1193 5.817229,5.817229 0 0 1 0.4565,2.2766 l -0.1404,11.7047 c 0,2.376 0.4623,4.676 1.3811,6.8355 0.8837,2.101 2.1537,3.9796 3.7514,5.5656 a 17.381459,17.381459 0 0 0 12.4245,5.1559 c 2.3761,0 4.6702,-0.4565 6.8355,-1.3811 2.0952,-0.8779 3.9796,-2.1478 5.5656,-3.7514 a 17.457539,17.457539 0 0 0 5.1559,-12.4245 l 0.1405,-52.6711 a 17.539472,17.539472 0 0 0 -8.0997,-14.7479 z m -50.4237,8.8956 h -40.9664 v -17.5571 h 40.9664 z m 40.9664,11.7046 a 5.8523431,5.8523431 0 1 1 0,-11.7046 5.8523431,5.8523431 0 0 1 0,11.7046 z"
         id="path1-8"
         style="fill:#ffffff;stroke-width:5.852;stroke-dasharray:none;fill-opacity:1;stroke:none"
         inkscape:label="gas_station" /></symbol></defs><g
     inkscape:label="map"
     inkscape:groupmode="layer"
     id="layer1"><path
       d="m 505.02913,252.30197 4.61599,-3.35072 1.06523,-1.31115 0.59179,-2.47661 -0.47343,-2.18525 -1.06523,-2.18525 -2.13046,-2.76799 -0.35508,-0.29136 -0.35507,-0.29137 -0.47344,-1.16547 -0.23671,-1.16546 -0.5918,-6.41007 0.47344,-1.89389 0.94687,-1.60251 1.53866,-1.89389 1.53866,-3.78776 -0.47343,-3.78777 -2.13046,-8.30395 v -4.95323 l 2.36718,-14.85971 -0.82851,-28.11688 0.35507,-1.16547 19.64755,-18.21042 5.79957,-6.84711 14.32141,-27.82552 2.84061,-24.329123 0.23671,-2.6223 0.23672,-27.097103 5.79958,-0.291367 2.60389,-0.582733 2.60389,-1.602517 14.08469,-16.607901 4.14255,-3.787767 4.85271,-2.330934 10.77064,-3.205034 17.75381,-5.390284 2.95896,-0.43705 2.0121,1.165467 2.0121,2.330934 2.0121,1.165467 5.20778,0.43705 9.11362,-2.039567 12.9011,0.582733 3.07733,-0.728417 0.94687,-0.43705 2.84061,-2.476617 1.18358,-1.7482 1.53867,-4.224817 0.94687,-1.7482 2.48553,-1.4568335 13.25617,-2.9136669 2.95897,0.7284167 25.32877,12.5287677 25.44712,12.528768 0.82851,0.43705 0.59179,0.728417 0.5918,0.291367 0.82851,-0.291367 5.20778,-3.642084 1.77538,-0.43705 4.85271,1.31115 1.65702,0.43705 5.91793,4.224817 12.66439,14.859702 14.55812,19.812935 7.33824,16.607902 2.24881,4.953234 5.32614,7.575534 3.19569,3.787771 2.95897,2.6223 2.72225,1.31115 2.95897,0.43705 h 6.62808 l 1.65702,-0.29137 0.47344,-0.14568 2.0121,-1.16547 4.14255,-4.661868 5.56286,-8.012584 1.89374,-0.43705 9.35034,2.18525 h 3.31404 l 2.72225,-1.165467 32.66701,-24.329119 3.07732,-1.602516 3.07733,-0.437051 22.72487,4.079134 2.48553,1.165467 0.94687,0.8741 2.13046,2.476617 2.48553,1.893883 3.07733,3.059351 1.30194,0.728417 2.6039,0.8741 h 0.11836 l 1.18358,0.728416 1.18359,1.31115 2.24881,3.350717 8.87691,10.052151 0.71015,0.582734 0.94687,0.43705 h 0.23672 l 0.47343,-0.291367 0.94687,-0.728417 1.06523,-0.291366 2.24882,-0.43705 h 1.06522 l 2.36718,0.728416 2.13045,1.311151 3.90584,3.642081 1.77538,2.33094 2.60389,5.2446 1.53867,2.33093 3.31404,2.33093 23.55338,8.741 3.19569,0.43705 26.15732,3.78777 h 3.314 l 4.7343,-1.7482 1.6571,-0.14568 19.0557,2.76798 1.8938,-0.14568 0.5918,-0.29137 0.9468,-0.8741 1.0652,-1.01978 0.5918,-0.8741 15.3867,-22.58092 3.0773,-3.496401 1.657,-1.456834 0.9469,-0.291367 h 0.4734 0.3551 l 0.7102,-1.019783 0.4734,-1.165467 0.3551,-2.767983 0.355,-1.165467 1.5387,-1.893884 17.0437,-11.800351 3.7874,-1.893883 43.556,-11.654668 2.4856,-0.582734 8.6402,-0.8741 16.2151,2.330934 43.6744,-0.291367 27.1041,8.595318 9.9421,4.953234 12.4277,9.469417 4.1426,4.079134 1.7753,1.019783 5.3262,1.602517 2.959,-0.291367 1.3019,-0.291366 1.8937,-1.602517 1.4203,-0.43705 4.4977,2.039567 1.0652,0.728416 0.3551,0.728417 v 0.582734 l 0.2367,0.43705 0.7101,0.145683 0.2368,-0.291367 0.4734,-0.582733 0.4734,-0.582733 0.9469,-0.145684 0.8285,0.728417 0.7102,1.019783 0.5918,0.43705 0.9468,-0.582733 1.4203,0.582733 3.1957,0.145684 h 2.3672 l 2.1305,0.43705 1.657,0.728417 1.5386,0.43705 1.1836,-0.728417 0.4735,-1.31115 0.7101,-6.118701 0.4734,-0.43705 2.0121,-0.43705 0.7102,-0.291367 0.7101,-1.019783 0.4735,-1.165467 0.5918,-2.476617 -1.5387,-0.728417 0.7102,-1.602516 1.0652,-2.039567 0.3551,-1.893884 3.1957,-3.787767 0.4734,-0.43705 0.3551,0.582734 0.5918,-0.145684 0.5918,-0.582733 0.5917,-0.728417 0.2368,-0.728417 0.1183,-1.893883 0.9469,1.019783 0.7101,0.8741 0.9469,0.8741 1.4203,0.291367 0.7102,-0.582733 0.5918,-2.6223 1.0652,-0.582734 2.0121,-0.582733 1.5387,-1.456834 2.2488,-3.4964 0.5918,-1.893884 h 0.1183 l 0.3551,-0.43705 0.4734,0.43705 0.4735,0.8741 0.2367,0.291367 h 1.3019 l -0.1183,-0.43705 -0.4735,-0.8741 -0.355,-1.31115 0.2367,-0.43705 1.1836,-0.582734 0.355,-0.291366 h 0.2368 l 0.8285,0.145683 0.2367,-0.145683 v -0.291367 l -0.1184,-0.8741 0.1184,-0.291367 2.4855,-3.4964 1.1836,-1.165467 -0.5918,-0.8741 -0.5918,-0.728417 -0.5918,-0.43705 -0.7101,-0.291366 v -0.8741 l 1.3019,0.43705 1.1836,0.728416 0.8285,-0.145683 0.3551,-1.7482 2.4855,0.582733 2.4856,-0.582733 8.0484,-4.953234 2.3671,-1.019783 2.4856,-0.291367 v 0.728417 l -0.4735,1.165466 0.9469,0.43705 1.657,-0.145683 1.5387,-0.582733 v 0.43705 1.165467 l 0.5918,-0.874101 0.7101,-1.893883 0.4735,-0.43705 0.9468,0.291367 0.1184,0.8741 -0.1184,1.165466 -0.355,0.874101 2.3671,-1.311151 2.4856,-0.582733 2.1304,-1.019783 1.657,-2.622301 -1.3019,-0.145683 -0.1184,-0.582733 0.8285,-1.602517 0.3551,-0.145684 h 0.5918 l 0.5918,-0.145683 0.2367,-0.8741 -0.1183,-0.582733 -0.4735,-0.8741 0.1184,-0.437051 0.4734,-1.165466 0.5918,-1.019784 3.5508,-4.224817 1.4203,-1.165467 -0.1184,-1.893883 0.8285,-0.8741 2.6039,-0.43705 0.1184,-0.145684 22.1331,1.311151 20.5944,35.401053 20.476,35.546737 5.0895,30.156448 4.971,30.15646 0.1184,8.741 0.1183,0.43705 0.4735,1.89388 v 2.18525 l -0.4735,3.4964 v 1.31115 l 0.8286,1.7482 1.1835,0.8741 1.4203,0.29137 18.3456,0.72842 5.7996,1.7482 2.4856,1.60251 0.2367,1.16547 -0.4735,1.60252 0.2368,1.16546 0.5917,0.72842 2.6039,2.47662 1.0653,0.58273 v 0.72842 l -0.3551,0.29136 -0.9469,0.58274 1.7754,1.45683 1.8937,1.31115 1.4203,1.45683 0.5918,2.33094 0.4735,0.43705 1.1836,-0.43705 1.1836,-0.8741 0.8285,-0.29137 1.0652,0.58273 0.3551,1.16547 0.1183,1.16547 -1.657,2.18525 -0.2367,0.72842 -0.4734,0.72841 -0.4735,1.31115 -1.5386,8.01259 0.1183,1.16546 -1.5387,1.31115 0.1184,2.18525 1.7754,4.95324 0.1183,1.16546 v 0.8741 l -0.355,3.64209 -0.9469,3.64208 -2.0121,11.50899 -0.5918,1.89388 -3.314,5.39028 -0.4735,0.8741 0.2367,1.01979 0.7102,1.45683 0.3551,0.14568 h 1.5386 l 0.7102,0.43705 0.3551,0.72842 0.355,0.8741 0.4735,0.72842 1.4203,1.7482 1.0652,1.89388 0.4734,2.33093 v 2.91367 l -0.2367,2.33094 -0.7101,2.76798 -0.9469,2.6223 -1.0652,2.18525 -1.5387,1.01978 -4.616,2.03957 -1.8937,1.45683 -3.3141,3.64209 -1.8937,1.31115 -5.3261,2.03956 -1.6571,1.16547 -8.0484,9.17805 -0.7101,0.29137 -2.3672,0.43705 -1.0652,0.58273 -2.4855,3.20503 -1.6571,1.45684 -1.8937,1.16547 -2.0121,0.58273 -1.7754,-0.29137 -6.273,-3.35072 -3.5508,-1.16546 h -2.8406 l -3.4324,3.35072 -3.314,4.22481 -2.959,4.66187 -2.1304,4.80755 -1.5387,4.51618 -1.0652,1.7482 -3.4324,2.33094 -1.4203,1.60251 -1.0653,1.89389 -0.355,2.33093 0.5918,4.22482 -0.7102,1.7482 -0.4734,1.45683 -15.9785,28.26257 -2.4855,6.41007 -3.314,13.9856 -3.0774,21.26977 -2.0121,6.9928 v 1.45683 l 0.5918,2.18525 0.1184,1.31115 -0.1184,1.60252 -1.4203,3.78777 -1.0652,1.60251 -1.8937,1.7482 -0.8285,0.72842 -1.302,0.8741 -1.657,0.8741 -7.1015,1.01978 -2.959,1.31115 -1.5387,3.93345 v 2.18526 l 1.0653,3.64208 0.355,2.18525 -0.355,2.6223 -2.1305,4.07913 -0.7101,2.33094 0.1183,2.47661 0.9469,1.89389 2.6039,3.35071 0.9468,2.47662 -0.1183,1.7482 -0.9469,1.89388 -0.8285,2.6223 -1.1836,7.57554 -0.3551,7.28417 -2.6039,8.01258 -5.7995,2.76798 -7.1016,1.31115 -6.1546,3.35072 -1.1836,1.31115 -2.6039,4.07913 -1.0652,1.16547 -0.7102,0.72842 -5.2077,3.05935 -0.5918,0.58273 -0.7102,2.03957 0.4734,0.29137 2.6039,0.43705 0.8285,2.33093 0.7102,3.35072 -0.1184,4.3705 -0.355,2.18525 -0.4735,1.89388 -4.1425,9.17805 -1.8938,5.39029 v 4.3705 l 0.5918,4.07913 -2.0121,21.12408 -0.9468,4.80756 -2.0121,3.35071 -1.1836,0.58274 h -1.0653 l -1.1835,-0.29137 h -1.302 l -0.9469,0.58273 -0.7101,1.31115 -0.7102,3.05935 -1.4203,3.64209 -1.5386,2.18525 -9.232,5.97301 -1.302,0.43705 -1.4203,-0.29136 -2.8406,-1.7482 -1.1836,-0.29137 -1.657,0.14568 -1.0652,0.72842 -1.0652,0.8741 -1.4203,0.8741 -1.1836,0.14568 -1.302,-0.29136 -2.4855,-1.01979 0.7102,1.60252 2.1304,6.41007 0.2367,1.45683 0.1184,3.20504 -0.8285,1.01978 -2.7223,2.33093 -0.7101,1.01979 -0.4735,1.45683 -0.7101,1.31115 -1.0652,0.8741 -1.8938,0.29137 -3.4324,-0.72842 -2.0121,1.01978 -2.0121,3.64209 -0.7101,4.80755 0.2367,5.09891 1.4203,9.03237 -0.1184,2.18525 -0.2367,1.01979 -0.4734,1.45683 -3.6691,6.41007 -0.4735,2.6223 v 4.3705 l 0.4735,4.22481 0.5917,2.76799 0.2368,1.89388 -0.4735,1.60252 -3.4324,4.3705 -8.8769,15.29675 -3.1957,7.28417 -0.5918,2.33093 -0.355,2.33093 0.2367,2.47662 1.3019,6.41007 -0.355,2.33093 -1.1836,1.31115 -1.4203,1.16547 -2.3672,4.3705 -5.5629,6.84712 -5.3261,6.26438 -5.5629,10.34352 -1.7753,2.03956 -1.6571,1.45684 -0.7101,1.01978 0.4734,0.58274 2.1305,0.58273 1.3019,1.31115 4.4976,8.01258 3.4324,4.66187 1.1836,2.76798 -0.8285,2.47662 -0.9468,0.43705 -0.7102,-0.14568 -0.8285,-0.58274 h -0.9469 l -1.3019,0.43705 -0.9469,0.72842 -3.7875,4.22482 -1.4203,1.16546 -0.2367,1.01979 -0.1184,1.01978 -0.5917,0.8741 -0.5918,0.29137 h -1.4203 l -0.9469,0.29136 -0.9469,-0.14568 -0.3551,0.14568 -0.355,0.58274 -0.3551,1.45683 -0.3551,0.58273 -5.2078,4.07914 -5.4445,6.26438 -1.657,2.76799 -0.4734,2.91366 0.5918,1.7482 1.8937,2.76799 0.4734,1.89388 -0.2367,3.05935 -0.5918,2.91367 -2.6039,7.57553 -2.1304,3.64209 -2.3672,1.60251 -3.5508,0.43705 -2.3671,2.47662 -1.4203,3.64208 -0.4735,4.66187 -0.5918,2.47662 -1.7753,2.03956 -2.2489,1.45684 -2.2488,0.58273 h -0.9468 l -2.0121,-0.58273 -0.9469,-0.14569 -0.3551,0.29137 -0.9469,1.01978 -0.4734,0.29137 -0.7101,-0.14568 -0.9469,-0.72842 -0.4734,-0.29137 -2.7223,0.43705 -5.5629,0.72842 -2.3671,-0.43705 -1.5387,-1.7482 -1.657,-5.2446 -1.5387,-8.59532 -0.3551,-4.3705 0.2368,-4.3705 -0.3551,-5.2446 -1.657,-4.51618 -3.0774,-2.91367 -8.4034,-1.89388 -2.8406,-3.64209 -1.7754,-4.80755 -0.8285,-5.09891 -1.4203,-4.3705 -2.959,-2.47662 -7.4566,-3.4964 -6.273,-4.07914 -2.3672,-0.8741 -1.5387,-1.60251 -0.4734,-5.53597 -1.657,-2.6223 -1.302,3.20503 -1.1835,3.93345 -0.7102,4.22482 -0.5918,8.59532 -0.3551,0.29137 -0.4734,0.14568 -0.5918,0.58273 -1.0652,1.7482 -0.7102,1.60252 -0.355,1.7482 -0.1184,2.47662 -23.08,0.43705 -2.4855,-1.01979 -1.8937,-1.7482 -0.9469,-2.18525 -1.3019,-8.15827 -0.7102,-1.89388 -1.1836,-0.29137 -2.1304,1.45684 -22.0148,23.01797 -2.0121,1.16546 -1.7753,-0.72841 -1.7754,-1.01979 -2.1305,-0.14568 -1.657,2.33093 -6.8648,26.51437 v 0.43705 l -1.1836,1.01979 h -3.1957 -1.0652 l -2.6039,0.72841 -1.4203,1.31115 -2.0121,4.95324 -1.4203,1.7482 -1.8937,1.16546 -3.5508,1.60252 -0.5918,0.29137 -2.6039,2.03956 -2.7222,6.41007 -2.4856,1.89389 -1.4203,0.14568 -1.1836,-0.14568 -1.0652,0.14568 -1.1836,0.72842 -1.1836,1.7482 -2.6039,6.70143 -2.2488,3.93345 -12.3093,12.2374 -8.28509,10.63489 -1.89374,3.4964 -1.18358,1.45683 -1.42031,0.8741 -0.47343,0.72842 -0.23672,3.20503 -0.23672,1.45683 -1.65702,0.29137 -1.89374,-0.8741 -2.0121,-0.43705 -1.53866,1.89388 -1.18359,1.89389 -3.19568,2.6223 -0.94687,1.7482 0.23672,2.33093 0.94687,1.7482 0.82851,1.89388 -0.47344,2.76799 -1.53866,2.47661 -1.53866,1.45684 -0.71016,1.45683 1.18359,2.91367 1.77538,2.18525 2.0121,1.89388 1.65702,2.18525 0.94687,2.91367 -0.47343,2.6223 -1.30195,2.18525 -1.65702,2.03957 -1.42031,2.18525 -0.47343,2.33093 0.11836,2.18525 0.23672,2.18525 0.11835,2.33093 -0.59179,2.47662 -1.89374,4.66187 -0.59179,2.6223 0.11836,1.45683 0.71015,2.76799 0.11836,1.16546 -2.48554,15.00539 -0.59179,1.45683 -0.94687,0.58273 -1.06523,0.14569 -0.94687,0.58273 -0.94687,1.16547 -1.77538,3.35072 -0.47343,1.45683 -1.42031,4.80755 -0.82851,2.18525 -1.30194,2.33094 -3.55076,6.8471 -0.47344,2.0396 -2.48553,2.1852 -0.82851,1.7482 0.35507,2.331 0.23672,1.6025 0.35508,1.6025 -1.53867,1.7482 h -0.11835 l -0.11836,-0.5827 -0.5918,-0.4371 -0.82851,-0.2914 -0.71015,0.4371 -0.94687,1.0198 -0.82851,1.1654 -0.35508,0.8741 -0.11836,0.8741 -0.82851,2.1853 -0.23671,1.1655 v 1.0197 l 0.59179,1.6026 v 1.0197 l -0.82851,1.7482 -0.94687,0.5828 -1.18359,-0.2914 -1.4203,-0.437 h -0.35508 l -0.82851,0.1456 -0.71015,-0.2913 0.47343,-1.0198 0.35508,-0.7284 0.35507,-1.1655 0.23672,-1.1655 -0.35507,-0.437 -0.82851,0.2914 -1.77539,1.0197 -1.18358,0.2914 -2.60389,-1.3111 -0.11836,-3.0594 0.82851,-3.9334 0.47343,-3.7878 h -0.59179 l -0.59179,3.7878 -2.0121,1.8938 -2.48553,-0.1456 -2.36718,-2.6223 0.23672,-0.4371 0.35507,-1.0198 -0.59179,-0.2913 -1.89374,-1.1655 0.47344,-1.6025 -0.71016,-1.1655 -2.48553,-2.1852 -2.13046,-1.6026 h -0.11835 l -0.47344,-1.8938 -1.06523,-2.331 -0.59179,-1.0198 -1.18359,-0.437 -0.94687,-0.4371 -1.06523,-1.3111 -0.94687,-1.1655 -0.35507,-0.8741 h -0.5918 v 0.7284 l 4.85271,5.6817 1.30195,1.8939 2.24881,5.3903 0.35508,2.4766 -1.42031,1.3111 0.5918,1.4569 0.94687,1.7482 0.94687,1.4568 0.82851,0.5827 0.94687,1.0198 1.30194,4.8076 1.18359,1.7482 -0.35508,0.7284 -0.71015,2.4766 -0.11836,1.0198 0.35508,1.6025 0.82851,0.5827 1.06523,0.4371 0.82851,0.8741 0.23672,2.4766 -1.42031,1.6025 -1.65702,1.3112 -0.94687,1.7482 -1.18359,3.3507 -0.82851,0.5827 -0.94687,0.1457 h -3.90583 l -5.08943,-0.7284 h -7.69331 l -3.66912,-0.5828 h -1.77538 l -2.95897,1.8939 -1.77538,0.2914 h -3.90584 l -15.26827,2.1852 -0.94687,-0.5827 -1.06523,-0.1457 -1.06523,0.4371 -0.71015,1.1654 h 0.94687 0.82851 l 0.71015,0.2914 0.59179,0.4371 -1.89373,0.5827 -2.95897,0.2914 -2.60389,-0.5828 -1.18359,-1.4568 -1.18359,-0.4371 -8.04839,-0.5827 0.35508,-0.5827 0.11835,-0.2914 0.23672,-0.2914 0.5918,-0.437 -1.18359,-0.4371 -1.06523,0.2914 -0.71015,-0.1457 -0.23672,-1.3111 0.35508,-0.5828 0.59179,-0.437 0.59179,-0.7284 0.35508,-1.1655 -0.23672,-0.5827 -1.65702,-2.4766 0.35508,-0.4371 0.35507,-1.1655 -1.30194,-1.8938 0.23671,-2.768 1.65703,-5.0989 h -0.5918 l -0.94687,0.8741 -0.59179,0.437 -0.59179,1.0198 -0.35508,1.0198 0.23672,1.6025 0.23671,1.3111 v 1.0198 l -0.71015,1.3112 v 0.7284 l 1.18359,1.8939 0.35508,0.8741 -0.35508,0.2913 -1.4203,2.0396 -0.82852,0.8741 -1.06522,0.7284 h -1.06523 l -0.82851,-0.8741 h -0.5918 l -0.82851,2.1853 -1.89374,-0.1457 -3.07732,-2.0396 -2.24882,-0.1457 -2.36717,-0.5827 -2.0121,-1.1655 -1.06523,-1.8938 -0.59179,0.437 -0.5918,0.1457 -1.65702,0.1457 -0.23672,0.2913 -0.11835,0.8741 -0.35508,0.7285 -0.82851,0.437 v 0.7284 l 0.59179,0.4371 0.5918,0.2913 -0.47344,0.7285 1.18359,0.5827 1.4203,1.4568 2.48553,0.5828 0.47344,0.8741 -0.11836,0.8741 -0.59179,1.0197 -4.0242,0.7285 -0.35507,-0.5828 -2.0121,-3.6421 -5.68122,-7.5755 -0.82851,-2.3309 v -2.9137 l -0.23672,-1.0198 h -0.59179 l -1.30195,0.7284 h -1.89374 l -0.35507,-0.1456 -0.71016,-1.0198 -1.65702,-1.6025 -0.71015,-1.1655 -1.4203,-5.0989 -0.94687,-1.6025 -0.11836,1.0197 -0.47344,1.0198 -0.47343,0.8741 h -0.23672 l 0.23672,1.1655 0.47343,0.1457 0.5918,0.1457 0.59179,0.8741 0.82851,3.7877 0.94687,1.6025 1.53866,0.7285 2.84061,1.6025 2.0121,3.7877 0.35508,3.6421 -2.36718,1.4569 1.18359,1.0197 1.30194,1.6026 0.82852,1.8938 -0.5918,2.0396 -2.48553,3.3507 -1.42031,0.8741 -1.89373,-0.8741 -0.11836,1.6025 0.11836,0.5828 -1.65703,-0.8741 -1.30194,-1.3112 -0.47344,-1.6025 0.35508,-2.1852 -1.18359,1.3111 -0.23672,1.8939 0.47344,1.8939 0.94687,1.7482 -2.48553,0.7284 h -0.5918 l -1.06523,-2.6223 -0.59179,-2.768 -0.23672,-5.536 -1.4203,-3.0593 -0.47344,-1.8939 1.06523,-0.8741 0.35508,-0.8741 0.47343,-2.0396 0.23672,-2.3309 -0.23672,-1.4568 0.47344,0.2913 0.82851,0.1457 0.59179,0.1457 -0.59179,-1.1655 -1.89374,-2.4766 -0.35508,-1.1654 -0.47343,-2.4767 -0.35508,-1.0197 -1.65702,2.9136 h -0.59179 l -0.35508,-1.8939 -1.06523,-2.4766 -0.47343,1.7482 0.23672,2.6223 -0.35508,0.8741 0.94687,1.8939 2.0121,6.5558 h -0.94687 l -0.5918,-0.1457 -0.47343,-0.4371 -0.35508,-1.0198 -0.35507,0.4371 -0.82851,0.437 -0.82852,-2.1852 -0.94686,-1.8939 -2.6039,-3.6421 0.23672,1.8939 0.35508,1.4568 1.30194,2.768 0.71016,1.1655 0.35507,0.5827 0.11836,0.8741 -0.35508,1.0198 -0.59179,0.5827 -0.23672,0.5828 0.5918,1.3111 0.94687,-1.7482 1.65702,-0.5827 1.53866,0.5827 0.82851,1.3112 -0.94687,7.7212 0.23672,2.6223 3.19569,7.7212 1.06522,1.7482 -0.11836,1.1655 -0.47343,1.0198 -0.94687,0.437 -1.18359,-0.1457 -0.94687,-0.5827 -1.65702,-0.8741 0.11836,0.437 0.11836,0.5828 0.23672,0.5827 -1.89374,-0.7284 -2.0121,-1.1655 -2.0121,-0.437 -2.13046,0.8741 -0.94687,-1.3112 -0.71015,-1.7482 -0.11836,-2.0395 0.5918,-1.8939 -1.53867,-0.8741 -1.4203,-2.9137 -0.94687,-3.4964 -0.35508,-2.9137 0.11836,-1.8938 0.47344,-1.1655 0.59179,-0.7284 0.71015,-1.1655 0.35508,-1.0198 0.35508,-1.7482 -0.23672,-1.7482 -1.42031,-0.7284 -2.36717,-1.6025 -1.53866,-3.6421 -1.42031,-6.8471 -0.23672,-2.768 0.35508,-1.4568 0.82851,-1.4569 0.71015,-1.4568 -0.23671,-0.8741 -0.82851,-0.1457 -1.18359,1.3112 -0.82851,-1.3112 -0.23672,-0.7284 -0.11836,-1.0198 -0.82851,0.4371 -0.71015,0.1457 -0.82851,-0.1457 -0.71016,-0.4371 0.35508,1.8939 0.23672,1.8939 0.35507,1.6025 1.18359,0.7284 0.82851,0.7284 0.5918,2.0396 0.71015,3.9335 0.35507,4.2248 0.47344,1.8939 0.71015,0.8741 1.18359,0.7284 1.18359,1.7482 1.65702,3.4964 -2.0121,2.1852 -0.47344,0.8741 -0.11835,1.6025 1.77538,10.7806 0.94687,3.3507 1.18358,1.7482 -0.23671,2.4766 1.89373,2.0396 1.06523,1.6025 -2.13045,1.4569 -2.84061,0.5827 -3.55076,0.2914 -3.31405,-0.2914 -2.0121,-1.4568 -0.23671,-1.6026 0.23671,-6.41 0.47344,-0.8741 0.11836,-0.5828 -0.23672,-0.5827 -0.82851,-0.7284 -0.11836,-0.4371 v -3.9334 l 0.23672,-1.7482 2.0121,-6.7014 0.23671,-1.1655 -0.11835,-3.205 -1.65703,2.6223 -1.4203,4.6618 -0.59179,4.9533 0.59179,3.642 -0.35508,1.0198 v 2.1853 l -0.23671,1.3111 -0.82852,-2.4766 -0.23671,-1.4568 -0.23672,-6.8471 -0.47344,-1.3112 -0.35507,0.7284 -0.47344,0.7284 -0.47343,0.4371 -0.59179,0.437 0.47343,1.6026 0.11836,5.0989 0.35508,1.8939 1.06522,2.3309 0.71016,2.1852 0.94687,3.7878 v 1.3112 l -0.5918,1.1654 -0.94687,0.4371 -2.72225,-0.1457 -2.60389,0.437 -0.47343,-0.7284 -0.94687,-3.6421 -0.35508,-3.3507 0.11836,-5.0989 -0.35508,-3.9334 -1.30194,-2.9137 -2.72225,0.2914 2.48553,2.4766 0.82851,3.9334 -0.23672,4.5162 -1.18358,4.2248 -0.23672,3.6421 -4.37927,1.3112 -5.20779,-0.5828 -2.48553,-2.0395 -1.18359,0.2913 -1.18358,0.4371 0.59179,2.0396 -1.42031,0.7284 -2.24881,0.1457 -1.65702,0.5827 -1.77538,0.8741 -4.0242,0.1457 -1.77538,0.7284 -2.13046,-3.0594 1.77538,-4.6618 5.91794,-8.1583 -1.18359,-0.1457 -0.71015,-0.1457 h -0.59179 l -0.71016,0.2914 -3.07732,4.5162 -0.35508,-5.973 -1.53866,-5.3903 h -0.47344 l -0.11835,2.1852 0.11835,2.9137 0.47344,2.768 0.71015,1.8939 -0.94687,-1.0198 -0.71015,-1.1655 -1.06523,-1.0198 -1.65702,-0.437 1.06523,2.6223 0.94687,1.6025 0.59179,1.8939 -0.11836,2.9136 -0.59179,2.1853 -0.5918,1.6025 -0.59179,0.5828 -0.71015,0.2913 -0.59179,0.5828 v 1.6025 l 0.71015,-0.4371 h 0.59179 l 1.18359,0.4371 -0.47344,1.0198 -2.48553,1.0197 -3.31404,0.2914 -2.24882,-0.7284 -0.35507,0.437 -0.5918,0.5828 -0.35507,0.437 -1.42031,-0.7284 -0.82851,-1.0198 -0.23672,-1.6025 v -2.0396 l 0.35508,-1.7482 1.18359,-2.6223 0.23671,-1.6025 -0.35507,0.2914 -0.94687,0.2913 -0.47344,0.1457 v -1.7482 l 0.35508,-3.0593 h -0.94687 l -0.94687,-0.2914 -1.06523,-0.5827 -1.06523,0.437 -0.35507,1.0198 0.23671,1.7482 0.35508,1.4568 0.35508,1.0198 -0.35508,1.4569 0.47343,1.1654 0.71016,1.3112 0.47343,1.7482 -0.35507,2.3309 h -0.5918 l -1.06523,-1.1654 -1.4203,-0.7285 -2.0121,-0.1456 -0.71015,-0.5828 -0.11836,-3.9334 0.59179,-0.1457 0.11836,-0.2914 -1.18358,-2.1852 -0.11836,-0.2914 -0.11836,-1.8939 0.11836,-1.8939 h -0.47344 l -0.71015,3.7878 -0.47344,-0.5827 -1.4203,-1.0198 1.4203,3.7877 0.23672,1.8939 -1.06523,1.1655 -1.30194,-0.1457 -1.42031,-1.0198 -1.06522,-1.3111 -0.71016,-0.5828 -1.89374,-0.7284 -2.01209,-2.0395 -1.06523,-2.768 0.94687,-2.768 -0.94687,-0.1457 -0.71015,0.4371 -0.23672,0.7284 0.11836,1.3111 h -0.5918 l -1.53866,-1.8939 -3.55076,-2.6223 -1.06523,-1.6025 0.59179,0.4371 1.18359,0.5827 0.59179,0.5827 -0.71015,-1.4568 -1.06523,-0.7284 -1.18358,-0.2914 -1.30195,-0.5827 -1.89374,-2.6223 -0.71015,-1.1655 -2.36717,-3.0593 -0.5918,-0.4371 -8.28511,-9.6151 -2.48553,-4.2248 -0.94687,-4.8075 0.35508,0.1456 0.35507,0.1457 0.5918,0.5828 v -2.1853 l -3.90584,-2.9137 -1.06523,-2.1852 -0.35508,-1.7482 -2.24881,-4.8076 -1.06523,-1.3111 3.07733,2.1852 -0.71016,-2.6223 -2.95896,-3.9334 -2.48554,-8.5953 -0.71015,-5.24462 -0.47343,-1.60252 -1.18359,-2.91367 -0.47344,-1.7482 -0.23671,-1.7482 -0.23672,-0.8741 -0.71015,-0.8741 -0.5918,-1.16547 -0.35507,-1.7482 0.47343,-1.31115 1.06523,-0.58273 1.42031,0.14568 1.4203,0.58274 0.94687,1.01978 1.65702,2.76798 1.06523,0.87411 -1.30195,-4.37051 -0.59179,-1.7482 1.89374,0.29137 1.89374,0.58273 -0.71015,-1.45683 -2.48554,-3.20503 -0.82851,-0.72842 -0.35507,0.43705 v 2.03957 l -0.23672,0.43705 -0.82851,0.14568 -0.71015,0.14568 -1.30195,0.58274 -1.18359,-0.72842 -2.13045,0.43705 -0.94687,-0.58273 -0.11836,-0.8741 0.11836,-3.93345 -0.35508,-5.09892 -1.89374,-10.05215 0.47344,-1.45683 2.13045,-0.58274 5.91794,-0.14568 1.65702,-0.58273 0.23672,1.01978 0.23672,0.72842 0.82851,1.31115 0.71015,-0.58274 0.59179,-1.7482 0.5918,-0.72841 0.47343,-0.43705 3.07733,-1.45684 1.53866,-0.43705 1.30195,0.14569 0.94687,0.72841 h 0.59179 l -0.71015,-1.31115 -2.13046,-2.33093 -0.82851,-1.7482 -0.35508,-1.45684 -0.11836,-1.89388 0.23672,-1.7482 0.47344,-1.31115 1.18358,-0.8741 1.42031,-0.43705 2.95897,0.14568 1.06522,-0.58273 1.06523,-1.45683 1.30195,-2.47662 -1.42031,0.72842 -1.18358,1.31115 -1.30195,0.8741 -1.65702,-0.72842 -0.23672,0.58273 -0.59179,0.43705 -0.47344,0.58274 -2.01209,-0.58274 -2.13046,1.31115 -1.30195,2.47662 0.5918,2.91367 -1.06523,2.6223 -1.18359,1.7482 -1.4203,0.43705 -1.89374,-1.01979 -0.47344,-0.72841 -0.23672,-0.72842 -0.35507,-0.58273 -1.06523,-0.14569 -0.47343,0.58274 0.23671,1.45683 0.5918,1.45684 0.59179,1.01978 -5.20778,-0.43705 -10.17885,-4.07914 -0.35508,-0.58273 -0.47343,-1.31115 -0.23672,-0.58273 -2.84061,-3.20504 -1.89374,-1.60251 -0.71015,-2.33094 -0.11836,-2.33093 0.23672,-1.16547 0.59179,-0.29136 1.42031,-2.03957 0.82851,-0.58273 0.59179,-0.14569 8.8769,0.43705 3.31405,0.58274 1.77538,1.31115 h 0.71015 l 0.82851,-1.60252 1.53866,-3.93345 0.71016,-1.31115 1.06522,-0.58273 h 1.42031 l 1.4203,0.58273 0.94687,0.8741 0.23672,0.72842 0.47344,2.47661 0.23671,0.58274 0.94687,-0.14569 0.47344,-0.29136 0.11836,-0.72842 v -1.16547 l -0.71016,-1.7482 -1.4203,-1.89388 -1.89374,-1.60252 -1.53866,-0.8741 -1.65703,0.14569 -0.94686,1.01978 -1.06523,3.4964 -0.94687,1.01978 -1.42031,0.8741 -1.65702,0.43705 -1.53866,-0.14568 -1.65702,-1.16547 -0.71016,-1.60251 v -1.89389 l 1.65703,-5.97301 0.23671,-1.60252 -0.11836,-2.18525 h -0.59179 l -2.48553,8.30395 -0.94687,2.18525 -1.18359,1.45683 -1.53866,0.72842 -2.13046,0.29137 -0.94687,0.29136 -2.13046,1.45684 -2.24881,1.01978 -0.47344,-0.29137 -1.30194,-1.01978 -1.30195,-1.45683 -1.4203,-2.18525 -1.18359,-2.33094 -0.82851,-3.05935 -0.82851,-1.60251 -0.82851,-2.03957 -0.35508,-2.47662 0.23672,-2.33093 0.59179,-2.47662 0.82851,-2.03957 1.06523,-0.8741 1.06523,0.43705 1.77538,1.7482 0.71015,0.29137 0.47344,-0.72842 -0.23672,-1.01978 -0.35507,-1.16547 0.11835,-1.01978 2.84061,-3.05935 7.33824,-3.35072 2.0121,-4.22481 -1.89374,0.43705 -3.07732,3.35071 -3.55077,1.31115 -6.74644,4.51619 -1.30195,1.16546 -4.49763,5.09892 h -0.94687 l -3.31404,-9.17805 -10.889,-17.33632 -1.89374,-2.18525 -3.55076,-1.89388 -1.53867,-2.18525 -2.36717,-4.51619 -3.07733,-3.93345 -2.72225,-2.76798 -6.74644,-5.2446 -2.95897,-2.33093 -5.56286,-6.41007 -3.4324,-2.6223 -1.42031,-0.8741 -7.81167,-4.22482 -5.79958,-1.31115 -19.29247,-4.3705 -22.96159,-2.33093 -38.22986,2.33093 -2.0121,-0.43705 -1.06523,-1.01978 -0.94687,-1.16547 -1.30194,-1.16547 0.82851,-0.58273 0.71015,-0.14568 0.47344,0.14568 0.59179,0.58273 1.30194,-1.60251 0.5918,0.58273 0.11836,1.7482 0.35507,1.60252 3.19569,-3.64209 0.47343,0.14569 0.35508,0.8741 h 0.71015 l 1.18359,-0.43705 1.65702,-0.14569 1.53866,-0.29136 1.42031,-0.8741 1.18359,-1.7482 0.11835,-1.31115 -0.11835,-1.16547 v -1.01978 l 0.94686,-0.29137 h 3.66912 l 1.89374,-0.58273 3.90584,-1.45684 1.18359,0.43705 2.0121,-1.01978 1.77538,-1.31115 1.30194,-1.7482 0.47344,-2.33093 1.18358,-0.58274 7.4566,-1.31115 -0.71015,-0.72841 -0.59179,-0.29137 h -0.47344 l -0.71015,0.14568 -5.08942,-1.45683 -5.08943,2.33093 -4.73435,3.4964 -4.37927,1.7482 h -1.65702 l -0.94687,0.14569 -3.07733,2.03956 -1.06523,0.58274 -1.06522,0.14568 -1.18359,0.14568 -0.23672,-0.29136 -1.06523,-0.43705 h -1.06522 l -0.5918,-0.58274 -0.35507,-0.29136 -0.35508,-1.45684 -0.11836,-1.31115 0.71015,-2.47661 v -1.45684 l -1.53866,1.01979 -1.06523,1.16546 -2.0121,2.6223 -0.71015,0.43705 h -0.94687 l -0.71015,0.29137 -0.35508,0.8741 0.11836,0.72842 0.47344,1.7482 v 1.01978 l -0.35508,1.16547 -1.18359,2.33093 -0.35507,1.31115 -0.35508,0.8741 -0.59179,0.58273 -0.35508,0.72842 0.47344,0.8741 0.47343,0.58273 0.23672,0.58274 0.11836,0.72841 0.47343,0.58274 -0.47343,2.47661 -5.20779,0.58274 -10.06049,-0.58274 -11.83587,1.7482 -13.84797,-0.8741 -20.12098,2.33094 0.11836,-6.84712 0.5918,-4.95323 0.35507,-2.18525 0.35508,-1.16547 1.65702,-5.97302 0.11836,-2.33093 -0.71015,-4.66187 v -2.33093 l 1.06523,-2.33094 1.53866,-1.7482 1.18359,-0.8741 0.47343,-1.31115 -0.35508,-5.09891 -0.11835,-1.16547 -0.47344,-0.43705 -1.18359,-0.14568 -0.94687,-0.43705 -0.71015,-0.58274 -0.71015,-1.16546 -0.47343,-2.18525 0.23671,-2.47662 0.94687,-4.66187 -0.35507,-4.66186 -1.30195,-4.22482 -0.23672,-4.07914 2.36718,-3.93345 0.94687,-0.58273 1.18358,-0.43705 0.94687,-0.58273 0.35508,-1.31115 -0.59179,-1.01979 -2.24882,-2.33093 -0.82851,-1.16547 -0.35508,-1.45683 0.11836,-0.8741 0.35508,-0.72842 0.82851,-2.03956 0.71015,-1.16547 0.35508,-1.01978 0.11836,-1.60252 -1.89374,-27.38847 0.23671,-1.16547 0.5918,-0.43705 h 0.94687 l 2.0121,0.43705 0.23671,-0.29136 0.11836,-0.58274 0.11836,-1.01978 0.23672,-4.66187 -1.89374,-4.07913 -2.72225,-3.93345 -1.77538,-4.07914 -0.47344,-4.3705 0.23672,-3.64208 0.82851,-15.00538 -0.23672,-1.60252 -0.82851,-1.60252 -2.13045,-2.91366 -0.94687,-3.20504 -0.82851,-1.45683 v -0.43705 -0.43705 l 0.11835,-0.8741 0.94687,-2.03957 0.35508,-1.01978 0.35508,-7.13849 1.06522,-6.9928 0.23672,-6.70143 0.23672,-2.03957 0.71015,-1.89388 0.94687,-1.7482 0.71015,-2.18525 v -2.33094 l -0.59179,-2.47661 -1.77538,-4.51619 -0.71015,-2.47661 -0.35508,-2.76799 0.11836,-2.03956 0.71015,-4.66187 v -1.01978 l -0.23672,-2.03957 v -1.01978 l 0.47344,-1.45684 1.77538,-2.47661 0.71015,-1.31115 0.71015,-3.78777 -0.11835,-3.20504 -1.77538,-27.24278 v -0.14568 -1.16547 l 0.47343,-0.8741 1.53866,-0.72842 0.47344,-0.58273 0.11836,-1.01979 -0.47344,-1.7482 -0.11836,-1.01978 0.35508,-1.7482 1.18359,-3.20503 v -1.60252 l -0.35508,-0.8741 -0.47343,-0.14568 -0.35508,-0.29137 -0.11836,-0.8741 0.23672,-0.14568 0.94687,-1.89389 0.23671,-0.72841 0.5918,-3.05935 0.11836,-7.13849 -0.23672,-2.91366 6.8648,0.72841 1.18359,-0.29136 0.94687,-0.72842 0.71015,-1.01978 0.94687,-0.72842 0.94687,-0.29137 h 2.84061 l 0.94687,0.14569 0.94687,0.58273 0.94687,0.72842 0.82851,0.43705 h 1.06523 l 6.15465,-1.89389 2.13046,-1.89388 1.4203,-3.4964 2.95897,-11.50899 1.89374,-4.3705 0.47344,-2.33093 0.11835,-7.28417 -0.35507,-1.7482 -1.18359,-3.64208 -0.59179,-3.05935 0.35507,-3.05935 1.77538,-3.4964 0.5918,-0.58274 1.4203,-0.58273 0.71016,-0.72842 5.4445,-8.88668 0.11835,-0.58273 -0.47343,-1.45684 -0.11836,-0.72841 0.71015,-2.76799 1.42031,-0.58273 1.77538,0.43705 1.53866,0.14568 2.95897,-2.03956 0.59179,-2.91367 -0.71015,-3.35072 -1.06523,-3.4964 -0.35507,-2.18525 0.23671,-2.6223 0.82851,-2.18525 1.42031,-1.31115 6.39137,-3.35072 3.55076,-1.01978 5.32614,0.72842 1.65702,-1.89389 2.36718,-5.39028 2.84061,-4.22482 0.94687,-2.18525 0.59179,-9.6151 0.59179,-1.89388 1.30195,-1.60252 1.30195,-0.72842 1.18358,-1.01978 0.82851,-2.47662 v -0.58273 l 0.23672,-2.03957 -0.23672,-1.7482 -0.82851,-1.45683 -6.03629,-7.72122 -1.30195,-2.6223 -0.11836,-2.03956 1.89374,-5.09892 2.24882,-4.3705 0.35507,-1.31115 0.11836,-2.18525 0.23672,-0.72842 0.59179,-1.01978 1.77538,-2.18525 1.77539,-0.72842 1.89373,0.43705 5.68122,3.78777 1.42031,-0.29137 1.4203,-2.18525 0.5918,-2.03957 v -5.82733 l 0.82851,-2.91367 2.36717,-5.68165 0.59179,-2.91366 v -3.4964 -2.76799 l -0.47343,-3.20503 -0.82851,-2.18525 -1.06523,-0.8741 -1.30195,-0.29137 -1.18358,-0.43705 -0.82851,-1.16547 -0.82851,-3.64208 -0.47344,-1.31115 -0.71015,-0.8741 -0.71015,-0.8741 -0.71016,-0.8741 -0.47343,-1.45683 0.11836,-1.89389 1.89374,-5.97301 0.11836,-3.20504 -1.77539,-10.05215 -0.94686,-1.89388 -0.71016,-2.18525 -0.35507,-2.18525 v -2.47662 l 0.94687,-4.3705 -0.82851,-0.8741 h -0.71016 -0.11836 l -0.82851,0.14568 -0.71015,-0.14568 -2.13046,-2.47662 -16.09678,-28.11688 -1.30195,-3.05935 -0.23671,-2.6223 1.89374,-5.97302 0.47343,-1.7482 1.06523,-5.09892 6.27301,-13.1115 z m 353.65582,804.60913 2.95896,-0.4371 0.94687,0.4371 -0.47343,1.4568 -0.82851,1.3112 -1.53866,0.437 -3.43241,-0.1457 -1.4203,0.1457 -4.37927,2.0396 -1.53867,0.1457 -6.62808,-0.4371 -1.42031,-0.8741 -0.47343,-1.4568 0.82851,-2.0396 0.82851,-0.437 4.37927,-1.7482 1.06523,0.5827 3.19568,1.8939 1.53867,0.5827 1.65702,-0.2913 3.19568,-1.0198 z m -23.90846,-0.8741 4.14255,-0.4371 1.06523,0.4371 -1.06523,1.1655 -0.59179,1.3111 -0.11836,1.6025 v 1.6025 l -0.35508,1.7482 -0.94687,1.1655 -1.18358,0.8741 -1.30195,0.7284 -7.93003,2.0396 -3.07733,-0.4371 -0.82851,-1.3111 0.82851,-2.0396 2.84061,-3.7877 2.13046,-3.7878 1.65702,-2.4766 0.35508,-1.0198 0.35507,-1.8939 1.30195,0.8741 1.30194,3.0594 z"
       id="NG"
       name="Nigeria"
       style="fill:#1b7339;fill-opacity:1;stroke:none;stroke-width:0.656561;stroke-linecap:round;stroke-linejoin:round" /></g><g
     inkscape:groupmode="layer"
     id="layer3"
     inkscape:label="radar_sweeps"
     style="display:inline"><g
       id="g63"
       inkscape:label="radar"><circle
         style="display:inline;opacity:1;fill:none;fill-opacity:1;stroke:#ffffff;stroke-width:10;stroke-linecap:round;stroke-linejoin:round;stroke-dasharray:10, 20;stroke-dashoffset:0;stroke-opacity:1"
         id="path2"
         cx="941.44189"
         cy="528.21722"
         r="146.99432"
         inkscape:tile-cx="941.44189"
         inkscape:tile-cy="528.21722"
         inkscape:tile-w="303.977"
         inkscape:tile-h="303.71298"
         inkscape:tile-x0="789.45922"
         inkscape:tile-y0="376.22295"
         transform="matrix(0.5538969,0,0,0.5538969,458.99803,113.43614)" /><use
         x="0"
         y="0"
         inkscape:tiled-clone-of="#path2"
         xlink:href="#path2"
         transform="matrix(2.05,0,0,2.05,-1026.2202,-426.43531)"
         id="use62" /><use
         x="0"
         y="0"
         inkscape:tiled-clone-of="#path2"
         xlink:href="#path2"
         transform="matrix(3.1,0,0,3.1,-2058.9885,-843.1036)"
         id="use63" /></g></g><g
     inkscape:groupmode="layer"
     id="layer2"
     inkscape:label="pump_icons"
     inkscape:highlight-color="#a5a86a"><use
       xlink:href="#symbol8"
       id="use8"
       inkscape:label="gas_station"
       transform="translate(-621.28606,-711.87827)" /><use
       xlink:href="#symbol8"
       id="use1"
       transform="translate(88.611531,-1204.9391)" /><use
       xlink:href="#symbol8"
       id="use1-3"
       transform="translate(-535.01115,-1159.7972)" /><use
       xlink:href="#symbol8"
       id="use1-38"
       transform="translate(-10.415795,-923.81092)" /><use
       xlink:href="#symbol8"
       id="use1-1"
       transform="translate(-302.72383,-640.78019)" /></g><g
     inkscape:groupmode="layer"
     id="layer4"
     inkscape:label="UI"><g
       style="opacity:1;fill:none;fill-rule:nonzero;stroke:none;stroke-width:0;stroke-linecap:butt;stroke-linejoin:miter;stroke-miterlimit:10;stroke-dasharray:none"
       transform="matrix(4.1811405,0,0,4.1811405,795.59348,29.635066)"
       id="g2"
       inkscape:label="location_pin">
	<path
   d="M 45,90 C 30.086,71.757 15.174,46.299 15.174,29.826 15.174,13.353 28.527,0 45,0 61.473,0 74.826,13.353 74.826,29.826 74.826,46.299 59.914,71.757 45,90 Z"
   style="opacity:1;fill:#dc2028;fill-rule:nonzero;stroke:none;stroke-width:1;stroke-linecap:butt;stroke-linejoin:miter;stroke-miterlimit:10;stroke-dasharray:none"
   stroke-linecap="round"
   id="path1-7"
   inkscape:label="body" />
	<circle
   cx="45"
   cy="29.379999"
   r="13.5"
   style="opacity:1;fill:#ffffff;fill-rule:nonzero;stroke:none;stroke-width:1;stroke-linecap:butt;stroke-linejoin:miter;stroke-miterlimit:10;stroke-dasharray:none"
   id="circle1"
   inkscape:label="centre_circle" />
	<path
   d="M 48.596,5.375 C 33.355,5.375 21,17.73 21,32.97 c 0,1.584 0.141,3.135 0.397,4.646 C 20.496,35.035 20,32.264 20,29.375 c 0,-13.807 11.193,-25 25,-25 2.889,0 5.661,0.496 8.242,1.397 C 51.731,5.516 50.18,5.375 48.596,5.375 Z"
   style="opacity:1;fill:#e74d46;fill-rule:nonzero;stroke:none;stroke-width:1;stroke-linecap:butt;stroke-linejoin:miter;stroke-miterlimit:10;stroke-dasharray:none"
   stroke-linecap="round"
   id="path2-3"
   inkscape:label="glow" />
</g></g><style
     type="text/css"
     id="style1">
	.st0{fill:#808080;}
	.st1{font-family:'Roboto-Regular';}
	.st2{font-size:14px;}
</style><style
     type="text/css"
     id="style1-6">
	.st0{fill:#808080;}
	.st1{font-family:'Roboto-Regular';}
	.st2{font-size:14px;}
</style></svg>
