<?xml version="1.0" encoding="UTF-8" standalone="no"?>
<!-- Created with Inkscape (http://www.inkscape.org/) -->

<svg
   width="1024"
   height="1024"
   viewBox="0 0 1024 1024"
   version="1.1"
   id="svg1"
   inkscape:version="1.4 (e7c3feb1, 2024-10-09)"
   sodipodi:docname="locate.svg"
   xml:space="preserve"
   xmlns:inkscape="http://www.inkscape.org/namespaces/inkscape"
   xmlns:sodipodi="http://sodipodi.sourceforge.net/DTD/sodipodi-0.dtd"
   xmlns="http://www.w3.org/2000/svg"
   xmlns:svg="http://www.w3.org/2000/svg"><sodipodi:namedview
     id="namedview1"
     pagecolor="#ffffff"
     bordercolor="#000000"
     borderopacity="0.25"
     inkscape:showpageshadow="2"
     inkscape:pageopacity="0.0"
     inkscape:pagecheckerboard="0"
     inkscape:deskcolor="#d1d1d1"
     inkscape:document-units="px"
     inkscape:zoom="0.34433327"
     inkscape:cx="454.50154"
     inkscape:cy="525.65353"
     inkscape:window-width="1440"
     inkscape:window-height="773"
     inkscape:window-x="0"
     inkscape:window-y="25"
     inkscape:window-maximized="0"
     inkscape:current-layer="pump_icons" /><defs
     id="defs1"><symbol
       id="MapSymbolsNPS.svg:GasStation_Inv"><title
         id="title84">Gas Station</title><rect
         x="0.5"
         y="0.5"
         width="71"
         height="71"
         ry="6"
         style="stroke:#ffffff"
         id="rect84" /><path
         d="M 19,63 V 14 c 0,-2 2,-4 4,-4 h 14 c 2,0 4,2 4,4 v 18 h 4 c 2.5,0 5,2.5 5,5 v 20.5 c 0,1.5 1,2.5 2.5,2.5 1.5,0 3.25,-1 3.25,-3 L 53.75,44.75 53,41 53.5,28.75 h -1.25 c -2.25,0 -4,-2.125 -4,-4 L 48.5,18.5 45,14.625 47,13 54.25,20.25 C 55.5,21.5 56,22.75 56,24.5 V 41 l 0.5,3.5 2.25,13 c 0,3.25 -3.5,5.5 -6.25,5.5 C 50,63 47,60.5 47,57.5 V 37 c 0,-1 -1,-2 -2,-2 H 41 V 63 H 19 M 53,26.75 V 24 C 53,23 52.75,22.375 52,22.25 51.75,22 50.75,22 50.75,22 v 3 c 0,1 0.5,1.25 2.25,1.75 z M 38,14.5 C 38,13.5 37.5,13 36.625,13 H 23.5 c -1,0 -1.5,0.5 -1.5,1.5 V 25 c 0,1 0.5,1.5 1.5,1.5 h 13 c 1,0 1.5,-0.5 1.5,-1.5 z"
         style="fill:#ffffff;stroke:none"
         id="path84" /></symbol><symbol
       id="symbol8"><path
         d="m 1283.0004,1381.557 0.082,-0.1 -23.4094,-18.9616 -7.3739,9.0946 12.0967,9.7968 a 17.498506,17.498506 0 0 0 -8.1581,17.9199 c 0.8778,5.2612 4.5004,9.8085 9.1882,12.3542 5.2378,2.8501 9.8319,2.5868 13.9168,1.1354 l -0.088,36.1792 a 5.8289337,5.8289337 0 0 1 -8.1347,5.3958 5.8230814,5.8230814 0 0 1 -1.8611,-1.2699 5.8289337,5.8289337 0 0 1 -1.703,-4.1259 l 0.1346,-11.7047 a 17.439982,17.439982 0 0 0 -5.1325,-12.4011 17.557029,17.557029 0 0 0 -12.4245,-5.1559 h -5.8524 v -46.8188 a 11.704686,11.704686 0 0 0 -11.7046,-11.7047 h -40.9664 a 11.704686,11.704686 0 0 0 -11.7047,11.7047 v 81.9328 a 11.704686,11.704686 0 0 0 11.7047,11.7047 h 40.9664 a 11.704686,11.704686 0 0 0 11.7046,-11.7047 v -23.4093 h 5.8524 c 0.7959,0 1.5626,0.158 2.2883,0.4564 a 6.0162087,6.0162087 0 0 1 3.1075,3.1193 5.817229,5.817229 0 0 1 0.4565,2.2766 l -0.1404,11.7047 c 0,2.376 0.4623,4.676 1.3811,6.8355 0.8837,2.101 2.1537,3.9796 3.7514,5.5656 a 17.381459,17.381459 0 0 0 12.4245,5.1559 c 2.3761,0 4.6702,-0.4565 6.8355,-1.3811 2.0952,-0.8779 3.9796,-2.1478 5.5656,-3.7514 a 17.457539,17.457539 0 0 0 5.1559,-12.4245 l 0.1405,-52.6711 a 17.539472,17.539472 0 0 0 -8.0997,-14.7479 z m -50.4237,8.8956 h -40.9664 v -17.5571 h 40.9664 z m 40.9664,11.7046 a 5.8523431,5.8523431 0 1 1 0,-11.7046 5.8523431,5.8523431 0 0 1 0,11.7046 z"
         id="path1-8"
         style="fill:#ffffff;fill-opacity:1;stroke:none;stroke-width:5.852;stroke-dasharray:none"
         inkscape:label="gas_station" /></symbol></defs><g
     inkscape:label="map"
     inkscape:groupmode="layer"
     id="map"
     transform="translate(-419.95523,-12.908026)"><path
       style="display:inline;fill:#1b7339;fill-opacity:1;stroke-width:0.688462"
       d="m 739.89958,1035.4926 c 26.83661,-4.1261 153.2788,-24.7337 158.12456,-25.7712 10.98642,-2.3524 14.26494,-5.5328 18.55802,-18.00232 2.78147,-8.07912 6.62581,-22.36283 12.96308,-48.16374 8.44043,-34.36391 14.71274,-51.14322 25.77032,-68.93863 25.8169,-41.54877 52.15214,-70.92166 83.02324,-92.5997 15.2068,-10.67855 18.1276,-12.65911 23.7503,-16.10537 11.8491,-7.26278 22.5433,-10.27563 31.1596,-8.77868 10.0867,1.75242 16.5751,6.158 30.9231,20.996 9.6209,9.94947 13.9261,13.59967 20.6515,17.51011 4.6766,2.71917 5.6222,3.0118 8.4173,2.60439 12.6076,-1.83748 35.318,-28.47939 45.1996,-53.02434 4.2826,-10.6375 7.1503,-24.29042 13.2714,-63.18394 8.6555,-54.99632 13.2878,-72.43861 23.9947,-90.34804 2.3887,-3.99579 11.1047,-15.49755 21.3831,-28.21772 l 17.3507,-21.47247 5.3437,-11.11969 c 8.2004,-17.06403 14.5138,-32.02318 27.1463,-64.32256 18.2498,-46.66112 61.1403,-151.76647 64.5125,-158.09097 6.6186,-12.41289 15.0837,-20.85152 33.4095,-33.30513 13.9705,-9.49393 19.7156,-14.32103 25.0317,-21.03204 10.368,-13.0885 16.1516,-33.26096 13.3802,-46.66764 -2.233,-10.80192 -7.1398,-18.4005 -17.242,-26.70056 -14.9778,-12.30591 -21.6294,-25.5642 -28.643,-57.09241 -5.1992,-23.3727 -7.093,-30.162391 -11.3363,-40.644435 -11.6534,-28.787535 -20.5188,-40.823278 -30.9063,-41.958642 -6.334,-0.692252 -14.6878,4.283083 -35.3235,21.037951 -22.3674,18.161006 -32.041,24.350004 -44.3007,28.342595 -4.9664,1.617338 -7.4731,1.967194 -14.3605,2.003925 -9.9439,0.05296 -15.1143,-1.227238 -38.2462,-9.470466 -32.0317,-11.414799 -52.9459,-13.097398 -98.9646,-7.962243 -21.6659,2.417726 -30.0484,5.60027 -59.9524,22.761578 -24.7831,14.222647 -33.5355,18.243067 -47.0674,21.620237 -12.0487,3.00708 -20.02723,3.73392 -36.23873,3.3014 -16.13357,-0.43044 -24.49484,-1.57815 -40.92513,-5.61768 C 923.1532,112.99794 919.0791,111.41403 901.43706,102.1826 864.59068,82.902264 854.35554,81.062607 829.24649,89.207217 802.11601,98.00758 791.26504,98.211875 777.85693,90.174854 772.77998,87.13166 771.19893,85.66171 765.73505,78.904997 761.93568,74.206732 756.20576,65.71703 751.24102,57.430393 746.72514,49.892839 741.371,41.524845 739.34281,38.834792 731.24473,28.093538 720.21563,21.684222 703.9649,18.275607 c -13.25647,-2.780612 -37.00003,-5.423732 -48.20926,-5.366674 -16.28208,0.08297 -25.36634,2.303161 -64.27891,15.709693 -30.64322,10.557582 -37.16329,14.089353 -45.79176,24.804146 -6.47292,8.038171 -9.16208,12.812507 -18.83121,33.433122 -11.05787,23.582136 -13.36459,28.923966 -16.63424,38.520116 -7.73468,22.70092 -11.71618,45.37001 -13.90811,79.18772 -2.30176,35.51189 -0.81025,50.40026 8.65361,86.37956 8.08502,30.73778 9.93365,42.88778 9.37717,61.631 -0.47066,15.85087 -1.5681,20.73258 -8.79335,39.11492 -2.48684,6.32672 -9.01634,23.9265 -14.51013,39.11066 -25.68059,70.97777 -33.04053,87.10936 -43.92931,96.28411 -1.91779,1.61602 -7.56246,5.44235 -12.54358,8.50301 -11.04757,6.78822 -12.96917,8.62732 -13.92249,13.32486 -0.50105,2.46875 -0.70518,17.34618 -0.68699,50.06293 0.0352,63.52248 1.14107,208.36513 1.62173,212.43103 0.46161,3.90501 1.73357,5.18039 6.21945,6.23592 3.94873,0.92913 20.25329,1.95513 61.69833,3.88244 44.18594,2.05476 51.59379,2.92188 62.41914,7.3065 8.92861,3.61629 19.40866,11.44737 33.69017,25.17478 8.40728,8.08103 22.61754,25.72097 28.24688,35.06442 10.39822,17.25864 15.82865,30.49396 25.61886,62.43895 8.98481,29.31728 14.05528,40.45078 23.92683,52.53768 6.60056,8.0818 13.33219,13.9485 22.64316,19.7339 7.93272,4.9291 19.97096,10.826 24.7227,12.1107 5.52836,1.4946 17.92648,1.325 29.13599,-0.3985 z"
       id="path47"
       inkscape:label="NG" /></g><g
     inkscape:groupmode="layer"
     id="radar_sweeps"
     inkscape:label="radar_sweeps"
     style="display:inline"
     transform="translate(-419.95523,-12.908026)"><circle
       style="display:inline;opacity:1;fill:none;fill-opacity:1;stroke:#ffffff;stroke-width:10;stroke-linecap:round;stroke-linejoin:round;stroke-dasharray:10, 20;stroke-dashoffset:0;stroke-opacity:1"
       id="inner_radar"
       cx="941.44189"
       cy="528.21722"
       r="146.99432"
       inkscape:tile-cx="941.44189"
       inkscape:tile-cy="528.21722"
       inkscape:tile-w="303.977"
       inkscape:tile-h="303.71298"
       inkscape:tile-x0="789.45922"
       inkscape:tile-y0="376.22295"
       transform="matrix(0.52761901,0,0,0.52761898,457.14577,108.6669)"
       inkscape:label="radar" /></g><g
     inkscape:groupmode="layer"
     id="pump_icons"
     inkscape:label="pump_icons"
     inkscape:highlight-color="#a5a86a"
     transform="translate(-419.95523,-12.908026)"><path
       d="m 1181.812,641.53776 0.077,-0.0933 -21.9492,-17.77888 -6.9139,8.52728 11.3422,9.18575 a 16.40705,16.407049 0 0 0 -7.6494,16.80213 c 0.8231,4.93309 4.2198,9.19673 8.6152,11.5837 4.9111,2.67234 9.2186,2.4254 13.0488,1.06455 l -0.083,33.92253 a 5.4653588,5.4653584 0 0 1 -7.6273,5.05929 5.4598714,5.459871 0 0 1 -1.745,-1.19073 5.4653588,5.4653584 0 0 1 -1.5968,-3.86856 l 0.1261,-10.97461 a 16.352177,16.352176 0 0 0 -4.8123,-11.6276 16.461923,16.461922 0 0 0 -11.6496,-4.83432 h -5.4873 v -43.89847 a 10.974616,10.974615 0 0 0 -10.9746,-10.97461 h -38.4112 a 10.974616,10.974615 0 0 0 -10.9746,10.97461 v 76.82231 a 10.974616,10.974615 0 0 0 10.9746,10.97461 h 38.4112 a 10.974616,10.974615 0 0 0 10.9746,-10.97461 V 688.2896 h 5.4873 c 0.7463,0 1.4651,0.14816 2.1456,0.42801 a 5.6409526,5.6409522 0 0 1 2.9137,2.92474 5.4543841,5.4543837 0 0 1 0.428,2.13456 l -0.1316,10.97461 c 0,2.22785 0.4335,4.38436 1.295,6.40917 0.8285,1.96995 2.0193,3.73137 3.5173,5.21845 a 16.297304,16.297303 0 0 0 11.6496,4.8343 c 2.2278,0 4.3789,-0.42801 6.4092,-1.29501 1.9644,-0.82309 3.7313,-2.01383 5.2184,-3.51735 a 16.368639,16.368638 0 0 0 4.8343,-11.64956 l 0.1317,-49.38576 a 16.445461,16.44546 0 0 0 -7.5944,-13.82802 z m -47.2786,8.3407 h -38.4113 v -16.46192 h 38.4113 z m 38.4111,10.97463 a 5.4873161,5.4873157 0 1 1 0,-10.97463 5.4873161,5.4873157 0 0 1 0,10.97463 z"
       id="station5"
       style="fill:#ffffff;fill-opacity:1;stroke-width:5.4873"
       inkscape:label="station5" /><path
       d="m 847.23005,756.14695 0.0772,-0.0932 -21.94923,-17.77888 -6.91395,8.52728 11.3422,9.18574 a 16.40705,16.407049 0 0 0 -7.64932,16.80214 c 0.8231,4.93309 4.21973,9.19673 8.61512,11.5837 4.91111,2.67233 9.21867,2.4254 13.04881,1.06455 l -0.0829,33.92252 a 5.4653588,5.4653584 0 0 1 -7.62733,5.0593 5.4598714,5.459871 0 0 1 -1.74499,-1.19074 5.4653588,5.4653584 0 0 1 -1.59677,-3.86856 l 0.12612,-10.97461 a 16.352177,16.352176 0 0 0 -4.81233,-11.6276 16.461923,16.461922 0 0 0 -11.64959,-4.83432 h -5.48731 V 748.0258 a 10.974616,10.974615 0 0 0 -10.97461,-10.97461 h -38.41115 a 10.974616,10.974615 0 0 0 -10.97461,10.97461 v 76.82231 a 10.974616,10.974615 0 0 0 10.97461,10.97461 h 38.41115 a 10.974616,10.974615 0 0 0 10.97461,-10.97461 v -21.94922 h 5.48731 c 0.74633,0 1.46513,0.14816 2.14554,0.42801 a 5.6409526,5.6409522 0 0 1 2.91378,2.92473 5.4543841,5.4543837 0 0 1 0.42799,2.13456 l -0.13165,10.97461 c 0,2.22786 0.43351,4.38436 1.295,6.40918 0.82854,1.96994 2.01933,3.73137 3.51733,5.21844 a 16.297304,16.297303 0 0 0 11.64959,4.8343 c 2.22784,0 4.37891,-0.428 6.40919,-1.295 1.96446,-0.8231 3.73136,-2.01383 5.2184,-3.51736 a 16.368639,16.368638 0 0 0 4.83433,-11.64956 l 0.13164,-49.38575 a 16.445461,16.44546 0 0 0 -7.59436,-13.82802 z m -47.27861,8.3407 H 761.5402 v -16.46191 h 38.41124 z m 38.41115,10.97464 a 5.4873204,5.48732 0 1 1 0,-10.97464 5.4873204,5.48732 0 0 1 0,10.97464 z"
       id="path1"
       style="fill:#ffffff;fill-opacity:1;stroke-width:5.4873"
       inkscape:label="station4"
       transform="translate(-1.1600417e-6)" /><path
       d="m 620.70532,605.13047 0.0772,-0.0932 -21.94923,-17.77888 -6.91395,8.52728 11.3422,9.18574 a 16.40705,16.407049 0 0 0 -7.64932,16.80214 c 0.8231,4.93309 4.21973,9.19673 8.61512,11.5837 4.91111,2.67233 9.21867,2.4254 13.04881,1.06455 l -0.0829,33.92252 a 5.4653588,5.4653584 0 0 1 -7.62733,5.0593 5.4598714,5.459871 0 0 1 -1.74499,-1.19074 5.4653588,5.4653584 0 0 1 -1.59677,-3.86856 l 0.12612,-10.97461 a 16.352177,16.352176 0 0 0 -4.81233,-11.6276 16.461923,16.461922 0 0 0 -11.64959,-4.83432 h -5.48731 v -43.89847 a 10.974616,10.974615 0 0 0 -10.97461,-10.97461 h -38.41115 a 10.974616,10.974615 0 0 0 -10.97461,10.97461 v 76.82231 a 10.974616,10.974615 0 0 0 10.97461,10.97461 h 38.41115 a 10.974616,10.974615 0 0 0 10.97461,-10.97461 v -21.94922 h 5.48731 c 0.74633,0 1.46513,0.14816 2.14554,0.42801 a 5.6409526,5.6409522 0 0 1 2.91378,2.92473 5.4543841,5.4543837 0 0 1 0.42799,2.13456 l -0.13165,10.97461 c 0,2.22786 0.43351,4.38436 1.295,6.40918 0.82854,1.96994 2.01933,3.73137 3.51733,5.21844 a 16.297304,16.297303 0 0 0 11.64959,4.8343 c 2.22784,0 4.37891,-0.428 6.40919,-1.295 1.96446,-0.8231 3.73136,-2.01383 5.2184,-3.51736 a 16.368639,16.368638 0 0 0 4.83433,-11.64956 l 0.13164,-49.38575 a 16.445461,16.44546 0 0 0 -7.59436,-13.82802 z m -47.27861,8.3407 h -38.41124 v -16.46191 h 38.41124 z m 38.41115,10.97464 a 5.4873204,5.48732 0 1 1 0,-10.97464 5.4873204,5.48732 0 0 1 0,10.97464 z"
       id="station3"
       style="fill:#ffffff;fill-opacity:1;stroke-width:5.4873"
       inkscape:label="station3" /><path
       d="m 1355.2164,163.16105 0.077,-0.0933 -21.9492,-17.77887 -6.914,8.52728 11.3422,9.18574 a 16.40705,16.407049 0 0 0 -7.6493,16.80214 c 0.8231,4.93309 4.2197,9.19673 8.6151,11.58369 4.9111,2.67234 9.2187,2.42541 13.0488,1.06455 l -0.083,33.92253 a 5.4653588,5.4653584 0 0 1 -7.6274,5.0593 5.4598714,5.459871 0 0 1 -1.745,-1.19074 5.4653588,5.4653584 0 0 1 -1.5967,-3.86856 l 0.1261,-10.97461 a 16.352177,16.352176 0 0 0 -4.8123,-11.6276 16.461923,16.461922 0 0 0 -11.6496,-4.83432 h -5.4873 v -43.89847 a 10.974616,10.974615 0 0 0 -10.9747,-10.97461 h -38.4111 a 10.974616,10.974615 0 0 0 -10.9746,10.97461 v 76.82231 a 10.974616,10.974615 0 0 0 10.9746,10.97461 h 38.4111 a 10.974616,10.974615 0 0 0 10.9747,-10.97461 v -21.94923 h 5.4873 c 0.7463,0 1.4651,0.14816 2.1455,0.42802 a 5.6409526,5.6409522 0 0 1 2.9138,2.92473 5.4543841,5.4543837 0 0 1 0.428,2.13456 l -0.1317,10.97461 c 0,2.22785 0.4335,4.38436 1.295,6.40918 0.8286,1.96994 2.0194,3.73137 3.5173,5.21844 a 16.297304,16.297303 0 0 0 11.6496,4.8343 c 2.2279,0 4.379,-0.428 6.4092,-1.295 1.9645,-0.8231 3.7314,-2.01383 5.2184,-3.51736 a 16.368639,16.368638 0 0 0 4.8344,-11.64956 l 0.1316,-49.38575 a 16.445461,16.44546 0 0 0 -7.5944,-13.82802 z m -47.2786,8.3407 h -38.4112 v -16.46192 h 38.4112 z m 38.4112,10.97463 a 5.4873161,5.4873157 0 1 1 0,-10.97463 5.4873161,5.4873157 0 0 1 0,10.97463 z"
       id="station2"
       style="fill:#ffffff;fill-opacity:1;stroke-width:5.4873"
       inkscape:label="station2" /><path
       d="m 700.68076,148.42874 0.0768,-0.0933 -21.94923,-17.77888 -6.914,8.52729 11.34225,9.18574 a 16.40705,16.407049 0 0 0 -7.6493,16.80214 c 0.8231,4.93308 4.21974,9.19673 8.61508,11.58369 4.91113,2.67234 9.21868,2.42541 13.04882,1.06455 l -0.0824,33.92253 a 5.4653588,5.4653584 0 0 1 -7.62735,5.05929 5.4598714,5.459871 0 0 1 -1.74497,-1.19073 5.4653588,5.4653584 0 0 1 -1.59681,-3.86856 l 0.12617,-10.97461 a 16.352177,16.352176 0 0 0 -4.81236,-11.6276 16.461923,16.461922 0 0 0 -11.64956,-4.83432 h -5.4873 V 140.30754 A 10.974616,10.974615 0 0 0 653.40198,129.33293 H 614.9908 a 10.974616,10.974615 0 0 0 -10.97461,10.97461 v 76.82231 a 10.974616,10.974615 0 0 0 10.97461,10.97461 h 38.41116 a 10.974616,10.974615 0 0 0 10.97462,-10.97461 v -21.94923 h 5.4873 c 0.74629,0 1.46511,0.14816 2.14555,0.42802 a 5.6409526,5.6409522 0 0 1 2.91375,2.92473 5.4543841,5.4543837 0 0 1 0.42801,2.13456 l -0.13166,10.97461 c 0,2.22785 0.4335,4.38436 1.295,6.40917 0.82858,1.96995 2.01934,3.73137 3.51736,5.21845 a 16.297304,16.297303 0 0 0 11.64956,4.8343 c 2.22785,0 4.37888,-0.428 6.40917,-1.295 1.96446,-0.8231 3.73137,-2.01383 5.21844,-3.51736 a 16.368639,16.368638 0 0 0 4.83432,-11.64956 l 0.13167,-49.38575 a 16.445461,16.44546 0 0 0 -7.59444,-13.82802 z m -47.27865,8.3407 h -38.41117 v -16.46192 h 38.41117 z m 38.41114,10.97463 a 5.4873161,5.4873157 0 1 1 0,-10.97463 5.4873161,5.4873157 0 0 1 0,10.97463 z"
       id="station1"
       style="fill:#ffffff;fill-opacity:1;stroke-width:5.4873"
       inkscape:label="station1" /></g><g
     inkscape:groupmode="layer"
     id="UI"
     inkscape:label="UI"
     transform="translate(-419.95523,-12.908026)"><g
       style="opacity:1;fill:none;fill-rule:nonzero;stroke:none;stroke-width:0;stroke-linecap:butt;stroke-linejoin:miter;stroke-miterlimit:10;stroke-dasharray:none"
       transform="matrix(3.9827795,0,0,3.9827793,777.77251,28.841503)"
       id="g2"
       inkscape:label="location_pin">
	<path
   d="M 45,90 C 30.086,71.757 15.174,46.299 15.174,29.826 15.174,13.353 28.527,0 45,0 61.473,0 74.826,13.353 74.826,29.826 74.826,46.299 59.914,71.757 45,90 Z"
   style="opacity:1;fill:#dc2028;fill-rule:nonzero;stroke:none;stroke-width:1;stroke-linecap:butt;stroke-linejoin:miter;stroke-miterlimit:10;stroke-dasharray:none"
   stroke-linecap="round"
   id="body"
   inkscape:label="body" />
	<circle
   cx="45"
   cy="29.379999"
   r="13.5"
   style="opacity:1;fill:#ffffff;fill-rule:nonzero;stroke:none;stroke-width:1;stroke-linecap:butt;stroke-linejoin:miter;stroke-miterlimit:10;stroke-dasharray:none"
   id="centre_circle"
   inkscape:label="centre_circle" />
	<path
   d="M 48.596,5.375 C 33.355,5.375 21,17.73 21,32.97 c 0,1.584 0.141,3.135 0.397,4.646 C 20.496,35.035 20,32.264 20,29.375 c 0,-13.807 11.193,-25 25,-25 2.889,0 5.661,0.496 8.242,1.397 C 51.731,5.516 50.18,5.375 48.596,5.375 Z"
   style="opacity:1;fill:#e74d46;fill-rule:nonzero;stroke:none;stroke-width:1;stroke-linecap:butt;stroke-linejoin:miter;stroke-miterlimit:10;stroke-dasharray:none"
   stroke-linecap="round"
   id="glow"
   inkscape:label="glow" />
</g></g><style
     type="text/css"
     id="style1">
	.st0{fill:#808080;}
	.st1{font-family:'Roboto-Regular';}
	.st2{font-size:14px;}
</style><style
     type="text/css"
     id="style1-6">
	.st0{fill:#808080;}
	.st1{font-family:'Roboto-Regular';}
	.st2{font-size:14px;}
</style></svg>
