<?xml version="1.0" encoding="UTF-8" standalone="no"?>
<!-- Created with Inkscape (http://www.inkscape.org/) -->

<svg
   width="192.41051mm"
   height="257.47086mm"
   viewBox="0 0 192.41051 257.47086"
   version="1.1"
   id="svg1"
   xml:space="preserve"
   inkscape:version="1.4 (e7c3feb1, 2024-10-09)"
   sodipodi:docname="report.svg"
   xmlns:inkscape="http://www.inkscape.org/namespaces/inkscape"
   xmlns:sodipodi="http://sodipodi.sourceforge.net/DTD/sodipodi-0.dtd"
   xmlns="http://www.w3.org/2000/svg"
   xmlns:svg="http://www.w3.org/2000/svg"><sodipodi:namedview
     id="namedview1"
     pagecolor="#ffffff"
     bordercolor="#000000"
     borderopacity="0.25"
     inkscape:showpageshadow="2"
     inkscape:pageopacity="0.0"
     inkscape:pagecheckerboard="0"
     inkscape:deskcolor="#d1d1d1"
     inkscape:document-units="mm"
     inkscape:zoom="0.36650615"
     inkscape:cx="458.38249"
     inkscape:cy="702.58031"
     inkscape:window-width="1440"
     inkscape:window-height="900"
     inkscape:window-x="0"
     inkscape:window-y="0"
     inkscape:window-maximized="0"
     inkscape:current-layer="layer1" /><defs
     id="defs1" /><g
     inkscape:label="Layer 1"
     inkscape:groupmode="layer"
     id="layer1"
     transform="translate(-7.6214731,-6.3097382)"><g
       id="g1"
       transform="matrix(1.709309,0,0,1.709309,-76.144881,-119.27863)"><path
         style="fill:#d6d2e4"
         d="m 51.593745,223.808 c -0.987034,-0.35389 -1.949116,-1.35134 -2.280428,-2.36427 -0.250102,-0.76464 -0.276951,-7.51974 -0.274555,-69.07687 0.0022,-55.805467 0.04475,-68.350228 0.233831,-68.89316 0.323674,-0.929412 1.070277,-1.643954 2.403763,-2.300539 l 1.144303,-0.563434 14.108443,-0.0882 14.108443,-0.08819 0.152933,-0.646851 c 0.317609,-1.343373 -0.284851,-1.271244 10.208345,-1.2222 8.702877,0.04068 9.350537,0.02307 9.080667,-0.246798 -0.565008,-0.565004 -0.24767,-2.278573 0.61601,-3.326366 0.27717,-0.336253 0.91653,-0.816969 1.4208,-1.068258 0.80835,-0.402818 1.12672,-0.455971 2.69021,-0.449146 1.90849,0.0083 2.76068,0.220479 3.58429,0.892284 1.12025,0.913775 1.87201,2.747075 1.4796,3.608313 -0.18231,0.400123 -0.2886,0.43055 -1.504,0.43055 -1.36572,0 -1.52196,-0.09116 -1.52196,-0.888071 0,-0.933688 -0.90583,-1.757762 -1.93215,-1.757762 -1.14564,0 -2.12479,0.925936 -2.12479,2.009302 0,0.241627 -0.0794,0.488379 -0.17639,0.548336 -0.61801,0.381951 0.40274,0.440997 7.62882,0.441298 4.29286,1.79e-4 10.13421,0.05282 12.98076,0.116975 5.55005,0.125091 5.67237,0.147556 5.67237,1.041827 v 0.428373 h 13.72631 c 14.87844,0 14.72377,-0.0092 16.24276,0.96633 0.90524,0.581365 1.88985,1.67887 2.06061,2.296864 0.0804,0.291042 0.17094,31.247293 0.20117,68.791663 0.0441,54.75685 0.0107,68.41541 -0.16885,69.03537 -0.15289,0.52798 -0.46636,0.98656 -0.98931,1.4473 -1.50637,1.32715 3.36016,1.22175 -55.35332,1.19885 -45.29772,-0.0177 -52.812383,-0.0562 -53.418685,-0.27352 z m 104.290165,-71.62848 0.0443,-66.189932 h -11.11273 -11.11273 v 2.434811 c 0,2.267735 -0.0314,2.497883 -0.45803,3.353947 -0.34004,0.682387 -0.66944,1.043419 -1.27882,1.401646 l -0.82079,0.482512 -10.6322,0.05183 -10.6322,0.05183 -1.45044,-0.669192 c -1.35664,-0.625916 -1.5588,-0.669191 -3.12614,-0.669191 -1.56395,0 -1.77127,0.04411 -3.109,0.661458 l -1.43331,0.661459 H 90.264923 79.768059 L 78.827933,93.259571 C 78.06687,92.861987 77.794264,92.589381 77.39668,91.828318 76.928151,90.931451 76.905552,90.77549 76.905552,88.43889 V 85.989588 H 65.881246 54.85694 v 66.234332 66.23433 l 50.49132,-0.0444 50.49132,-0.0444 z m -95.545041,63.76802 c -0.08695,-0.22017 -0.254487,-0.65865 -0.372302,-0.9744 -0.258096,-0.69169 -1.230216,-1.58355 -1.893765,-1.73741 -0.265009,-0.0614 -0.660428,-0.22318 -0.878709,-0.35939 -0.390001,-0.24338 -0.396875,-0.30852 -0.396875,-3.76097 0,-3.30678 0.09811,-4.02284 0.496804,-3.62577 0.06631,0.066 0.160244,1.66901 0.208751,3.56216 l 0.08819,3.44209 0.637633,0.21889 c 1.050069,0.36047 1.673242,0.92026 2.219611,1.99383 l 0.517595,1.01704 3.560624,0.0882 c 4.907487,0.12156 4.788249,0.42685 -0.190799,0.48852 l -3.83867,0.0475 z m 82.536131,0.13222 c 0,-0.23096 0.49861,-0.26796 3.61107,-0.26796 h 3.61107 l 0.37877,-0.88047 c 0.42457,-0.98695 1.48785,-2.04921 2.22832,-2.22618 0.92843,-0.22189 0.93049,-0.2303 0.93049,-3.79411 0,-2.86197 0.0377,-3.32979 0.26817,-3.32979 0.23282,0 0.26187,0.47909 0.22048,3.63576 l -0.0477,3.63576 -0.92407,0.34458 c -1.17693,0.43887 -1.91804,1.18196 -2.22326,2.2292 l -0.24081,0.82623 -3.90628,0.0475 c -3.39735,0.0413 -3.90628,0.0126 -3.90628,-0.22049 z m -9.47867,-4.41161 c -3.14675,-0.69502 -5.55018,-3.09451 -6.30449,-6.29417 -0.49646,-2.10587 -0.26899,-3.24276 0.6236,-3.11677 0.40611,0.0573 0.43724,0.14349 0.53727,1.48727 0.17405,2.33812 1.28808,4.32123 3.06662,5.45895 0.98443,0.62973 2.48527,1.14032 3.35189,1.14032 0.3034,0 0.7039,0.11134 0.89001,0.24743 0.28102,0.20548 0.30862,0.33257 0.16282,0.74965 -0.21355,0.6109 -0.72082,0.68223 -2.32772,0.32732 z m -18.6196,-0.46829 c -0.16564,-0.0927 -1.39239,-0.19964 -2.7261,-0.23763 -1.33372,-0.038 -2.90119,-0.11639 -3.48327,-0.17419 -0.58208,-0.0578 -5.82083,-0.33876 -11.641668,-0.62432 -14.257947,-0.69948 -13.846528,-0.66752 -13.846528,-1.07567 0,-0.39695 -0.04134,-0.39092 2.313461,-0.33771 l 1.87249,0.0423 0.122016,-0.50328 c 0.158886,-0.65534 1.072351,-2.03038 2.121305,-3.1932 1.030615,-1.14249 0.842163,-1.19734 -0.395109,-0.115 -0.859775,0.75211 -1.448052,0.9236 -1.448052,0.42214 0,-0.28667 1.35407,-1.48921 2.702205,-2.39981 1.38907,-0.93825 2.288772,-1.11583 2.3806,-0.46989 0.04166,0.29306 -0.385108,0.85549 -1.691276,2.2289 -1.618757,1.7021 -2.840617,3.36872 -2.626622,3.58271 0.167109,0.16711 0.796751,-0.13083 2.167287,-1.02552 1.675359,-1.09369 3.081336,-2.48903 4.172276,-4.14071 0.956405,-1.44799 1.251187,-1.73504 1.631804,-1.58898 0.150754,0.0579 0.66682,0.9462 1.146812,1.97412 1.059221,2.26836 1.471477,2.86953 2.168877,3.16277 0.735202,0.30912 1.379382,0.0548 2.165252,-0.85475 0.59727,-0.69128 3.4911,-6.36694 4.91489,-9.63952 0.68221,-1.56808 1.0539,-2.11667 1.43413,-2.11667 0.47538,0 0.42655,0.44193 -0.34637,3.13492 -1.07127,3.73249 -1.23513,4.60402 -1.2346,6.56647 6.5e-4,2.39654 0.51901,4.03245 1.62967,5.1431 0.5469,0.5469 1.03395,0.86242 1.4525,0.94094 1.43628,0.26945 2.97979,-1.14056 2.97979,-2.72206 0,-1.09295 0.44573,-2.74731 0.9909,-3.67776 0.24387,-0.41621 1.00105,-1.38855 1.68262,-2.16076 0.90281,-1.02287 1.35456,-1.40402 1.6641,-1.40402 0.66302,0 0.54162,0.5401 -0.61085,2.71748 -0.56965,1.07626 -1.4094,2.6815 -1.86612,3.5672 l -0.83038,1.61038 0.38312,0.89059 c 0.46736,1.08641 0.76817,1.3644 1.64702,1.52208 0.75614,0.13566 1.18304,-0.12594 1.63648,-1.0028 0.15231,-0.29453 0.3959,-0.48548 0.61933,-0.48548 0.30434,0 0.35381,0.0842 0.285,0.48507 -0.0458,0.26679 -0.13818,0.61225 -0.20529,0.76769 -0.10196,0.23619 0.0593,0.30158 0.98157,0.39798 1.17185,0.12248 1.58498,0.33511 1.26766,0.65243 -0.24148,0.24148 -5.17838,0.36571 -5.58093,0.14044 z m -1.29653,-1.16674 c 0.0456,-0.0738 -0.0291,-0.28744 -0.16598,-0.47468 -0.24585,-0.33622 -0.25216,-0.3362 -0.50792,0.002 -0.14243,0.18832 -0.2615,0.40193 -0.26458,0.47469 -0.007,0.17363 0.83104,0.17189 0.93848,-0.002 z m -6.50603,-0.90105 c -0.85289,-1.2888 -1.17692,-2.44591 -1.26605,-4.52096 -0.0458,-1.06715 -0.005,-2.41653 0.0911,-2.99861 0.0959,-0.58208 0.15298,-1.08128 0.12678,-1.10933 -0.0262,-0.0281 -0.56917,1.00383 -1.20661,2.29305 -1.77311,3.58613 -3.16799,5.07808 -4.747689,5.07808 -1.037407,0 -1.915311,-0.9189 -3.000435,-3.14055 -0.813677,-1.6659 -0.922117,-1.81078 -1.131443,-1.51173 -1.518544,2.16947 -3.140419,3.77704 -5.135385,5.09009 -0.414281,0.27267 -0.717314,0.53169 -0.673406,0.5756 0.07528,0.0753 14.194528,0.8545 16.378108,0.90388 l 1.01674,0.023 z m 26.32069,-0.18484 c -2.40989,-0.96993 -4.021,-3.17697 -4.03456,-5.5269 -0.0194,-3.36519 2.46658,-6.24268 5.91163,-6.84261 2.10707,-0.36693 3.98473,0.20228 5.5754,1.69017 3.25399,3.04372 2.14646,8.22919 -2.22064,10.39707 -1.37626,0.68319 -3.8977,0.81923 -5.23183,0.28227 z m 3.91533,-3.53198 c 3.09219,-1.57752 2.29178,-5.83122 -1.09724,-5.83122 -1.03543,0 -1.6535,0.24257 -2.38711,0.93686 -1.31498,1.24451 -1.45204,3.1005 -0.31999,4.3332 0.85383,0.92974 2.58215,1.18468 3.80434,0.56116 z m 6.47716,-2.44973 c -0.0497,-0.0805 -0.17631,-0.68402 -0.2813,-1.34124 -0.24287,-1.52033 -0.86433,-2.74452 -1.91049,-3.76344 -0.90511,-0.88154 -2.6104,-1.76925 -3.67363,-1.91236 -1.41678,-0.1907 -1.47332,-0.22008 -1.47332,-0.76565 0,-0.64439 0.35267,-0.7727 1.51096,-0.54972 3.78587,0.72881 6.39395,3.32724 6.97902,6.9532 0.11987,0.74285 0.10917,1.10128 -0.0382,1.27882 -0.22292,0.2686 -0.9676,0.33576 -1.11307,0.10039 z M 62.926732,191.45601 c -0.281335,-0.16386 -0.308681,-0.58216 -0.308681,-4.72186 0,-3.29753 0.058,-4.60006 0.211667,-4.75373 0.153676,-0.15368 1.456769,-0.21167 4.756294,-0.21167 4.312614,0 4.55395,0.0174 4.727223,0.34118 0.111611,0.20855 0.182595,2.02078 0.182595,4.66171 0,3.69256 -0.04029,4.36081 -0.277183,4.5977 -0.237316,0.23732 -0.903262,0.27642 -4.630208,0.27182 -2.627199,-0.003 -4.475408,-0.0766 -4.661707,-0.18515 z m 8.470107,-4.79247 0.04754,-3.83646 H 67.56038 63.676385 v 3.76297 c 0,2.06963 0.05445,3.81741 0.121005,3.88396 0.06655,0.0666 1.792959,0.0996 3.836458,0.0735 L 71.349302,190.5 Z m 4.520046,3.67539 c -0.05279,-0.13756 -0.07021,-0.47509 -0.03872,-0.75007 l 0.05725,-0.49997 30.779865,-0.12937 c 16.92892,-0.0711 33.31986,-0.11083 36.4243,-0.0882 l 5.64445,0.0412 v 0.79375 0.79375 l -36.38559,0.0445 c -31.272793,0.0383 -36.399066,0.009 -36.481553,-0.20559 z m -1.62e-4,-3.17542 c -0.0527,-0.13732 -0.07005,-0.47467 -0.03856,-0.74965 l 0.05725,-0.49997 4.938889,-0.12982 c 2.716389,-0.0714 19.107328,-0.11109 36.424308,-0.0882 l 31.48542,0.0416 0.0528,0.72053 0.0528,0.72053 -14.85455,0.11732 c -8.17,0.0645 -24.56735,0.11731 -36.438561,0.11731 -18.450609,0 -21.597923,-0.0362 -21.679826,-0.24968 z m -0.0083,-3.19653 c -0.04735,-0.1234 -0.06066,-0.48989 -0.02957,-0.81442 l 0.05652,-0.59006 h 36.424307 36.42431 l 0.0548,0.66288 c 0.0357,0.43141 -0.0259,0.68864 -0.17639,0.73666 -0.12717,0.0406 -16.52947,0.10878 -36.44956,0.15155 -29.202795,0.0627 -36.235027,0.0343 -36.304449,-0.14661 z m -13.210812,-5.94939 c -0.04715,-0.12286 -0.0645,-2.28583 -0.03856,-4.8066 l 0.04716,-4.58321 4.750272,-0.047 c 3.682754,-0.0365 4.782144,0.003 4.892091,0.17639 0.163736,0.25796 0.200937,8.78584 0.04015,9.20483 -0.09396,0.24486 -0.688331,0.27901 -4.856231,0.27901 -3.669455,0 -4.768653,-0.0508 -4.834884,-0.22338 z m 8.739847,-4.62731 v -3.79236 h -3.880555 -3.880556 v 3.79236 3.79236 h 3.880556 3.880555 z m 4.633791,3.87277 c -0.157654,-0.1153 -0.230152,-0.41215 -0.193855,-0.79375 l 0.05798,-0.60958 36.468406,-0.0445 36.4684,-0.0445 v 0.71151 c 0,0.41155 -0.093,0.74318 -0.22048,0.78663 -0.52363,0.17839 -72.336441,0.17267 -72.580452,-0.006 z m -0.154402,-3.32829 c -0.05279,-0.13755 -0.07021,-0.47508 -0.03872,-0.75007 l 0.05725,-0.49997 36.247913,-0.12776 c 19.93636,-0.0703 36.35174,-0.0908 36.47863,-0.0457 0.15352,0.0546 0.21253,0.33338 0.17639,0.83332 l -0.0543,0.75126 -36.38559,0.0445 c -31.272791,0.0383 -36.399064,0.009 -36.481551,-0.20559 z m -1.62e-4,-3.17542 c -0.0527,-0.13732 -0.07005,-0.47466 -0.03856,-0.74965 l 0.05725,-0.49997 10.847917,-0.1288 c 5.966355,-0.0708 22.357288,-0.11053 36.424308,-0.0882 l 25.57639,0.0406 0.0528,0.72074 0.0528,0.72074 -8.50438,0.11711 c -4.67741,0.0644 -21.07477,0.11711 -36.43857,0.11711 -23.92679,0 -27.947937,-0.0358 -28.030005,-0.24969 z m -13.087005,-5.9592 c -0.153676,-0.15368 -0.211667,-1.45677 -0.211667,-4.75629 0,-4.31262 0.01742,-4.55395 0.341182,-4.72723 0.208548,-0.11161 2.020776,-0.18259 4.661707,-0.18259 3.692564,0 4.360811,0.0403 4.597707,0.27718 0.236896,0.2369 0.277183,0.90514 0.277183,4.59771 0,2.64093 -0.07098,4.45316 -0.182595,4.6617 -0.173273,0.32377 -0.414609,0.34119 -4.727223,0.34119 -3.299525,0 -4.602618,-0.058 -4.756294,-0.21167 z m 8.567121,-4.68313 -0.04754,-3.83645 H 67.5569 63.764538 l -0.04754,3.83645 -0.04754,3.83646 h 3.887436 3.887435 z m 4.519884,3.41039 c -0.0527,-0.13732 -0.07005,-0.47467 -0.03856,-0.74965 l 0.05725,-0.49997 20.637501,-0.12876 c 11.350624,-0.0708 27.741564,-0.11051 36.424304,-0.0882 l 15.78681,0.0406 0.0563,0.6876 c 0.0353,0.43085 -0.0306,0.7427 -0.17639,0.83515 -0.12798,0.0811 -16.5269,0.14876 -36.44205,0.15024 -31.064773,0.002 -36.222965,-0.0328 -36.305165,-0.24698 z m 0.04809,-3.04291 c -0.210584,-0.21058 -0.123836,-1.24514 0.121477,-1.44873 0.175743,-0.14585 9.835682,-0.18662 36.468398,-0.15389 l 36.22934,0.0445 v 0.70556 0.70555 l -19.31459,0.10669 c -28.26386,0.15613 -53.369887,0.17504 -53.504625,0.0403 z m 0.106487,-3.32977 c -0.157667,-0.11531 -0.230165,-0.41214 -0.193866,-0.79375 l 0.05798,-0.60958 36.468404,-0.0445 36.4684,-0.0445 v 0.71151 c 0,0.40788 -0.0941,0.74651 -0.22048,0.79352 -0.49151,0.18281 -72.330272,0.17027 -72.580438,-0.0127 z m -13.335654,-5.66606 c -0.146949,-0.14695 -0.156878,-8.9234 -0.01053,-9.30479 0.09388,-0.24465 0.679524,-0.27901 4.756295,-0.27901 4.416029,0 4.658387,0.0171 4.831823,0.34118 0.195673,0.36562 0.264075,8.58986 0.07553,9.0812 -0.09394,0.24479 -0.685252,0.27901 -4.821297,0.27901 -2.592827,0 -4.767147,-0.0529 -4.831823,-0.11759 z m 8.661195,-4.68901 0.04754,-3.83645 H 67.56038 63.676385 v 3.76296 c 0,2.06963 0.05445,3.81741 0.121005,3.88397 0.06655,0.0666 1.792959,0.0996 3.836458,0.0735 l 3.715454,-0.0475 z m 4.599733,3.80389 c -0.09538,-0.11493 -0.148164,-0.47212 -0.117291,-0.79375 l 0.05613,-0.58479 36.468405,-0.0445 36.4684,-0.0445 v 0.71151 c 0,0.41255 -0.0926,0.74229 -0.22048,0.78476 -0.12127,0.0403 -16.47927,0.0973 -36.35112,0.12676 -27.682061,0.041 -36.171176,0.005 -36.304046,-0.15546 z m -0.07969,-3.3035 c -0.05279,-0.13755 -0.07021,-0.47509 -0.03872,-0.75007 l 0.05725,-0.49997 36.247914,-0.12444 c 19.93636,-0.0684 36.35174,-0.089 36.47863,-0.0457 0.15387,0.0525 0.21262,0.32892 0.17639,0.83 l -0.0543,0.75126 -36.38559,0.0445 c -31.272792,0.0383 -36.399065,0.009 -36.481552,-0.20559 z m -1.62e-4,-3.17542 c -0.0527,-0.13732 -0.07005,-0.47467 -0.03856,-0.74965 l 0.05725,-0.49997 12.259029,-0.12904 c 6.742465,-0.071 23.133407,-0.11067 36.424307,-0.0882 l 24.16528,0.0409 0.0528,0.72087 0.0528,0.72087 -6.65218,0.11698 c -3.65871,0.0643 -20.05607,0.11698 -36.43858,0.11698 -25.524065,0 -29.800104,-0.0357 -29.882206,-0.24969 z m -13.225092,-6.51577 c -0.05046,-0.13148 -0.06781,-0.74664 -0.03856,-1.36701 l 0.05318,-1.12795 15.081251,-0.1288 c 8.294688,-0.0708 25.638127,-0.11052 38.540977,-0.0882 l 23.45972,0.0406 0.051,1.33779 0.051,1.33779 -25.01002,0.11735 c -40.233284,0.18878 -52.080029,0.16118 -52.188533,-0.12158 z m 0,-6.35 c -0.05046,-0.13148 -0.06781,-0.74664 -0.03856,-1.36701 l 0.05318,-1.12795 42.774308,-0.10851 c 31.37433,-0.0796 42.80885,-0.0561 42.9039,0.0882 0.0713,0.10819 0.13081,0.69001 0.13229,1.29293 0.002,0.90495 -0.0568,1.12809 -0.33848,1.27882 -0.23248,0.12442 -13.89051,0.1826 -42.86803,0.1826 -35.621395,0 -42.541762,-0.0388 -42.618603,-0.23907 z m 0.138603,-6.069 c -0.161159,-0.11355 -0.2133,-0.54767 -0.176389,-1.46858 l 0.0524,-1.30738 42.818404,-0.0444 42.81841,-0.0445 v 1.41147 1.41147 h -36.57188 c -20.114531,0 -39.303439,0.0457 -42.642016,0.10157 -3.563047,0.0596 -6.164635,0.035 -6.29893,-0.0596 z m 12.429022,-5.2748 c -0.223748,-0.22375 -0.131795,-2.71133 0.102893,-2.78356 0.121268,-0.0373 13.68903,-0.1139 30.15058,-0.17017 27.03024,-0.0924 29.95689,-0.0755 30.2066,0.17419 0.32116,0.32116 0.3834,2.01503 0.0939,2.55595 -0.17943,0.33527 -0.70444,0.34118 -30.30949,0.34118 -16.569797,0 -30.179817,-0.0529 -30.244493,-0.11759 z m 35.139423,-9.12176 c -2.19731,-0.78521 -3.36226,-2.45879 -3.61663,-5.19571 -0.38473,-4.13953 1.784,-7.086829 5.21222,-7.083398 1.32647,0.0013 2.15134,0.255291 3.05093,0.939338 2.8539,2.1701 3.04848,7.9816 0.34687,10.35965 -1.26611,1.11447 -3.42926,1.53906 -4.99339,0.98012 z m 3.14355,-2.86474 c 0.22511,-0.27924 0.49612,-0.82521 0.60224,-1.21327 0.27876,-1.01936 0.11933,-3.9213 -0.25423,-4.62722 -0.56526,-1.06821 -1.98282,-1.41985 -3.06464,-0.76022 -0.71179,0.43401 -1.11212,1.67208 -1.11073,3.43508 10e-4,1.65854 0.26362,2.51682 0.99172,3.24492 0.56568,0.56568 0.66077,0.59807 1.51495,0.51599 0.73416,-0.0705 0.99098,-0.1863 1.32069,-0.59528 z m -37.08565,2.71004 c -0.04682,-0.122 -0.06417,-2.8406 -0.03856,-6.04132 l 0.04656,-5.819488 h 3.27764 3.277639 l 0.865388,0.535407 c 1.171518,0.724811 1.656692,1.608681 1.66046,3.024981 0.0037,1.39204 -0.196472,1.90515 -1.109776,2.84475 l -0.739406,0.76068 1.178895,2.2465 c 0.709932,1.35283 1.124843,2.33394 1.043018,2.46634 -0.09459,0.15305 -0.557394,0.20404 -1.523101,0.16782 l -1.387223,-0.052 -1.066906,-2.06928 -1.066906,-2.06927 -0.749652,-0.003 -0.749653,-0.003 v 1.83765 c 0,1.01071 -0.04818,1.96321 -0.107066,2.11667 -0.138338,0.3605 -2.675157,0.4121 -2.811352,0.0572 z m 5.724234,-6.90707 c 0.199256,-0.18033 0.412424,-0.59513 0.473705,-0.92179 0.215367,-1.148 -0.720776,-1.82373 -2.529868,-1.8261 l -0.749653,-9.9e-4 v 1.60741 1.6074 l 1.221766,-0.069 c 0.87121,-0.0492 1.325714,-0.16311 1.58405,-0.3969 z m 4.887201,6.85309 c -0.162203,-0.42269 -0.125288,-11.418766 0.0392,-11.677929 0.109544,-0.172591 1.068631,-0.212999 4.186535,-0.176389 l 4.044438,0.04749 v 1.058333 1.058335 l -2.645833,0.0882 -2.645834,0.0882 v 1.14652 1.14653 l 2.204861,0.0882 2.204862,0.0882 v 1.05833 1.05834 l -2.248959,0.0494 -2.248958,0.0494 v 1.31765 1.31765 h 2.435731 c 2.964446,0 3.076051,0.0527 2.998789,1.41646 l -0.05466,0.96479 -4.080942,0.0473 c -3.605951,0.0418 -4.093546,0.0145 -4.189236,-0.23491 z m 9.350081,0.004 c -0.141605,-0.36902 -0.144132,-11.251272 -0.0027,-11.619843 0.09191,-0.239503 0.535236,-0.278766 3.130903,-0.277287 2.810661,0.0016 3.086011,0.03112 3.905781,0.418663 1.57381,0.744021 2.38125,1.977107 2.38125,3.636557 0,1.61379 -0.68051,2.70652 -2.15202,3.45559 -0.63523,0.32336 -1.24231,0.44913 -2.5962,0.53786 l -1.767104,0.1158 -0.04963,1.95822 -0.04963,1.95823 -1.345444,0.0511 c -1.109097,0.0421 -1.364726,8.9e-4 -1.455209,-0.23491 z m 6.088424,-6.71763 c 0.27032,-0.24463 0.33305,-0.49911 0.29212,-1.18511 -0.0731,-1.22561 -0.60961,-1.61486 -2.2257,-1.61486 h -1.177802 l -0.05203,1.39552 c -0.02862,0.76753 -0.0069,1.51307 0.04821,1.65674 0.146783,0.38251 2.636572,0.18087 3.115202,-0.25229 z m 16.13658,6.71763 c -0.16746,-0.43639 -0.12547,-11.424592 0.0447,-11.693009 0.1175,-0.185346 0.81716,-0.222527 3.3046,-0.175608 2.82454,0.05328 3.22954,0.09927 3.86109,0.438449 1.36992,0.735732 1.88085,1.614798 1.88492,3.243028 0.003,1.2339 -0.33571,2.04856 -1.20234,2.89115 l -0.68258,0.66363 1.16735,2.23169 c 0.64204,1.22742 1.13152,2.3309 1.08773,2.45216 -0.0546,0.1511 -0.51868,0.22049 -1.47467,0.22049 h -1.39505 l -1.06105,-2.11667 -1.06106,-2.11666 h -0.78679 -0.78679 l -0.0497,2.07257 -0.0497,2.07257 -1.34544,0.0511 c -1.1091,0.0421 -1.36473,8.9e-4 -1.45521,-0.23491 z m 5.30765,-6.61597 c 0.94391,-0.32904 1.22292,-1.57429 0.53256,-2.37687 -0.35499,-0.4127 -0.53865,-0.46841 -1.63159,-0.49491 l -1.23158,-0.0298 -0.051,1.5434 -0.051,1.5434 h 0.95068 c 0.52288,0 1.18972,-0.0833 1.48186,-0.18517 z m 7.74513,6.61597 c -0.0604,-0.15732 -0.10977,-2.38011 -0.10977,-4.93953 v -4.65349 l -1.71979,-0.0505 -1.71979,-0.0505 v -1.058335 -1.058333 h 4.93889 4.93889 v 1.058333 1.058335 l -1.6757,0.0882 -1.67569,0.0882 -0.0882,4.85069 -0.0882,4.8507 -1.34545,0.0511 c -1.10909,0.0421 -1.36472,8.9e-4 -1.4552,-0.23491 z M 56.91481,98.395606 c -0.160885,-0.160885 -0.14443,-6.980138 0.0174,-7.211134 0.07127,-0.101737 0.473832,-0.285583 0.894571,-0.408547 1.032318,-0.301703 1.91101,-1.15659 2.290758,-2.228698 l 0.31239,-0.881945 h 3.857487 c 2.9292,0 3.875174,0.05306 3.930983,0.220486 0.0572,0.1716 -0.726715,0.220486 -3.535578,0.220486 -3.866237,0 -3.86547,-1.74e-4 -4.099363,0.931729 -0.185737,0.740036 -1.463012,1.951044 -2.331032,2.210095 l -0.749653,0.223726 v 3.241688 c 0,3.585009 -0.09433,4.175747 -0.587963,3.682114 z m 96.84045,0.0029 c -0.0663,-0.06629 -0.12054,-1.61643 -0.12054,-3.444748 v -3.324215 l -0.93465,-0.413347 c -1.00967,-0.446524 -2.1302,-1.588794 -2.32675,-2.371876 -0.0649,-0.258494 -0.21088,-0.529099 -0.32446,-0.601346 -0.11357,-0.07225 -1.77415,-0.132573 -3.69018,-0.134059 -2.97781,-0.0023 -3.48368,-0.04112 -3.48368,-0.267284 0,-0.226934 0.53657,-0.264583 3.77076,-0.264583 2.80963,0 3.81349,0.0562 3.93838,0.220486 0.0922,0.121267 0.30743,0.598883 0.47832,1.061368 0.35265,0.954399 1.03177,1.549696 2.21949,1.945526 l 0.79375,0.264534 0.0478,3.577234 c 0.0438,3.274683 -0.0357,4.084881 -0.36829,3.75231 z m -23.20983,-6.41371 c 1.19405,-0.331682 1.2969,-0.597717 1.33535,-3.453849 l 0.0342,-2.541399 H 105.28784 78.660688 l 0.06611,2.431597 c 0.06752,2.483639 0.206221,3.058296 0.817034,3.385193 0.218807,0.117102 3.969616,0.180432 10.686365,0.180432 h 10.349223 l 1.10002,-0.52499 c 2.3048,-1.099981 4.85408,-1.118154 7.09812,-0.0506 0.92179,0.438523 1.27214,0.496981 3.49397,0.582989 4.63921,0.179588 17.61762,0.172931 18.2739,-0.0094 z"
         id="path7" /><path
         style="fill:#b5cacb"
         d="m 51.597908,223.73817 c -0.949796,-0.47376 -1.771207,-1.30171 -2.203219,-2.22078 l -0.358583,-0.76285 V 152.3949 c 0,-67.319952 0.0052,-68.369851 0.342386,-69.030776 0.425621,-0.834285 1.282899,-1.599105 2.409475,-2.149611 1.183354,-0.578251 3.32639,-0.659706 17.841543,-0.67814 l 11.685765,-0.01484 v -0.421431 c 0,-0.231787 0.145792,-0.601477 0.323984,-0.821534 l 0.323984,-0.400103 7.39303,0.03739 c 21.170977,0.107074 39.264747,0.355579 39.489807,0.542365 0.12979,0.107712 0.28496,0.391021 0.34484,0.629576 l 0.10886,0.433737 h 13.92474 c 13.61434,0 13.94633,0.0081 14.89297,0.36226 1.22182,0.457141 2.68859,1.760206 3.12356,2.774935 0.32207,0.751373 0.33117,2.647758 0.33117,68.998942 0,59.52343 -0.033,68.30522 -0.25842,68.84482 -0.36666,0.87755 -1.73552,2.02031 -2.79796,2.33583 -0.77986,0.23159 -7.31195,0.2629 -53.55237,0.25673 -52.156921,-0.007 -52.670925,-0.0104 -53.365562,-0.35688 z M 156.0641,152.4882 c 0.0265,-36.23469 0.005,-66.060436 -0.0478,-66.27944 l -0.0959,-0.398189 -11.14988,0.04541 -11.14989,0.04541 -0.032,2.39483 c -0.0433,3.240916 -0.46687,4.229213 -2.07319,4.837444 -0.63028,0.238653 -2.10399,0.267412 -11.4828,0.224088 l -10.75972,-0.0497 -1.14653,-0.526636 c -1.01708,-0.467173 -1.33573,-0.526636 -2.82223,-0.526636 -1.46854,0 -1.81743,0.0633 -2.82222,0.512049 l -1.14653,0.512049 -9.524996,0.15442 C 79.403701,93.634437 79.046127,93.609925 78.030025,92.488639 77.263143,91.642371 77.17256,91.265797 77.081941,88.547227 l -0.08819,-2.645834 H 65.881246 54.768745 l -0.04433,66.278427 -0.04433,66.27842 50.667945,-0.0444 50.66794,-0.0444 z m -22.64323,59.00832 c -3.31421,-0.73252 -5.80324,-3.43348 -6.29228,-6.82806 -0.23324,-1.61906 -0.1005,-2.26221 0.46693,-2.26221 0.38962,0 0.41771,0.0774 0.50846,1.40148 0.15928,2.32381 1.34045,4.37272 3.21039,5.56891 0.9939,0.63579 2.4897,1.1435 3.36896,1.1435 0.68961,0 1.11074,0.42568 0.84351,0.85263 -0.23987,0.38324 -0.78658,0.41536 -2.10597,0.12375 z m -18.32712,-0.36884 c -0.44989,-0.16561 -1.60038,-0.28491 -3.175,-0.32923 -1.3582,-0.0382 -2.9457,-0.11955 -3.52778,-0.18071 -0.58208,-0.0612 -5.82083,-0.34394 -11.641667,-0.6284 -12.867106,-0.62881 -13.532745,-0.6754 -13.443826,-0.94101 0.04624,-0.13813 0.708182,-0.20389 2.052357,-0.20389 h 1.984098 l 0.216785,-0.62569 c 0.304138,-0.87781 1.193833,-2.12181 2.532077,-3.54042 1.624424,-1.72197 0.838203,-1.51731 -1.242038,0.32332 -0.91682,0.81122 -1.216589,0.54443 -0.366481,-0.32616 0.876852,-0.89797 3.240601,-2.44563 3.735238,-2.44563 0.787494,0 0.409054,0.69929 -1.421335,2.62637 -1.701592,1.79148 -2.820344,3.38743 -2.558278,3.6495 0.216913,0.21691 0.953143,-0.0915 2.26904,-0.95053 1.840025,-1.20119 3.194456,-2.52315 4.371612,-4.26683 0.556633,-0.82452 1.142986,-1.52434 1.303005,-1.55516 0.217041,-0.0418 0.558309,0.50049 1.343517,2.13492 1.185533,2.46771 1.773493,3.12423 2.797966,3.12423 0.53218,0 0.77467,-0.14361 1.48246,-0.87792 0.66643,-0.69141 1.23388,-1.67508 2.67106,-4.63021 1.00367,-2.06376 2.12946,-4.44793 2.50176,-5.29816 0.72582,-1.65758 1.04148,-2.07085 1.34778,-1.76455 0.12875,0.12875 -0.0338,0.9086 -0.53638,2.57265 -1.04159,3.449 -1.28196,4.73053 -1.27978,6.82319 0.004,3.70881 1.48183,6.23241 3.65009,6.23241 0.91194,0 1.49795,-0.35279 2.20319,-1.32635 0.42424,-0.58563 0.52567,-0.90416 0.52567,-1.65075 0,-1.36588 0.592,-3.065 1.48171,-4.2527 1.63745,-2.18588 2.92801,-3.26078 2.92801,-2.43871 0,0.14744 -0.79375,1.80111 -1.76389,3.67483 -0.97014,1.87372 -1.76389,3.62157 -1.76389,3.8841 0,0.56245 0.53088,1.66691 0.99547,2.07102 0.1801,0.15664 0.64156,0.33292 1.02548,0.39172 0.65736,0.10067 0.74228,0.0594 1.45757,-0.70873 0.83326,-0.89477 1.11338,-0.89298 0.78865,0.005 -0.29563,0.81753 -0.29361,0.82062 0.53943,0.8233 0.95344,0.003 1.57472,0.16821 1.49805,0.39822 -0.0346,0.10387 -0.83544,0.19066 -1.90339,0.20628 -1.01399,0.0148 -1.96268,0.0795 -2.1082,0.14365 -0.14552,0.0642 -0.58209,-1.8e-4 -0.97014,-0.14302 z m -1.38478,-1.04851 c 0.0294,-0.097 -0.10003,-0.37483 -0.28768,-0.61737 l -0.3412,-0.44097 -0.49247,0.49051 c -0.41646,0.41479 -0.45164,0.51719 -0.2279,0.66332 0.32583,0.2128 1.27614,0.14554 1.34925,-0.0955 z m -6.11175,-0.23032 c 0,-0.0782 -0.19857,-0.41127 -0.44127,-0.74023 -1.21204,-1.64282 -1.66303,-5.02181 -1.08141,-8.10228 0.15453,-0.81846 0.24488,-1.52419 0.20078,-1.56829 -0.0441,-0.0441 -0.59691,1.00988 -1.22846,2.34217 -2.06471,4.35563 -3.3853,5.9177 -5.00287,5.9177 -0.708373,0 -0.877936,-0.084 -1.516937,-0.75141 -0.431111,-0.45029 -1.037511,-1.43878 -1.513166,-2.46663 -0.436563,-0.94337 -0.873125,-1.71267 -0.970139,-1.70956 -0.09701,0.003 -0.454202,0.44586 -0.79375,0.98388 -0.780149,1.23617 -2.908425,3.28175 -4.455137,4.28203 -0.65412,0.42303 -1.189308,0.83746 -1.189308,0.92097 0,0.0835 0.218281,0.15776 0.485069,0.165 0.266789,0.007 3.858508,0.19514 7.981598,0.41753 8.78086,0.47363 9.525,0.49778 9.525,0.30912 z m 7.60332,-6.60527 0.55232,-1.10191 -0.46099,0.42681 c -0.53716,0.49734 -1.34495,2.03739 -1.34399,2.56233 5.4e-4,0.29463 0.066,0.25515 0.3505,-0.21154 0.19241,-0.31558 0.59839,-1.06964 0.90216,-1.67569 z m 18.5011,5.70064 c -2.37798,-0.72335 -4.26677,-3.17024 -4.28532,-5.55156 -0.0254,-3.26206 2.2949,-5.97549 5.67914,-6.6413 2.11738,-0.41657 4.47254,0.35172 5.83982,1.90502 0.86643,0.98432 1.22023,1.7513 1.4514,3.14636 0.47922,2.89196 -1.56888,5.96443 -4.67996,7.02067 -0.87683,0.29769 -3.19384,0.36758 -4.00508,0.12081 z m 3.44223,-3.33916 c 0.88904,-0.40388 1.77238,-1.39757 2.04183,-2.29693 0.75099,-2.50657 -2.04087,-4.7123 -4.51278,-3.56538 -0.90881,0.42167 -1.75236,1.33568 -2.0272,2.19652 -0.81791,2.56179 1.95463,4.82129 4.49815,3.66579 z m 6.68301,-2.87557 c -0.0768,-0.12436 -0.1981,-0.65619 -0.26944,-1.18186 -0.28169,-2.07583 -1.73396,-4.06032 -3.70353,-5.0608 -0.73457,-0.37313 -1.24617,-0.52859 -2.85529,-0.86761 -0.3884,-0.0818 -0.48443,-0.18967 -0.44097,-0.49525 0.0492,-0.34588 0.14649,-0.38507 0.84929,-0.34205 3.70698,0.22693 7.07624,3.53101 7.26979,7.12915 0.0453,0.84301 0.0125,0.94154 -0.32988,0.99034 -0.20912,0.0298 -0.44311,-0.0476 -0.51997,-0.17192 z M 63.011884,191.32286 c -0.17308,-0.10986 -0.212889,-1.17416 -0.176389,-4.71571 l 0.04714,-4.57382 4.573821,-0.0471 c 3.541551,-0.0365 4.605842,0.003 4.715702,0.17639 0.24065,0.37914 0.180684,8.85082 -0.06438,9.09589 -0.245068,0.24507 -8.716754,0.30504 -9.09589,0.0644 z m 8.513807,-4.61522 v -3.96875 h -3.96875 -3.968751 l -0.04772,3.788 c -0.02625,2.0834 -0.0083,3.8907 0.03986,4.01623 0.06879,0.17927 0.9305,0.21805 4.016471,0.18075 l 3.92889,-0.0475 z m -8.650636,-8.86379 c -0.04783,-0.12463 -0.06569,-2.20954 -0.03969,-4.63314 l 0.04727,-4.40654 h 4.674306 4.674305 v 4.58611 4.58611 l -4.634617,0.047 c -3.645994,0.037 -4.653166,-0.001 -4.721574,-0.17957 z m 8.650636,-4.45357 v -3.88056 h -3.96875 -3.968751 l -0.0478,3.69961 c -0.02629,2.03479 -0.0084,3.8024 0.03986,3.92804 0.06889,0.17952 0.928864,0.21826 4.016546,0.18095 l 3.92889,-0.0475 z m -8.613658,-8.67246 c -0.06468,-0.0647 -0.117593,-2.15962 -0.117593,-4.65543 0,-3.9752 0.03459,-4.55111 0.27901,-4.64491 0.153455,-0.0589 2.20133,-0.10706 4.550834,-0.10706 3.087344,0 4.330514,0.0587 4.48349,0.21166 0.152976,0.15298 0.211667,1.39615 0.211667,4.48349 0,2.34951 -0.04818,4.39738 -0.107066,4.55084 -0.09379,0.24441 -0.669707,0.27901 -4.644908,0.27901 -2.495813,0 -4.590758,-0.0529 -4.655434,-0.1176 z m 8.613658,-4.6449 v -3.96875 h -3.96875 -3.968751 l -0.04772,3.788 c -0.02625,2.0834 -0.0083,3.8907 0.03986,4.01623 0.06879,0.17927 0.9305,0.21805 4.016471,0.18075 l 3.92889,-0.0475 z m -8.650636,-8.86379 c -0.04783,-0.12463 -0.06569,-2.20955 -0.03969,-4.63314 l 0.04727,-4.40654 h 4.674306 4.674305 v 4.58611 4.58611 l -4.634617,0.047 c -3.645994,0.037 -4.653166,-10e-4 -4.721574,-0.17957 z m 8.544415,-0.5513 c 0.140726,-0.16956 0.187171,-1.38067 0.153889,-4.01284 l -0.04767,-3.76999 h -3.96875 -3.968751 l -0.04767,3.76999 c -0.03328,2.63217 0.01316,3.84328 0.153889,4.01284 0.159304,0.19195 0.969041,0.24287 3.86253,0.24287 2.893488,0 3.703225,-0.0509 3.862529,-0.24287 z m 4.016175,-31.09556 c -0.06468,-0.0647 -0.117593,-0.57212 -0.117593,-1.12765 0,-0.75833 0.06954,-1.03675 0.27901,-1.11713 0.153455,-0.0589 13.726581,-0.10707 30.162498,-0.10707 h 29.8835 v 1.23472 1.23472 h -30.04491 c -16.524704,0 -30.097829,-0.0529 -30.162505,-0.11759 z m 34.963035,-8.94537 c -1.57841,-0.56404 -2.71939,-1.76432 -3.19594,-3.36202 -0.27792,-0.93177 -0.27486,-4.03776 0.005,-4.978 0.32916,-1.10622 1.28931,-2.377294 2.24344,-2.969932 0.73383,-0.4558 1.05634,-0.537818 2.32616,-0.591565 1.30988,-0.05544 1.58091,-0.0102 2.43136,0.405886 1.11303,0.544557 1.73208,1.215451 2.36854,2.566931 0.41244,0.87577 0.45688,1.17639 0.45688,3.09051 0,2.04172 -0.0216,2.16417 -0.58123,3.30102 -0.65457,1.32961 -1.48046,2.10948 -2.65941,2.51119 -0.95505,0.32541 -2.5232,0.33742 -3.39471,0.026 z m 2.76891,-2.20576 c 0.94736,-0.5777 1.22095,-1.41416 1.21813,-3.72433 -0.003,-2.29486 -0.22125,-2.94014 -1.19672,-3.53492 -1.29403,-0.78902 -2.80672,-0.18571 -3.34512,1.33414 -0.3984,1.12464 -0.33227,3.70025 0.12312,4.79556 0.55217,1.32805 2.02352,1.84733 3.20059,1.12955 z m -36.531579,2.05899 c -0.04857,-0.12657 -0.06732,-2.76944 -0.04167,-5.87304 l 0.04663,-5.642919 3.014822,-0.04814 c 3.006763,-0.04801 3.017372,-0.04681 3.96875,0.449511 1.274618,0.664948 1.817002,1.605748 1.802692,3.126858 -0.01178,1.25165 -0.309832,1.92698 -1.192531,2.702 -0.344504,0.30248 -0.626372,0.64011 -0.626372,0.75029 0,0.11019 0.515264,1.17162 1.14503,2.35874 0.629766,1.18713 1.092787,2.21065 1.028935,2.27451 -0.06385,0.0639 -0.691876,0.11609 -1.39561,0.11609 h -1.279516 l -1.079141,-2.11667 -1.079141,-2.11666 h -0.869542 -0.869542 l -0.04969,2.07257 -0.04969,2.07257 -1.193047,0.0522 c -0.857372,0.0375 -1.217893,-0.0125 -1.281355,-0.17792 z m 5.521727,-6.50516 c 0.482344,-0.30122 0.80065,-1.20003 0.644838,-1.82083 -0.169867,-0.6768 -0.850861,-1.12271 -1.918295,-1.25608 -1.613749,-0.20162 -1.685673,-0.1306 -1.685673,1.66457 0,0.85042 0.05953,1.6075 0.132292,1.6824 0.206291,0.21236 2.388131,0.004 2.826838,-0.27006 z m 5.059792,6.50043 c -0.04757,-0.12396 -0.06551,-2.76471 -0.03986,-5.86831 l 0.04663,-5.642919 h 3.96875 3.96875 v 0.881944 0.881945 l -2.293055,0.0431 c -3.253647,0.0611 -3.086806,-0.0168 -3.086806,1.44071 0,0.94292 0.06203,1.2363 0.27901,1.31956 0.153455,0.0589 1.18533,0.10707 2.293055,0.10707 h 2.014046 v 0.96486 0.96487 l -2.248958,0.0494 -2.248959,0.0494 -0.05123,1.45521 -0.05123,1.4552 2.520675,0.003 c 1.386371,10e-4 2.62474,0.0687 2.75193,0.14935 0.153071,0.0971 0.212705,0.43906 0.176389,1.01154 l -0.05487,0.86488 -3.928889,0.0475 c -3.060932,0.037 -3.947998,-0.002 -4.015384,-0.17792 z m 9.350427,0.005 c -0.04857,-0.12657 -0.06732,-2.76944 -0.04168,-5.87304 l 0.04663,-5.642919 2.822223,-0.05163 c 1.73724,-0.03178 3.10321,0.02587 3.55313,0.149967 0.96437,0.265985 1.97058,1.115872 2.3748,2.005852 0.58608,1.29038 0.34675,3.2653 -0.5107,4.21432 -0.71306,0.78921 -1.96688,1.21547 -3.85937,1.31206 l -1.811358,0.0924 -0.04964,1.95933 -0.04964,1.95933 -1.193047,0.0522 c -0.857372,0.0375 -1.217894,-0.0125 -1.281355,-0.17792 z m 5.913983,-6.46517 c 0.34168,-0.25088 0.45311,-0.50929 0.49489,-1.14764 0.0758,-1.15823 -0.55492,-1.79068 -1.96099,-1.96635 -0.54832,-0.0685 -1.196823,-0.0744 -1.441117,-0.0131 -0.435216,0.10924 -0.44417,0.1449 -0.44417,1.76912 0,1.15516 0.06683,1.68796 0.220487,1.75767 0.462728,0.20994 2.68743,-0.0741 3.1309,-0.39971 z m 16.31102,6.46517 c -0.0486,-0.12657 -0.0673,-2.76944 -0.0417,-5.87304 l 0.0466,-5.642919 2.82222,-0.05163 c 3.2903,-0.06019 4.07676,0.09722 5.03238,1.007206 0.79431,0.756383 1.12427,1.789523 0.95131,2.978643 -0.15662,1.07682 -0.44439,1.62188 -1.21218,2.29601 -0.34451,0.30248 -0.62637,0.64011 -0.62637,0.75029 0,0.11019 0.52201,1.18433 1.16002,2.387 0.89181,1.68109 1.10162,2.20908 0.90746,2.28358 -0.13891,0.0533 -0.76013,0.073 -1.38051,0.0437 l -1.12795,-0.0532 -1.05833,-2.02848 -1.05833,-2.02847 h -0.88195 -0.88194 l -0.0882,2.02847 -0.0882,2.02848 -1.19305,0.0522 c -0.85737,0.0375 -1.21789,-0.0125 -1.28135,-0.17792 z m 5.07585,-6.32168 c 1.16245,-0.32283 1.54613,-1.65825 0.74871,-2.60593 -0.36562,-0.43452 -0.62308,-0.54652 -1.48677,-0.64676 -1.72246,-0.19991 -1.7752,-0.15069 -1.7752,1.65687 0,0.85042 0.0529,1.59913 0.1176,1.66381 0.17988,0.17988 1.65375,0.13805 2.39566,-0.068 z m 8.01851,6.42521 c -0.0686,-0.0687 -0.12482,-2.2532 -0.12482,-4.85456 v -4.72974 l -0.39688,-0.091 c -0.21828,-0.0501 -0.99218,-0.1111 -1.71979,-0.13565 l -1.32291,-0.0446 v -0.881945 -0.881944 l 4.80659,-0.04693 4.8066,-0.04693 v 0.972974 0.972965 l -1.5434,0.003 c -0.84887,0.001 -1.6413,0.0649 -1.76094,0.14088 -0.16169,0.10271 -0.22962,1.35867 -0.26459,4.89209 l -0.047,4.75392 -1.154,0.0513 c -0.63471,0.0282 -1.21017,-0.005 -1.27882,-0.0735 z M 101.37127,91.792952 c 2.83556,-1.381387 5.03339,-1.37985 7.8771,0.0055 l 1.13338,0.552147 10.23793,-0.04961 10.23794,-0.04961 0.54063,-0.51807 0.54064,-0.51807 V 88.514212 85.813199 H 105.30416 78.669441 v 2.635997 c 0,2.531494 0.01686,2.655617 0.425348,3.130903 l 0.425348,0.494905 4.028472,0.09471 c 2.215659,0.05209 6.879699,0.111619 10.364533,0.132292 l 6.336058,0.03758 z m -0.94535,-13.837253 c -0.21107,-0.550024 0.0785,-1.859436 0.56722,-2.564598 0.27165,-0.391988 0.83426,-0.912169 1.25026,-1.155957 0.72591,-0.425412 0.85533,-0.440936 3.21574,-0.385723 2.449,0.05728 2.46227,0.05983 3.13659,0.603068 1.23576,0.995528 1.83998,2.278827 1.57327,3.341478 -0.10955,0.436477 -0.1504,0.448226 -1.38398,0.398034 l -1.27109,-0.05172 -0.10231,-0.617361 c -0.13958,-0.842151 -0.49966,-1.361283 -1.16234,-1.675746 -0.69327,-0.328977 -1.14441,-0.333394 -1.89787,-0.01858 -0.7226,0.301922 -1.13891,0.86779 -1.27898,1.738424 l -0.10641,0.661458 h -1.21771 c -0.93596,0 -1.24194,-0.06312 -1.32239,-0.272778 z"
         id="path6" /><path
         style="fill:#95aaa9"
         d="m 51.921007,223.84739 c -0.85407,-0.37234 -1.984622,-1.48474 -2.457631,-2.41818 l -0.42727,-0.84318 V 152.31417 84.0423 l 0.420978,-0.657953 c 0.622013,-0.972154 1.304971,-1.549147 2.489439,-2.103189 l 1.058333,-0.495042 14.15002,-0.05007 14.150019,-0.05007 0.188378,-0.69958 0.188377,-0.69958 6.651882,0.003 c 3.658535,0.0017 14.232198,0.08049 23.497018,0.175172 15.75649,0.161021 16.859,0.192174 17.05961,0.482044 0.58962,0.851967 -0.2395,0.810946 13.7956,0.682529 13.68147,-0.125181 14.55087,-0.09241 15.98651,0.602573 0.97351,0.471269 2.15496,1.6448 2.56979,2.552573 0.3105,0.679482 0.32256,3.223504 0.32629,68.842783 0.004,66.75478 -0.003,68.15051 -0.33345,68.79167 -0.43148,0.83711 -1.30099,1.65913 -2.30851,2.18244 l -0.79375,0.41227 -52.82848,0.0377 c -44.421819,0.0317 -52.916738,-8.2e-4 -53.383153,-0.20416 z M 156.10417,152.24248 c 0,-60.377682 -0.0253,-66.401236 -0.27901,-66.498604 -0.36453,-0.139882 -21.65523,-0.139882 -22.01976,0 -0.23288,0.08937 -0.27901,0.455552 -0.27901,2.214947 0,3.0159 -0.26941,3.855556 -1.49476,4.658697 -0.49259,0.322865 -1.0433,0.344011 -11.28551,0.433336 l -10.76765,0.09391 -1.4993,-0.519712 c -1.24106,-0.430192 -1.78794,-0.520857 -3.17501,-0.526367 -1.48293,-0.0059 -1.84044,0.05876 -3.10795,0.562066 l -1.43225,0.568722 -10.840615,-0.04807 -10.84061,-0.04807 -0.647805,-0.494187 c -1.114461,-0.850184 -1.255367,-1.30221 -1.283114,-4.116227 -0.01352,-1.371561 -0.07915,-2.58203 -0.145836,-2.68993 -0.180537,-0.292116 -21.997707,-0.27696 -22.290151,0.01548 -0.163876,0.163875 -0.211667,15.115279 -0.211667,66.219589 0,36.30437 0.04818,66.13349 0.107066,66.28695 0.09729,0.25352 4.737392,0.27901 50.800002,0.27901 h 50.69294 z m -22.04861,59.21421 c -2.59197,-0.43339 -4.85152,-2.03727 -5.97344,-4.24008 -0.85237,-1.67356 -1.16244,-4.47731 -0.50886,-4.60129 0.26423,-0.0501 0.30868,0.0838 0.30868,0.93009 0,1.79903 0.93287,3.85761 2.38895,5.27173 0.86933,0.84429 2.62945,1.67825 3.82716,1.81336 1.00469,0.11332 1.50388,0.41002 1.2852,0.76386 -0.11359,0.18378 -0.49445,0.20166 -1.32769,0.0623 z m -19.26959,-0.55335 c -0.5516,-0.19443 -0.83726,-0.39681 -0.83785,-0.59361 -0.001,-0.35326 -0.68043,-1.55348 -0.87933,-1.55348 -0.21146,0 -1.15341,1.29675 -1.10272,1.51807 0.0676,0.29497 -1.91074,0.44377 -2.99134,0.225 -0.75178,-0.15219 -0.98873,-0.28849 -1.20112,-0.69088 -0.14552,-0.2757 -0.47993,-0.84547 -0.74312,-1.26615 -0.81852,-1.3083 -1.08041,-2.73621 -0.96362,-5.2541 0.0631,-1.36008 0.23952,-2.71172 0.46051,-3.52777 0.46472,-1.71615 0.46626,-1.91086 0.0118,-1.49961 -0.27633,0.25009 -0.19629,-0.0583 0.37065,-1.42787 0.6977,-1.68548 1.10399,-2.35914 1.30287,-2.16026 0.0521,0.0521 -0.099,0.68238 -0.33583,1.40061 -1.19422,3.62195 -1.59957,5.64553 -1.575,7.86269 0.0405,3.65206 1.63662,6.26078 3.83066,6.26078 1.73963,0 2.76341,-1.17603 2.95395,-3.39322 0.0766,-0.89095 0.27625,-1.71968 0.56784,-2.35659 0.56083,-1.22501 0.76176,-1.29 0.2903,-0.0939 -0.37191,0.94354 -0.45797,1.75736 -0.18583,1.75736 0.0904,0 0.53099,-0.69454 0.97907,-1.54341 0.44809,-0.84887 0.97638,-1.74184 1.17399,-1.98437 0.1976,-0.24254 -0.24298,0.72124 -0.97908,2.14173 -1.46559,2.82825 -1.57285,3.32173 -0.9727,4.47546 0.55431,1.06561 0.9436,1.32031 2.01803,1.32031 0.86245,0 0.97571,-0.0503 1.48839,-0.66146 l 0.5549,-0.66146 -0.28429,0.58594 c -0.2059,0.42435 -0.23217,0.64873 -0.0953,0.81366 0.14775,0.17803 0.0251,0.25173 -0.56218,0.33772 -0.41315,0.0605 -0.90993,0.1446 -1.10396,0.1869 -0.19402,0.0423 -0.7294,-0.0558 -1.18972,-0.2181 z m -27.158916,-1.56199 c -0.214667,-0.0564 -0.261492,-0.16595 -0.160871,-0.37642 0.880908,-1.84256 1.159107,-2.34132 1.455606,-2.60965 0.212754,-0.19254 0.105125,0.0875 -0.278478,0.72451 -0.826612,1.37272 -0.828371,1.73877 -0.0079,1.64298 0.688441,-0.0804 0.68996,-0.079 0.434766,0.39785 -0.176966,0.33067 -0.71264,0.4126 -1.443126,0.22073 z m 45.602136,-0.76876 c -2.09651,-0.82891 -3.6402,-3.06969 -3.62967,-5.26871 0.0241,-5.03004 5.85766,-8.2155 10.0614,-5.49412 1.70983,1.10689 2.55231,2.66892 2.57782,4.77947 0.014,1.15696 -0.0569,1.47746 -0.54608,2.46945 -0.71681,1.45358 -1.62737,2.39454 -3.06011,3.16228 -1.03363,0.55388 -1.2903,0.61422 -2.81311,0.66136 -1.35965,0.0421 -1.84818,-0.0163 -2.59025,-0.30973 z m 4.16343,-2.92904 c 2.10381,-1.04838 2.7168,-3.5059 1.29574,-5.19473 -1.03564,-1.23079 -2.70468,-1.52859 -4.25033,-0.75836 -2.20212,1.09736 -2.79535,3.59213 -1.25224,5.26621 1.13737,1.2339 2.62249,1.47638 4.20683,0.68688 z m -38.698032,1.25386 c -0.346614,-0.34661 -1.018595,-1.44811 -1.511323,-2.47733 -0.487965,-1.01927 -0.998498,-1.89593 -1.134517,-1.94813 -0.287206,-0.11021 -0.15812,-0.59487 0.158441,-0.59487 0.11764,0 0.636479,0.91387 1.152975,2.03082 1.183961,2.56039 1.922904,3.32633 3.117426,3.23132 0.66279,-0.0527 0.73487,-0.0285 0.47692,0.16011 -0.16714,0.12221 -0.60357,0.2222 -0.969846,0.2222 -0.527287,0 -0.795923,-0.12996 -1.290076,-0.62412 z m 3.081802,-0.34602 c 0.22785,-0.24254 0.45396,-0.44097 0.50246,-0.44097 0.0485,0 -0.0982,0.19843 -0.32607,0.44097 -0.22785,0.24253 -0.45396,0.44097 -0.50247,0.44097 -0.0485,0 0.0982,-0.19844 0.32608,-0.44097 z m -11.200376,-1.99047 c 0.763746,-0.795 1.2344,-1.43266 1.2344,-1.67241 0,-0.22847 0.126678,-0.41225 0.308681,-0.44781 0.639457,-0.12495 0.261062,0.46046 -1.234401,1.90972 -1.368721,1.32644 -1.403601,1.35022 -0.30868,0.2105 z m 13.025336,-0.83175 c 0.61196,-1.16417 1.37672,-2.69315 1.69946,-3.39774 0.32275,-0.70459 0.62069,-1.2472 0.66209,-1.2058 0.11655,0.11655 -2.68218,5.78195 -3.10195,6.27923 -0.20473,0.24253 0.12845,-0.51153 0.7404,-1.67569 z m -8.351352,-0.61737 c 0.10384,-0.19402 0.228488,-0.35277 0.276995,-0.35277 0.04851,0 0.0032,0.15875 -0.100606,0.35277 -0.103841,0.19403 -0.228489,0.35278 -0.276996,0.35278 -0.04851,0 -0.0032,-0.15875 0.100607,-0.35278 z m 19.398982,-0.34744 c 0.20515,-0.28811 0.46308,-0.5795 0.57318,-0.64755 0.1101,-0.068 -0.0221,0.16768 -0.29373,0.52383 -0.58961,0.77302 -0.81186,0.87141 -0.27945,0.12372 z m 29.21063,-0.40221 c -0.0443,-0.21828 -0.12766,-0.75406 -0.18536,-1.19062 -0.33383,-2.52584 -3.31242,-5.29762 -6.02096,-5.60292 -0.81004,-0.0913 -1.1116,-0.30516 -0.82891,-0.58785 0.26415,-0.26415 1.96336,0.14275 3.36013,0.80462 1.58701,0.75203 2.79749,1.93148 3.54248,3.45165 0.56238,1.14757 1.02319,3.02283 0.82257,3.34744 -0.19497,0.31547 -0.60791,0.18241 -0.68995,-0.22232 z m -27.97211,-1.01071 c 0,-0.23041 1.05888,-1.1201 1.18409,-0.9949 0.22738,0.22738 -0.37221,1.05002 -0.78722,1.08007 -0.21828,0.0158 -0.39687,-0.0225 -0.39687,-0.0852 z M 63.051425,191.07297 c -0.04788,-0.12477 -0.06576,-2.17004 -0.03973,-4.54505 l 0.04733,-4.3182 h 4.497917 4.497916 v 4.49792 4.49792 l -4.458189,0.0471 c -3.504927,0.0371 -4.476804,-0.001 -4.545243,-0.17972 z m 8.527182,-0.34366 c 0.223652,-0.22366 0.318026,-7.41982 0.104601,-7.97599 -0.0933,-0.24313 -0.623999,-0.27901 -4.126267,-0.27901 -3.502269,0 -4.032972,0.0359 -4.126268,0.27901 -0.213425,0.55617 -0.119051,7.75233 0.104601,7.97599 0.151563,0.15156 1.293518,0.21166 4.021667,0.21166 2.728148,0 3.870103,-0.0601 4.021666,-0.21166 z m -8.387292,-12.78155 c -0.168238,-0.0679 -0.220486,-1.14687 -0.220486,-4.55331 0,-3.90818 0.03476,-4.47768 0.27901,-4.57141 0.55853,-0.21433 8.457793,-0.11915 8.681546,0.1046 0.300815,0.30081 0.300815,8.62446 0,8.92528 -0.153471,0.15347 -1.353747,0.20783 -4.365625,0.19774 -2.284677,-0.008 -4.253177,-0.054 -4.374445,-0.1029 z m 8.510765,-4.55748 v -4.05695 h -4.145139 -4.14514 l -0.04765,3.87639 c -0.02621,2.13201 -0.0083,3.97894 0.03981,4.1043 0.06876,0.17918 0.965448,0.21779 4.192787,0.18056 l 4.105327,-0.0474 z m -8.650655,-8.95203 c -0.04788,-0.12477 -0.06576,-2.17005 -0.03973,-4.54505 l 0.04733,-4.3182 h 4.497917 4.497916 v 4.49792 4.49791 l -4.458189,0.0471 c -3.504927,0.0371 -4.476804,-0.001 -4.545243,-0.17972 z m 8.631783,-0.41101 c 0.213425,-0.55617 0.119051,-7.75234 -0.104601,-7.97599 -0.299861,-0.29986 -7.743472,-0.29986 -8.043333,0 -0.223652,0.22365 -0.318026,7.41982 -0.104601,7.97599 0.0933,0.24313 0.623999,0.27901 4.126268,0.27901 3.502268,0 4.032971,-0.0359 4.126267,-0.27901 z m -8.495043,-12.74473 c -0.172932,-0.10976 -0.212925,-1.13897 -0.176389,-4.53931 l 0.04725,-4.39736 h 4.497917 4.497916 l 0.04728,4.29961 c 0.03325,3.0238 -0.01241,4.37154 -0.15389,4.54201 -0.160371,0.19324 -1.04644,0.24185 -4.368811,0.2397 -2.292201,-10e-4 -4.268275,-0.0666 -4.391275,-0.14465 z m 8.513915,-4.52695 v -4.05695 h -4.145139 -4.14514 l -0.04765,3.87639 c -0.02621,2.13201 -0.0083,3.97894 0.03981,4.1043 0.06876,0.17917 0.965448,0.21779 4.192787,0.18056 l 4.105327,-0.0474 z m 5.247569,-36.18835 c -0.170021,-0.0686 -0.220486,-1.39692 -0.220486,-5.80354 v -5.714584 l 0.469021,-0.117717 c 0.81719,-0.205101 5.283749,0.07782 6.008365,0.380586 1.648644,0.688845 2.359949,2.141435 1.965571,4.013985 -0.153937,0.73091 -0.352593,1.06922 -0.966959,1.64674 -0.425271,0.39977 -0.77322,0.82889 -0.77322,0.95359 0,0.12471 0.482535,1.13291 1.0723,2.24045 0.589765,1.10754 1.028819,2.12702 0.975675,2.26551 -0.122961,0.32043 -1.679218,0.34359 -2.104279,0.0313 -0.165065,-0.12126 -0.755705,-1.09361 -1.312532,-2.16076 l -1.012414,-1.94028 h -0.970139 -0.970139 l -0.0504,1.92981 c -0.02772,1.06139 -0.136661,2.03374 -0.242084,2.16076 -0.184635,0.22247 -1.41371,0.29756 -1.868275,0.11414 z m 4.894792,-6.28723 c 0.885434,-0.30195 1.36065,-1.29952 1.074319,-2.25521 -0.279946,-0.93437 -0.878038,-1.21852 -2.564865,-1.21852 h -1.331676 v 1.73449 c 0,0.95397 0.05292,1.78741 0.117593,1.85209 0.19169,0.19169 2.037428,0.11468 2.704629,-0.11285 z m 5.679723,6.19238 c -0.302667,-0.30266 -0.302667,-11.092051 0,-11.394717 0.223522,-0.223522 6.717073,-0.316946 7.270435,-0.104601 0.195576,0.07505 0.27901,0.337778 0.27901,0.878584 0,0.947744 0.01964,0.941384 -3.086806,0.999744 l -2.293056,0.0431 v 1.32291 1.32292 l 2.105684,0.05 c 1.182252,0.0281 2.207192,0.13423 2.337153,0.24209 0.244435,0.20286 0.30375,0.81363 0.124403,1.281 -0.08906,0.23209 -0.452435,0.27947 -2.160764,0.28172 -1.129534,10e-4 -2.156338,0.0678 -2.281786,0.1474 -0.164178,0.10415 -0.213602,0.56057 -0.176389,1.62889 l 0.0517,1.4842 2.645834,0.0882 2.645833,0.0882 0.05554,0.77627 c 0.03589,0.50163 -0.02651,0.8283 -0.176389,0.92334 -0.382594,0.24261 -7.092705,0.1885 -7.340401,-0.0592 z m 9.348612,0 c -0.155578,-0.15557 -0.211667,-1.66893 -0.211667,-5.71104 0,-4.72705 0.038,-5.530904 0.27055,-5.723907 0.205002,-0.170137 0.907116,-0.200073 2.897953,-0.12356 2.717288,0.104432 3.771398,0.36472 4.655168,1.149487 0.56745,0.50387 0.98775,1.64369 0.9919,2.68991 0.006,1.4289 -0.53662,2.38398 -1.73089,3.04846 -0.8227,0.45774 -1.17751,0.53699 -2.82222,0.63037 l -1.881211,0.10681 -0.05045,1.93379 c -0.03326,1.27483 -0.123417,1.98017 -0.264584,2.06987 -0.3354,0.21314 -1.619842,0.16453 -1.854553,-0.0702 z m 5.849694,-6.42696 c 0.36885,-0.36885 0.46503,-0.63435 0.46503,-1.28367 0,-1.50169 -0.74111,-2.00357 -2.83485,-1.91974 l -1.310291,0.0525 -0.0514,1.57354 c -0.02827,0.86545 -0.01092,1.67904 0.03856,1.80798 0.0655,0.17069 0.516653,0.23445 1.658941,0.23445 1.46004,0 1.60128,-0.0323 2.03401,-0.46502 z m 7.87222,6.48261 c -1.21862,-0.39491 -2.336,-1.33056 -2.86808,-2.40162 -0.87267,-1.75666 -0.84684,-5.01763 0.0539,-6.7989 0.44405,-0.87817 1.77004,-2.046846 2.57641,-2.270751 1.06777,-0.296489 2.87353,-0.228193 3.68245,0.139274 0.97339,0.442182 1.82049,1.335317 2.36269,2.491107 0.41063,0.87532 0.45562,1.18023 0.45562,3.08788 0,1.90766 -0.045,2.21257 -0.45562,3.08788 -0.87142,1.85758 -2.11528,2.68973 -4.13049,2.76332 -0.6791,0.0248 -1.43368,-0.0194 -1.67684,-0.0982 z m 2.93407,-2.15579 c 0.89715,-0.83807 1.03512,-1.31755 1.03512,-3.59722 0,-2.27967 -0.13797,-2.75914 -1.03512,-3.59721 -0.67497,-0.63053 -1.94988,-0.70659 -2.75654,-0.16444 -1.03637,0.69653 -1.32351,1.51533 -1.31916,3.76165 0.003,1.67265 0.059,2.04464 0.40399,2.69685 0.5542,1.04762 1.30359,1.48765 2.37614,1.39526 0.57547,-0.0496 0.98725,-0.20687 1.29557,-0.49489 z m 5.56902,2.10014 c -0.15558,-0.15557 -0.21167,-1.66893 -0.21167,-5.71104 0,-4.7334 0.0378,-5.530728 0.27127,-5.724505 0.20712,-0.171894 0.90261,-0.199219 2.94097,-0.115547 2.38518,0.09791 2.76885,0.158102 3.60015,0.564822 1.48924,0.72862 2.0196,1.93268 1.64825,3.74198 -0.17177,0.83689 -0.34653,1.15047 -0.98338,1.76445 -0.42596,0.41068 -0.77448,0.83979 -0.77448,0.95359 0,0.1138 0.48253,1.11307 1.0723,2.22061 0.58976,1.10754 1.02882,2.12702 0.97567,2.26551 -0.10071,0.26244 -1.39541,0.35577 -1.95525,0.14094 -0.15889,-0.061 -0.7138,-0.95808 -1.23311,-1.99357 -0.51932,-1.03549 -1.06433,-1.98239 -1.21113,-2.10422 -0.15722,-0.13049 -0.61684,-0.1992 -1.11846,-0.1672 l -0.85155,0.0543 -0.0502,2.02185 c -0.0334,1.34547 -0.12194,2.06742 -0.26459,2.15807 -0.33558,0.21324 -1.61999,0.16473 -1.85477,-0.0701 z m 5.40481,-6.44151 c 0.6161,-0.45719 0.86489,-1.42328 0.55758,-2.16518 -0.36727,-0.88666 -0.8272,-1.08218 -2.40668,-1.02308 l -1.38613,0.0519 -0.0511,1.66095 c -0.0371,1.20545 0.0113,1.7038 0.17638,1.81717 0.40841,0.28045 2.59534,0.0401 3.10995,-0.34172 z m 7.64797,6.44151 c -0.1541,-0.15409 -0.21167,-1.49734 -0.21167,-4.93888 v -4.72723 h -1.48488 c -1.95035,0 -2.0429,-0.044 -2.0429,-0.970135 0,-0.526662 0.0846,-0.788487 0.27901,-0.863073 0.15346,-0.05889 2.20133,-0.107066 4.55083,-0.107066 3.08735,0 4.33052,0.05869 4.48349,0.211667 0.28213,0.282121 0.27028,1.283997 -0.018,1.523247 -0.12632,0.10484 -0.93991,0.21377 -1.80799,0.24208 l -1.57831,0.0515 -0.0471,4.75391 c -0.035,3.53342 -0.10289,4.78939 -0.26458,4.89209 -0.3382,0.21482 -1.6221,0.16777 -1.85795,-0.0681 z M 101.31394,92.003295 c 2.52601,-1.433489 5.45444,-1.433489 7.98045,0 l 0.90341,0.512681 h 10.17375 c 11.16143,0 10.92043,0.02211 11.47616,-1.052559 0.39903,-0.771649 0.38944,-5.565706 -0.0114,-5.719541 -0.36473,-0.139958 -52.699483,-0.139958 -53.064208,0 -0.235249,0.09027 -0.27901,0.478481 -0.27901,2.47511 0,2.458068 0.165946,3.246729 0.792805,3.767824 0.403309,0.335262 3.427974,0.444608 13.649614,0.493449 l 7.475059,0.03572 z M 80.320517,82.173251 c 0.640769,-0.08783 0.818369,-0.183525 0.818369,-0.440972 0,-0.408285 -0.786227,-0.44723 -1.659827,-0.08222 -1.270178,0.530714 -0.898676,0.7617 0.841458,0.523188 z m 49.806713,-0.523565 c -0.0586,-0.05861 -0.21075,-0.06488 -0.33808,-0.01393 -0.14071,0.05631 -0.0989,0.0981 0.10657,0.106568 0.18594,0.0077 0.29012,-0.03403 0.23151,-0.09264 z m -29.40918,-3.593931 c -0.17703,-0.111956 -0.25893,-0.434119 -0.24752,-0.973631 0.0217,-1.023124 0.77798,-2.122583 1.8612,-2.705594 0.71807,-0.386475 0.91665,-0.408428 3.0789,-0.340378 2.59668,0.08172 3.06255,0.246009 4.00532,1.412465 0.40675,0.503263 0.55215,0.888158 0.61309,1.622935 0.075,0.90471 0.0536,0.969799 -0.35227,1.071674 -0.23769,0.05965 -0.77465,0.0834 -1.19327,0.05276 -0.73157,-0.05354 -0.76988,-0.08553 -0.98704,-0.824197 -0.27598,-0.938744 -0.81261,-1.537556 -1.61532,-1.802472 -1.19616,-0.394769 -2.86722,0.696744 -2.86937,1.874231 -3.6e-4,0.198878 -0.0959,0.456847 -0.21233,0.573263 -0.25091,0.250913 -1.70323,0.278087 -2.08139,0.03894 z"
         id="path5" /><path
         style="fill:#6f9e9b"
         d="m 51.68194,223.58972 c -0.909186,-0.57919 -1.716049,-1.40932 -2.265355,-2.33068 l -0.380479,-0.63818 V 152.3488 84.076735 l 0.578355,-0.758274 c 0.318095,-0.417051 0.916911,-1.016499 1.330701,-1.332107 1.489599,-1.136155 1.136686,-1.112044 16.276589,-1.112044 7.541541,0 13.843528,-0.05051 14.004415,-0.112251 0.160887,-0.06174 0.368332,-0.311648 0.46099,-0.555356 l 0.168468,-0.443105 6.388506,0.11324 c 3.513679,0.06228 14.00851,0.163274 23.32184,0.224427 13.89584,0.09124 16.98267,0.154175 17.20839,0.350826 0.22588,0.196798 2.81152,0.248074 14.46389,0.286831 l 14.18883,0.04719 0.99755,0.46767 c 1.1552,0.541581 2.26411,1.611036 2.78396,2.684913 l 0.36363,0.751158 v 68.079367 c 0,62.96016 -0.0219,68.11216 -0.29091,68.51549 -0.65041,0.97503 -1.6186,1.82846 -2.6195,2.30899 l -1.05834,0.5081 -52.56389,-0.003 -52.56389,-0.003 z m 104.40086,-5.01814 c 0.1461,-0.17604 0.18657,-17.67309 0.15389,-66.54271 l -0.0443,-66.303866 h -11.37708 -11.37709 l -0.0882,2.478051 c -0.0701,1.970089 -0.1523,2.575718 -0.40094,2.954514 -0.17201,0.262055 -0.39029,0.476463 -0.48507,0.476463 -0.17319,0 -0.25559,-1.37602 -0.25879,-4.321528 l -0.002,-1.5875 H 105.30416 78.404858 l -0.01753,2.38125 c -0.01192,1.619453 0.06436,2.652946 0.238458,3.230524 0.285913,0.948558 0.232664,1.116376 -0.269035,0.847874 -0.853975,-0.457033 -1.006653,-1.007609 -1.070178,-3.859202 l -0.05995,-2.691221 -11.317132,0.04539 -11.317132,0.04539 -0.04513,66.322211 c -0.02482,36.47723 -0.0075,66.42144 0.03856,66.54271 0.129302,0.34065 101.214241,0.32237 101.497011,-0.0183 z m -23.30224,-7.75946 c -1.37431,-0.46837 -2.83389,-1.42286 -3.53847,-2.314 -0.60062,-0.75964 -1.29297,-2.11393 -1.44609,-2.82868 -0.0624,-0.29104 0.0841,-0.066 0.32547,0.50007 1.14267,2.67998 3.05585,4.23048 5.81229,4.7105 0.64907,0.11303 1.18013,0.23705 1.18013,0.2756 0,0.20164 -1.29173,0.0115 -2.33333,-0.34349 z m -17.33403,0.0608 c -0.31261,-0.13434 -0.29754,-0.15301 0.13229,-0.164 0.26679,-0.007 0.48507,0.067 0.48507,0.164 0,0.20703 -0.13558,0.20703 -0.61736,0 z M 114.3,210.33334 c 0,-0.10274 0.0794,-0.13774 0.17639,-0.0778 0.097,0.06 0.17639,0.14402 0.17639,0.1868 0,0.0428 -0.0794,0.0778 -0.17639,0.0778 -0.097,0 -0.17639,-0.0841 -0.17639,-0.1868 z m -5.99722,-0.33683 c 0,-0.094 0.11906,-0.12517 0.26458,-0.0693 0.14552,0.0559 0.26458,0.13273 0.26458,0.17086 0,0.0381 -0.11906,0.0693 -0.26458,0.0693 -0.14552,0 -0.26458,-0.0769 -0.26458,-0.17085 z m -20.372922,-0.88748 c -0.06291,-0.1018 0.100524,-0.17525 0.386465,-0.17369 0.384723,0.002 0.436336,0.0409 0.230896,0.17369 -0.338893,0.21901 -0.482005,0.21901 -0.617361,0 z m 46.255252,-0.53363 c -1.61175,-0.40659 -3.08476,-1.58622 -3.80247,-3.04512 -1.33384,-2.71135 -0.0224,-6.08944 2.99661,-7.71909 1.04655,-0.56492 1.22336,-0.60326 2.79297,-0.60575 1.95506,-0.003 2.84347,0.31564 4.09488,1.46915 1.22176,1.12618 1.63727,2.11779 1.63754,3.90805 1.8e-4,1.23395 -0.0763,1.65539 -0.43202,2.38125 -0.57269,1.16849 -1.97941,2.55203 -3.20209,3.1493 -1.1054,0.53999 -2.94989,0.74867 -4.08542,0.46221 z m 3.14647,-2.5544 c 2.73118,-1.10474 3.2007,-4.81458 0.81612,-6.44851 -0.77415,-0.53046 -2.64256,-0.6862 -3.5701,-0.29759 -1.55304,0.65067 -2.46232,1.97049 -2.46232,3.57405 0,1.80302 0.97041,3.02634 2.73403,3.44657 0.63136,0.15044 1.73282,0.0286 2.48227,-0.27452 z m -24.2663,2.20608 c 0,-0.097 0.0794,-0.17639 0.17639,-0.17639 0.097,0 0.17638,0.0794 0.17638,0.17639 0,0.097 -0.0794,0.17639 -0.17638,0.17639 -0.097,0 -0.17639,-0.0794 -0.17639,-0.17639 z m 0.17639,-1.12571 c 0,-0.14552 0.0794,-0.31364 0.17638,-0.37359 0.097,-0.06 0.17639,0.01 0.17639,0.15557 0,0.14552 -0.0794,0.31364 -0.17639,0.37359 -0.097,0.06 -0.17638,-0.01 -0.17638,-0.15557 z m 14.32842,-2.75484 c 0,-0.33955 0.0363,-0.47846 0.0807,-0.30868 0.0444,0.16977 0.0444,0.44758 0,0.61736 -0.0444,0.16977 -0.0807,0.0309 -0.0807,-0.30868 z m -0.0131,-1.23473 c 0,-0.24253 0.04,-0.34175 0.089,-0.22048 0.0489,0.12127 0.0489,0.3197 0,0.44097 -0.0489,0.12127 -0.089,0.0221 -0.089,-0.22049 z m 16.59363,-1.23472 c 0,-0.33955 0.0363,-0.47845 0.0807,-0.30868 0.0444,0.16978 0.0444,0.44759 0,0.61736 -0.0444,0.16978 -0.0807,0.0309 -0.0807,-0.30868 z m -0.20339,-0.98484 c 0.008,-0.20548 0.0503,-0.24728 0.10657,-0.10656 0.051,0.12733 0.0447,0.27946 -0.0139,0.33807 -0.0586,0.0586 -0.1003,-0.0456 -0.0926,-0.23151 z m -0.61995,-1.60929 c -0.0957,-0.25139 -0.0755,-0.27165 0.0987,-0.0987 0.12055,0.11965 0.17475,0.26198 0.12044,0.31629 -0.0543,0.0543 -0.15294,-0.0436 -0.21918,-0.21755 z m -35.89486,-3.05031 c 4.8e-4,-0.14552 0.12044,-0.46302 0.26657,-0.70556 l 0.26569,-0.44097 -0.11688,0.44097 c -0.0643,0.24254 -0.18425,0.56004 -0.26658,0.70556 -0.13306,0.23518 -0.14959,0.23518 -0.1488,0 z M 76.989337,110.29517 c -0.04895,-0.12757 -0.06799,-2.69179 -0.0423,-5.69828 l 0.04671,-5.466331 2.773705,0.02325 c 2.539402,0.02129 2.84408,0.05854 3.606805,0.440972 1.42023,0.712109 1.973282,1.929629 1.636944,3.603669 -0.172638,0.85926 -0.600756,1.47814 -1.544814,2.23314 -0.451069,0.36075 -0.469363,0.30219 0.878475,2.81183 0.57014,1.06158 0.990162,2.00531 0.933383,2.09719 -0.121127,0.19598 -1.493457,0.22075 -1.775178,0.032 -0.106401,-0.0713 -0.690371,-1.06581 -1.297709,-2.21009 l -1.104252,-2.08049 -1.083541,0.052 -1.083541,0.052 -0.08819,2.11667 -0.08819,2.11667 -0.839647,0.0538 c -0.571891,0.0367 -0.868029,-0.0201 -0.928652,-0.17811 z m 5.351822,-6.08453 c 1.036835,-0.76932 1.076213,-2.44483 0.07595,-3.23164 -0.396898,-0.3122 -0.667837,-0.355 -1.971606,-0.31144 l -1.511477,0.0505 -0.05059,1.83766 c -0.03709,1.34693 0.01002,1.87926 0.176389,1.99346 0.419547,0.28798 2.762769,0.0462 3.281341,-0.33854 z m 5.229182,6.07846 c -0.04767,-0.12423 -0.06566,-2.68572 -0.03997,-5.69221 l 0.04671,-5.466331 h 3.615972 3.615972 v 0.705556 0.705555 l -2.645833,0.0882 -2.645834,0.0882 v 1.4993 1.49931 l 2.293056,0.0882 2.293056,0.0882 v 0.61736 0.61736 l -2.105684,0.05 c -1.218048,0.0289 -2.205898,0.13316 -2.343417,0.24729 -0.174899,0.14515 -0.224423,0.62146 -0.187372,1.8021 l 0.05036,1.6048 2.645834,0.0882 2.645833,0.0882 v 0.70555 0.70556 l -3.576004,0.0478 c -2.778631,0.0371 -3.595332,-0.003 -3.66268,-0.17811 z m 9.350942,0.006 c -0.04895,-0.12757 -0.06799,-2.69179 -0.0423,-5.69828 l 0.04671,-5.466331 2.76393,0.01645 c 2.611497,0.01555 2.815787,0.04204 3.704167,0.48032 1.15516,0.569901 1.75626,1.400951 1.87008,2.585481 0.17026,1.77193 -0.36424,2.83733 -1.78988,3.56772 -0.55413,0.2839 -1.18977,0.39763 -2.66774,0.47734 l -1.940279,0.10463 -0.08819,2.02848 -0.08819,2.02847 -0.839646,0.0538 c -0.571892,0.0367 -0.86803,-0.0201 -0.928652,-0.17811 z m 5.927007,-6.12396 c 0.43708,-0.43708 0.5156,-0.65466 0.5156,-1.42875 0,-0.8053 -0.0716,-0.98478 -0.60649,-1.51964 l -0.60648,-0.60648 -1.64248,0.0509 -1.64247,0.0509 -0.05087,1.75133 c -0.02798,0.96324 -0.01062,1.85621 0.03856,1.98438 0.06552,0.17075 0.542406,0.23304 1.78422,0.23304 1.63802,0 1.71208,-0.0173 2.2104,-0.5156 z m 7.5267,6.08477 c -1.96288,-0.70048 -3.13055,-2.68002 -3.13055,-5.30718 0,-2.4838 0.74421,-4.22063 2.2639,-5.28349 0.7241,-0.506423 0.85556,-0.534751 2.48167,-0.534751 1.58061,0 1.77577,0.03882 2.45586,0.488471 1.68704,1.11543 2.40658,2.86844 2.28914,5.57702 -0.11391,2.62734 -0.89167,4.03651 -2.69959,4.89121 -1.01536,0.48 -2.58537,0.55237 -3.66043,0.16872 z m 2.76731,-1.408 c 0.3917,-0.16366 0.76629,-0.54019 1.09677,-1.10243 0.47629,-0.8103 0.5019,-0.9619 0.5019,-2.97055 0,-1.93319 -0.0382,-2.18394 -0.44097,-2.89287 -0.57336,-1.00923 -1.41005,-1.47348 -2.48672,-1.37978 -1.0213,0.0889 -1.63236,0.52803 -2.14093,1.53863 -0.34267,0.68095 -0.39943,1.06946 -0.39943,2.73402 0,1.74219 0.045,2.02062 0.44097,2.7272 0.79863,1.42518 2.05658,1.91897 3.42841,1.34578 z m 6.00398,1.44719 c -0.049,-0.12757 -0.068,-2.69179 -0.0423,-5.69828 l 0.0467,-5.466331 2.64963,0.01712 c 2.91883,0.01886 3.67357,0.178794 4.57383,0.969231 0.8002,0.70258 1.07727,1.74577 0.80808,3.04246 -0.1984,0.95569 -0.56282,1.48838 -1.55444,2.27222 -0.45623,0.36064 -0.47518,0.29965 0.87402,2.81183 0.57014,1.06158 0.99016,2.00531 0.93338,2.09719 -0.15189,0.24576 -1.62266,0.20345 -1.85789,-0.0534 -0.11103,-0.12127 -0.64994,-1.09361 -1.19758,-2.16077 l -0.99569,-1.94028 h -1.14653 -1.14653 l -0.0882,2.11667 -0.0882,2.11667 -0.83964,0.0538 c -0.5719,0.0367 -0.86803,-0.0201 -0.92866,-0.17811 z m 5.35183,-6.08355 c 1.06414,-0.78737 1.15262,-2.13594 0.20247,-3.08609 -0.49451,-0.49451 -0.55547,-0.50808 -2.0596,-0.45853 l -1.55001,0.0511 -0.0507,1.73786 c -0.0351,1.20247 0.0176,1.82018 0.17107,2.00508 0.33117,0.39902 2.64802,0.22324 3.28677,-0.24938 z m 7.70427,6.08527 c -0.0471,-0.12662 -0.10586,-2.33366 -0.1305,-4.90453 l -0.0448,-4.6743 -1.67569,-0.0882 -1.6757,-0.0882 v -0.705555 -0.705556 h 4.49792 4.49792 v 0.705556 0.705555 l -1.76389,0.0882 -1.76389,0.0882 -0.0882,4.85069 -0.0882,4.8507 -0.83965,0.0538 c -0.56991,0.0365 -0.86717,-0.0201 -0.92533,-0.17639 z M 102.41744,91.772082 c 0.16095,-0.260423 1.92095,-0.667217 2.88672,-0.667217 0.99597,0 2.82244,0.432536 2.82199,0.668292 -1.3e-4,0.069 -1.30257,0.125987 -2.8943,0.126634 -1.59173,6.46e-4 -2.85822,-0.05682 -2.81441,-0.127709 z m 7.12006,-7.371468 c -0.53358,-0.07416 -6.90793,-0.177265 -14.165222,-0.229113 -11.389727,-0.08137 -13.166623,-0.05998 -12.987083,0.156353 0.176809,0.213043 2.300819,0.247398 14.16522,0.229114 7.676475,-0.01183 13.520655,-0.08219 12.987085,-0.156354 z M 78.723095,83.124871 c 0.528187,-0.418332 0.960789,-0.595746 1.612883,-0.661458 0.854756,-0.08613 0.893357,-0.113179 0.946375,-0.663061 0.05368,-0.556764 0.03591,-0.573152 -0.617361,-0.56939 -1.361995,0.0078 -2.877495,1.086674 -2.877495,2.048386 0,0.540472 0.07347,0.528341 0.935598,-0.154477 z m 53.744965,-0.295857 c 0,-0.686636 -0.91898,-1.339274 -2.11667,-1.503222 -0.93995,-0.128665 -1.25932,0.0337 -1.11932,0.569065 0.0815,0.311514 0.23185,0.391501 0.74302,0.39519 0.35248,0.0025 0.95838,0.154869 1.34644,0.338499 0.79594,0.376646 1.14653,0.437945 1.14653,0.200468 z m -31.71473,-4.988592 c -0.52233,-0.522334 -0.12979,-1.775991 0.84503,-2.69875 l 0.55902,-0.529167 3.11679,0.04462 c 3.56972,0.0511 3.70787,0.09877 4.4232,1.526348 0.33288,0.664314 0.38905,0.947766 0.26034,1.31375 -0.15033,0.427439 -0.2449,0.466672 -1.12499,0.466672 h -0.96087 l -0.27301,-0.739063 c -0.35875,-0.971175 -0.97157,-1.601546 -1.79754,-1.849011 -1.18972,-0.35645 -2.56249,0.541683 -2.89382,1.893277 -0.0699,0.285124 -0.21407,0.576724 -0.3204,0.647999 -0.31075,0.208298 -1.6028,0.154274 -1.83375,-0.07667 z"
         id="path4" /><path
         style="fill:#476663"
         d="m 52.406783,223.9776 c -0.616383,-0.24587 -2.291213,-1.79245 -2.611219,-2.41128 -0.151821,-0.29359 -0.384807,-0.64256 -0.517748,-0.7755 -0.203854,-0.20386 -0.24171,-10.92971 -0.24171,-68.48527 V 84.062004 l 0.970187,-1.040613 c 0.667365,-0.71581 1.314271,-1.197706 2.07257,-1.543909 l 1.102382,-0.503294 13.201335,-0.06895 c 8.715724,-0.04552 13.261667,-0.0086 13.378893,0.108606 0.119151,0.119151 0.0031,0.21587 -0.352725,0.294027 -0.72972,0.160274 -1.757482,1.20148 -1.89159,1.916335 -0.151777,0.809039 -0.03746,1.753892 0.222514,1.839215 0.125514,0.04119 0.397567,-0.337699 0.646277,-0.900077 0.479022,-1.083155 1.093578,-1.525143 2.12061,-1.525143 0.721956,0 1.076758,-0.467776 0.926113,-1.221001 -0.069,-0.344986 -0.0018,-0.530192 0.249053,-0.68688 0.268677,-0.167792 4.080491,-0.175999 17.495135,-0.03767 9.43339,0.09728 26.32929,0.177944 37.54645,0.179263 22.30273,0.0026 21.02058,-0.05625 22.61136,1.03824 0.41646,0.286527 0.99083,0.865209 1.27639,1.28596 0.28556,0.420752 0.5988,0.821638 0.69608,0.890859 0.1176,0.08367 0.19189,22.994678 0.22166,68.358088 0.0425,64.80554 0.0292,68.25288 -0.26458,68.6435 -0.83487,1.10992 -1.58619,1.83789 -2.2376,2.16805 -0.39468,0.20003 -0.77423,0.45225 -0.84345,0.56049 -0.0921,0.14396 -14.27382,0.20505 -52.82847,0.22757 -28.986442,0.0169 -52.813004,-0.0133 -52.947917,-0.0671 z m 103.776277,-5.27128 c 0.25545,-0.25545 0.27638,-5.52579 0.23443,-59.04618 -0.0253,-32.32113 -0.0863,-62.218504 -0.1356,-66.438608 l -0.0895,-7.672916 -11.26923,-0.04541 c -7.94925,-0.03203 -11.33761,0.01134 -11.50134,0.147224 -0.16866,0.139976 -0.20386,0.495218 -0.12876,1.2995 0.11425,1.223443 -0.0506,3.229037 -0.29838,3.629939 -0.13003,0.210384 -0.20079,0.215808 -0.38696,0.02967 -0.15426,-0.154243 -0.25631,-1.008123 -0.31602,-2.644359 l -0.0882,-2.416557 H 105.216 78.228499 l 0.06275,2.866319 c 0.05504,2.514118 0.02871,2.866319 -0.21428,2.866319 -0.555803,0 -0.716168,-0.723403 -0.723391,-3.263194 l -0.007,-2.469444 -11.269232,-0.04541 c -8.177279,-0.03295 -11.335121,0.0093 -11.509376,0.15389 -0.20182,0.167495 -0.240143,10.792599 -0.240143,66.579357 0,63.03301 0.01556,66.38911 0.308681,66.55984 0.207667,0.12095 16.827406,0.18154 50.787402,0.18515 45.91114,0.005 50.5041,-0.02 50.7592,-0.27512 z M 128.07614,84.568949 c 0.18423,-0.0986 0.33497,-0.243893 0.33497,-0.322874 0,-0.170843 -10.15391,-0.329741 -31.176737,-0.487882 -13.606498,-0.102353 -15.389932,-0.08514 -15.389932,0.148531 0,0.365587 0.529565,0.803996 1.058334,0.876157 1.16005,0.158312 44.864555,-0.04866 45.173365,-0.213932 z m 5.06697,-0.579713 c 0.0994,-0.516174 -0.11266,-1.10809 -0.60782,-1.696555 -0.5938,-0.705692 -1.17628,-0.997026 -2.2721,-1.136412 -1.126,-0.143225 -1.42351,0.03362 -1.19745,0.711797 0.14517,0.435504 0.28683,0.52232 1.02447,0.627835 0.97212,0.139055 1.60181,0.539551 2.11326,1.344064 0.3792,0.596476 0.83943,0.669589 0.93964,0.149271 z m -25.37035,-6.556744 c -0.0966,-0.253937 -0.17554,-0.535682 -0.17554,-0.626101 0,-0.09042 -0.28705,-0.482126 -0.63789,-0.870461 l -0.63788,-0.706064 h 1.26367 c 1.14304,0 1.30537,0.04499 1.70047,0.471322 0.48402,0.52226 0.66389,1.044963 0.57521,1.671501 -0.052,0.367137 -0.16526,0.420947 -0.98561,0.468161 -0.85931,0.04945 -0.93969,0.01968 -1.10243,-0.408358 z m -7.05471,-0.425204 c 0,-0.487149 0.13519,-0.852687 0.45666,-1.234722 0.43648,-0.518735 0.51611,-0.5427 1.80319,-0.5427 h 1.34655 l -0.56446,0.515553 c -0.31045,0.283554 -0.69394,0.839179 -0.85221,1.234722 -0.2868,0.716791 -0.2909,0.719169 -1.23874,0.719169 h -0.95099 z"
         id="path3" /><path
         style="fill:#3d605d"
         d="m 156.63333,143.21618 c 0,-39.12641 -0.0578,-57.357791 -0.18259,-57.590966 -0.1776,-0.331855 -0.49222,-0.341221 -11.50938,-0.342614 l -11.32678,-0.0014 -0.0275,-0.959251 c -0.0352,-1.226845 -0.60881,-2.27463 -1.55631,-2.842671 l -0.70925,-0.425208 12.96458,-0.0015 12.96459,-0.0015 1.05833,0.501483 c 1.11471,0.528196 2.2458,1.618512 2.65526,2.559528 0.13274,0.305076 0.25003,0.435621 0.26065,0.2901 0.0132,-0.180967 0.0672,-0.153095 0.17089,0.08819 0.0834,0.194028 0.15718,24.615069 0.164,54.268979 0.01,42.97721 -0.0323,53.93425 -0.20809,54.00517 -0.17639,0.0712 -0.17639,0.0917 0,0.10289 0.12126,0.008 0.22048,0.12638 0.22048,0.26381 0,0.13744 -0.0992,0.28992 -0.22048,0.33886 -0.17639,0.0712 -0.17639,0.0917 0,0.10289 0.12126,0.008 0.22048,0.13299 0.22048,0.27851 0,0.14552 -0.0992,0.2658 -0.22048,0.26728 -0.14699,0.002 -0.13229,0.0597 0.0441,0.17369 0.23519,0.15199 0.23519,0.17159 0,0.17639 -0.23518,0.005 -0.23518,0.0244 0,0.17639 0.23519,0.15199 0.23519,0.17159 0,0.17639 -0.23518,0.005 -0.23518,0.0244 0,0.17639 0.23519,0.15198 0.23519,0.17158 0,0.17638 -0.23518,0.005 -0.23518,0.0244 0,0.17639 0.23519,0.15199 0.23519,0.17159 0,0.17639 -0.23518,0.005 -0.23518,0.0244 0,0.17639 0.23519,0.15199 0.23519,0.17159 0,0.17639 -0.23518,0.005 -0.23518,0.0244 0,0.17639 0.23519,0.15199 0.23519,0.17159 0,0.17639 -0.23518,0.005 -0.23518,0.0244 0,0.17639 0.17639,0.11399 0.19109,0.17188 0.0441,0.17368 -0.12127,0.001 -0.22048,0.11515 -0.22048,0.25259 0,0.13744 0.0992,0.28992 0.22048,0.33885 0.17639,0.0712 0.17639,0.0918 0,0.1029 -0.15902,0.01 -0.22048,0.45644 -0.22048,1.60142 v 1.5875 h -2.29306 -2.29306 z M 49.918051,196.58542 c 0,-0.19403 -0.110571,-0.35278 -0.245712,-0.35278 -0.322234,0 -0.382906,-0.23653 -0.373284,-1.45521 0.0045,-0.57413 -0.06991,-1.01541 -0.171567,-1.01694 -0.09877,-0.001 -0.07358,-0.0699 0.05598,-0.15201 0.299361,-0.18976 0.299361,-0.38276 0,-0.57252 -0.129553,-0.0821 -0.149562,-0.15052 -0.04446,-0.15201 0.105098,-0.001 0.191088,-0.12176 0.191088,-0.26728 0,-0.14552 -0.08599,-0.2658 -0.191088,-0.26729 -0.105099,-0.001 -0.07203,-0.0796 0.07349,-0.17369 0.235185,-0.15198 0.235185,-0.17158 0,-0.17638 -0.235185,-0.005 -0.235185,-0.0244 0,-0.17639 0.235185,-0.15199 0.235185,-0.17159 0,-0.17639 -0.235185,-0.005 -0.235185,-0.0244 0,-0.17639 0.235185,-0.15199 0.235185,-0.17159 0,-0.17639 -0.235185,-0.005 -0.235185,-0.0244 0,-0.17639 0.235185,-0.15199 0.235185,-0.17159 0,-0.17639 -0.235185,-0.005 -0.235185,-0.0244 0,-0.17639 0.176389,-0.11399 0.191088,-0.17188 0.0441,-0.17369 -0.250532,-0.003 -0.221692,-0.37799 0.0441,-0.57326 0.110245,-0.081 0.09612,-0.1306 -0.03767,-0.13229 -0.16732,-0.002 -0.216151,-11.51423 -0.223624,-52.72037 -0.0053,-28.99472 0.03986,-52.846455 0.100255,-53.00385 0.0604,-0.157395 0.171042,-0.248332 0.245874,-0.202083 0.07483,0.04625 0.350705,-0.225643 0.613048,-0.604205 0.262344,-0.378561 0.771144,-0.892144 1.130668,-1.141294 1.385646,-0.960253 1.236164,-0.949736 14.972496,-1.053408 7.009254,-0.0529 12.744098,-0.0332 12.744098,0.04378 0,0.07698 -0.205015,0.24968 -0.455589,0.383783 -0.734711,0.393206 -1.367839,1.65154 -1.383237,2.749167 l -0.01326,0.945053 -11.209515,0.0011 c -8.482124,8.04e-4 -11.261015,0.05256 -11.421181,0.212729 -0.163735,0.163734 -0.211667,12.805833 -0.211667,55.827078 v 55.61541 h -1.411111 c -1.293519,0 -1.411111,-0.0294 -1.411111,-0.35277 0,-0.19599 -0.117593,-0.35278 -0.264584,-0.35278 -0.14699,0 -0.264583,0.15679 -0.264583,0.35278 0,0.2587 -0.117592,0.35277 -0.440972,0.35277 -0.32338,0 -0.440972,-0.0941 -0.440972,-0.35277 z M 77.51089,89.427115 c -0.116901,-0.623137 0.0094,-2.170816 0.192111,-2.353495 0.270587,-0.270587 0.447848,0.420345 0.401449,1.564784 -0.05788,1.427655 -0.390723,1.869928 -0.59356,0.788711 z m 54.95717,-1.473906 c 0,-1.300641 0.17715,-1.84476 0.4968,-1.525918 0.0663,0.06614 0.12056,0.727229 0.12056,1.469091 0,1.14385 -0.0469,1.358081 -0.30868,1.40965 -0.27337,0.05385 -0.30868,-0.100931 -0.30868,-1.352823 z M 78.669441,84.82562 c 0,-0.68651 0.488937,-1.583298 0.986939,-1.810203 0.242424,-0.110456 0.7189,-0.200829 1.058834,-0.200829 0.53963,0 0.650795,-0.07834 0.876012,-0.617361 l 0.25795,-0.617361 6.038952,9.24e-4 c 3.321424,5.08e-4 13.857392,0.08221 23.413262,0.181567 l 17.3743,0.180642 0.3234,0.435795 c 0.25261,0.340414 0.48424,0.436652 1.05833,0.439716 1.12273,0.006 1.88147,0.782184 1.88147,1.92476 v 0.540762 H 105.30416 78.669441 Z m 49.559949,0.05639 c 0.59516,-0.301153 1.06153,-1.140398 0.74423,-1.339253 -0.12719,-0.07971 -7.54875,-0.197162 -16.49237,-0.26101 -8.94361,-0.06385 -19.572899,-0.167408 -23.620638,-0.230133 -6.74719,-0.104557 -7.368837,-0.08978 -7.471454,0.177638 -0.197401,0.51442 0.09586,1.17396 0.680503,1.53043 0.557406,0.339864 1.010306,0.346609 23.146309,0.344706 17.70641,-0.0015 22.67177,-0.0495 23.01342,-0.222378 z m -20.44957,-7.876655 c -0.37751,-0.705384 -0.23768,-0.893541 0.66407,-0.893541 0.9358,0 1.27,0.218159 1.27,0.829028 0,0.368858 -0.0795,0.405695 -0.87574,0.405695 -0.68529,0 -0.91545,-0.0742 -1.05833,-0.341182 z m -6.97837,-0.01935 c -0.0626,-0.10128 0.0139,-0.379093 0.17005,-0.617361 0.23849,-0.363976 0.42416,-0.433215 1.16173,-0.433215 0.93468,0 1.07618,0.181838 0.69528,0.89354 -0.14243,0.266139 -0.37292,0.341182 -1.04792,0.341182 -0.47593,0 -0.91654,-0.08287 -0.97914,-0.184146 z"
         id="path2" /><path
         style="fill:#3a5e5b"
         d="m 157.1625,134.84931 c 0,-0.50883 -0.0736,-0.70556 -0.26396,-0.70556 -0.23287,0 -0.26923,-2.87254 -0.30868,-24.38576 l -0.0447,-24.385763 -11.42118,-0.04538 -11.42118,-0.04538 v -0.913162 c 0,-1.175484 -0.54728,-2.31515 -1.38588,-2.885987 l -0.64259,-0.437418 12.78819,0.047 12.7882,0.047 0.98188,0.460499 c 1.13271,0.531238 2.10398,1.460603 2.62366,2.510482 0.24882,0.502669 0.36687,0.622271 0.37546,0.380407 l 0.0125,-0.352777 0.15159,0.352777 c 0.0834,0.194028 0.15718,8.422569 0.164,18.285652 0.01,14.19058 -0.0336,17.95144 -0.20809,18.02184 -0.17639,0.0712 -0.17639,0.0918 0,0.10289 0.12126,0.008 0.22048,0.12637 0.22048,0.26381 0,0.13744 -0.0992,0.28992 -0.22048,0.33885 -0.17639,0.0712 -0.17639,0.0918 0,0.1029 0.12126,0.008 0.22048,0.12637 0.22048,0.26381 0,0.13743 -0.0992,0.28992 -0.22048,0.33885 -0.17639,0.0712 -0.17639,0.0918 0,0.10289 0.12126,0.008 0.22048,0.13299 0.22048,0.27851 0,0.14552 -0.0992,0.2658 -0.22048,0.26728 -0.14699,0.002 -0.13229,0.0597 0.0441,0.17369 0.23519,0.15199 0.23519,0.17159 0,0.17639 -0.23518,0.005 -0.23518,0.0244 0,0.17639 0.23519,0.15199 0.23519,0.17159 0,0.17639 -0.23518,0.005 -0.23518,0.0244 0,0.17639 0.23519,0.15199 0.23519,0.17159 0,0.17639 -0.23518,0.005 -0.23518,0.0244 0,0.17639 0.23519,0.15198 0.23519,0.17158 0,0.17638 -0.23518,0.005 -0.23518,0.0244 0,0.17639 0.23519,0.15199 0.23519,0.17159 0,0.17639 -0.23518,0.005 -0.23518,0.0244 0,0.17639 0.23519,0.15199 0.23519,0.17159 0,0.17639 -0.23518,0.005 -0.23518,0.0244 0,0.17639 0.23519,0.15199 0.23519,0.17159 0,0.17639 -0.23518,0.005 -0.23518,0.0244 0,0.17639 0.23519,0.15199 0.23519,0.17158 0,0.17639 -0.23518,0.005 -0.23518,0.0244 0,0.17638 0.17639,0.114 0.19109,0.17189 0.0441,0.17369 -0.12127,0.001 -0.22048,0.11515 -0.22048,0.25259 0,0.13743 0.0992,0.28992 0.22048,0.33885 0.17639,0.0712 0.17639,0.0918 0,0.10289 -0.12127,0.008 -0.22048,0.12638 -0.22048,0.26381 0,0.13744 0.0992,0.28992 0.22048,0.33886 0.17639,0.0712 0.17639,0.0917 0,0.10289 -0.12127,0.008 -0.22048,0.12637 -0.22048,0.26381 0,0.13744 0.0992,0.28992 0.22048,0.33885 0.17639,0.0712 0.17639,0.0918 0,0.10289 -0.12127,0.008 -0.22048,0.12638 -0.22048,0.26381 0,0.13744 0.0992,0.28992 0.22048,0.33886 0.17639,0.0712 0.17639,0.0917 0,0.10289 -0.12127,0.008 -0.22048,0.12637 -0.22048,0.26381 0,0.13744 0.0992,0.28992 0.22048,0.33885 0.17639,0.0712 0.17639,0.0918 0,0.1029 -0.16597,0.0105 -0.22048,0.66811 -0.22048,2.65975 0,1.6463 -0.0666,2.64584 -0.17639,2.64584 -0.097,0 -0.17639,0.15875 -0.17639,0.35278 0,0.2587 -0.11759,0.35277 -0.44097,0.35277 -0.39688,0 -0.44098,-0.0705 -0.44098,-0.70555 0,-0.50957 -0.0735,-0.70556 -0.26458,-0.70556 -0.19109,0 -0.26458,0.19599 -0.26458,0.70556 0,0.635 -0.0441,0.70555 -0.44098,0.70555 -0.39687,0 -0.44097,-0.0705 -0.44097,-0.70555 0,-0.50957 -0.0735,-0.70556 -0.26458,-0.70556 -0.19109,0 -0.26458,0.19599 -0.26458,0.70556 0,0.635 -0.0441,0.70555 -0.44098,0.70555 -0.39687,0 -0.44097,-0.0705 -0.44097,-0.70555 z M 49.374667,130.48368 c -0.0078,-0.46081 -0.02572,-1.79034 -0.03977,-2.95451 -0.01464,-1.2124 -0.102758,-2.17203 -0.20627,-2.24626 -0.12089,-0.0867 -0.117456,-0.13048 0.01037,-0.13229 0.249796,-0.004 0.249796,-0.53104 0,-0.53457 -0.105099,-0.001 -0.08509,-0.0699 0.04446,-0.15201 0.299361,-0.18976 0.299361,-0.38276 0,-0.57252 -0.129553,-0.0821 -0.149562,-0.15053 -0.04446,-0.15201 0.249796,-0.004 0.249796,-0.53104 0,-0.53457 -0.105099,-10e-4 -0.07203,-0.0796 0.07349,-0.17369 0.235185,-0.15199 0.235185,-0.17158 0,-0.17639 -0.235185,-0.005 -0.235185,-0.0244 0,-0.17639 0.235185,-0.15198 0.235185,-0.17158 0,-0.17638 -0.235185,-0.005 -0.235185,-0.0244 0,-0.17639 0.235185,-0.15199 0.235185,-0.17159 0,-0.17639 -0.235185,-0.005 -0.235185,-0.0244 0,-0.17639 0.235185,-0.15199 0.235185,-0.17159 0,-0.17639 -0.235185,-0.005 -0.235185,-0.0244 0,-0.17639 0.235185,-0.15199 0.235185,-0.17159 0,-0.17639 -0.235185,-0.005 -0.235185,-0.0244 0,-0.17639 0.235185,-0.15198 0.235185,-0.17158 0,-0.17638 -0.235185,-0.005 -0.235185,-0.0244 0,-0.17639 0.235185,-0.15199 0.235185,-0.17159 0,-0.17639 -0.235185,-0.005 -0.235185,-0.0244 0,-0.17639 0.235185,-0.15199 0.235185,-0.17159 0,-0.17639 -0.235185,-0.005 -0.235185,-0.0244 0,-0.17639 0.235185,-0.15199 0.235185,-0.17159 0,-0.17639 -0.235185,-0.005 -0.235185,-0.0244 0,-0.17639 0.235185,-0.15199 0.235185,-0.17158 0,-0.17639 -0.235185,-0.005 -0.235185,-0.0244 0,-0.17638 0.235185,-0.15199 0.235185,-0.17159 0,-0.17639 -0.235185,-0.005 -0.235185,-0.0244 0,-0.17639 0.235185,-0.15199 0.235185,-0.17159 0,-0.17639 -0.235185,-0.005 -0.235185,-0.0244 0,-0.17639 0.145521,-0.094 0.178594,-0.1722 0.0735,-0.17369 -0.249796,-0.004 -0.249796,-0.53104 0,-0.53457 0.12392,-0.002 0.129087,-0.0482 0.0147,-0.13229 -0.265789,-0.19527 -0.294629,-0.57019 -0.0441,-0.57326 0.164892,-0.002 0.161093,-0.0404 -0.01506,-0.15201 -0.129554,-0.0821 -0.235552,-0.21094 -0.235552,-0.28626 0,-0.0753 0.105998,-0.20414 0.235552,-0.28626 0.138137,-0.0876 0.154144,-0.15043 0.03871,-0.15201 -0.221993,-0.003 -0.361312,-31.771252 -0.141841,-32.343186 0.08919,-0.232435 0.160188,-0.261188 0.257225,-0.104177 0.09145,0.147966 0.222278,0.04621 0.4118,-0.320285 0.405114,-0.783402 1.619501,-1.752512 2.70499,-2.158645 0.915881,-0.342675 1.357851,-0.354092 13.595941,-0.351217 l 12.649287,0.003 -0.562666,0.360418 c -0.75712,0.484975 -1.289418,1.631021 -1.289418,2.776135 v 0.914448 H 65.528468 54.151384 v 23.018749 23.01875 h -2.38125 -2.38125 z M 77.526871,89.358997 c -0.137749,-0.627169 0.05808,-2.134687 0.277293,-2.134687 0.233494,0 0.364207,0.721975 0.303001,1.673596 -0.06285,0.977279 -0.406881,1.250636 -0.580294,0.461091 z m 55.058779,-0.312002 c -0.19778,-0.197782 -0.13055,-2.146637 0.0785,-2.275845 0.2937,-0.18152 0.50371,0.274424 0.50674,1.100192 0.004,1.067624 -0.22781,1.53311 -0.58526,1.175653 z M 78.84583,84.74327 c 0,-1.064048 0.609976,-1.736225 1.5875,-1.749384 0.77605,-0.01045 0.96238,-0.136336 1.179153,-0.796659 l 0.173716,-0.529167 8.451691,0.06159 c 4.64843,0.03387 15.17201,0.120388 23.38573,0.192252 l 14.93404,0.130663 0.55762,0.469207 c 0.36921,0.310666 0.76436,0.469206 1.16947,0.469206 0.87356,0 1.47775,0.645779 1.47775,1.579482 v 0.713573 l -23.32743,-0.04271 -23.327434,-0.04271 21.667034,-0.08958 21.66703,-0.08958 0.4347,-0.505392 c 0.23908,-0.277965 0.40982,-0.635153 0.37942,-0.79375 -0.0696,-0.362837 -3.98697,-0.446656 -29.90478,-0.639858 L 81.138886,82.944688 v 0.542475 c 0,0.753253 0.655733,1.458125 1.509318,1.622422 0.484286,0.09322 0.01247,0.140039 -1.553415,0.154163 l -2.248959,0.02028 z m 5.434983,0.420269 c 0.127331,-0.05095 0.279466,-0.04469 0.338079,0.01393 0.05861,0.05861 -0.04557,0.100302 -0.231511,0.09264 -0.205483,-0.0085 -0.247279,-0.05026 -0.106568,-0.106568 z m 24.198357,-7.9417 c -0.46705,-0.08118 -0.88195,-0.494771 -0.88195,-0.879158 0,-0.159234 0.27173,-0.230871 0.87574,-0.230871 0.70619,0 0.91372,0.07097 1.07191,0.366561 0.38745,0.723954 0.0752,0.941785 -1.0657,0.743468 z m -7.55235,-0.536765 c 0.0528,-0.459196 0.10991,-0.487891 1.07005,-0.537969 0.55783,-0.02909 1.01424,-0.01299 1.01424,0.0358 0,0.04878 -0.0921,0.290869 -0.2047,0.537969 -0.17887,0.392568 -0.31392,0.449272 -1.07005,0.449272 -0.83996,0 -0.86371,-0.01423 -0.80954,-0.48507 z"
         id="path1" /></g></g></svg>
