<?xml version="1.0" encoding="UTF-8" standalone="no"?>
<!-- Created with Inkscape (http://www.inkscape.org/) -->

<svg
   width="191.5266mm"
   height="172.26276mm"
   viewBox="0 0 191.5266 172.26276"
   version="1.1"
   id="svg1"
   xml:space="preserve"
   inkscape:version="1.4 (e7c3feb1, 2024-10-09)"
   sodipodi:docname="share.svg"
   xmlns:inkscape="http://www.inkscape.org/namespaces/inkscape"
   xmlns:sodipodi="http://sodipodi.sourceforge.net/DTD/sodipodi-0.dtd"
   xmlns="http://www.w3.org/2000/svg"
   xmlns:svg="http://www.w3.org/2000/svg"><sodipodi:namedview
     id="namedview1"
     pagecolor="#ffffff"
     bordercolor="#000000"
     borderopacity="0.25"
     inkscape:showpageshadow="2"
     inkscape:pageopacity="0.0"
     inkscape:pagecheckerboard="0"
     inkscape:deskcolor="#d1d1d1"
     inkscape:document-units="mm"
     inkscape:zoom="0.49481345"
     inkscape:cx="528.48199"
     inkscape:cy="399.14032"
     inkscape:window-width="1440"
     inkscape:window-height="900"
     inkscape:window-x="0"
     inkscape:window-y="0"
     inkscape:window-maximized="0"
     inkscape:current-layer="layer1" /><defs
     id="defs1" /><g
     inkscape:label="Layer 1"
     inkscape:groupmode="layer"
     id="layer1"
     transform="translate(-9.0434898,-62.373435)"><path
       id="path22"
       style="fill:#070606;stroke-width:2.05634"
       d="m 92.458336,118.98267 c -1.098026,0.002 -1.736336,0.0144 -1.762945,0.0415 -0.08246,0.0825 -0.325293,9.77628 -0.539811,21.54196 -0.214518,11.76568 -0.485421,23.84907 -0.60146,26.85199 l -0.211475,5.45987 -1.630085,0.865 c -2.341025,1.24191 -3.518385,2.92778 -3.510982,5.0263 0.0062,1.90611 0.67154,3.39363 2.718241,6.07833 l 1.412256,1.85219 -0.956385,1.70981 c -0.654864,1.1717 -0.945322,2.21236 -0.923443,3.30269 0.0839,4.17909 4.760273,9.39046 12.915394,14.39353 1.207959,0.74104 2.399839,1.35402 2.649189,1.36019 0.97144,0.0273 0.45698,-4.99178 -0.83206,-8.11329 -0.27802,-0.67329 -0.25725,-0.67394 0.8225,-0.0362 1.62118,0.95766 2.27724,0.54343 2.27724,-1.43775 v -1.64393 h 6.6883 c 3.67886,0 6.77469,-0.13942 6.87956,-0.30923 0.22176,-0.35881 -5.30889,-0.77473 -10.33741,-0.77679 l -3.47911,-0.002 -0.45587,-1.54189 c -0.91499,-3.09393 -3.39506,-7.30253 -5.635206,-9.56169 -2.800926,-2.82468 -5.629909,-4.34566 -5.629909,-3.02641 0,0.1421 0.530126,0.47753 1.178491,0.74491 2.591105,1.06862 6.446278,5.52118 8.247184,9.52557 1.51764,3.37454 1.6219,3.85624 0.84481,3.87865 -0.57498,0.0165 -0.55456,0.0911 0.15731,0.58764 0.60818,0.42425 0.8161,0.92828 0.8161,1.97652 0,0.77364 -0.10714,1.40693 -0.23802,1.40693 -1.68458,0 -16.166477,-14.48982 -17.582538,-17.59209 -1.315135,-2.88112 -0.66568,-5.12494 1.979705,-6.84024 l 1.471767,-0.95427 0.480321,1.14129 c 0.263911,0.62766 0.538145,1.0757 0.609952,0.9957 0.07177,-0.08 0.343986,-12.77318 0.604648,-28.20685 l 0.473946,-28.06129 10.543569,0.22527 c 5.79891,0.124 14.41937,0.32457 19.15735,0.44631 l 8.61488,0.22104 -0.0276,4.94555 c -0.0144,2.71959 -0.23339,15.39036 -0.48458,28.15797 -0.38044,19.34029 -0.3761,23.30232 0.0276,23.74482 0.4075,0.44649 0.48717,-0.0736 0.50156,-3.26445 0.008,-2.08756 0.23496,-15.13899 0.50156,-29.00383 0.26671,-13.86482 0.40815,-25.29006 0.31561,-25.38979 -0.17849,-0.19227 -30.364,-0.73058 -38.050133,-0.71941 z m -3.640635,68.49388 c 0.330969,-0.0206 0.571253,0.24736 0.498376,0.63226 0.02283,0.0164 0.04606,0.0333 0.07012,0.0543 0.0062,0.004 0.01028,0.008 0.01645,0.0103 0.138598,0.11063 0.112071,0.0995 0.247605,0.20194 0.02385,0.0216 0.367201,0.34637 0.188155,0.18589 0.0985,0.089 0.180958,0.18363 0.234855,0.24547 0.095,0.10549 0.178285,0.21772 0.267777,0.32835 0.09685,0.13202 0.185688,0.2699 0.261403,0.41549 0.08781,0.15751 0.19597,0.30475 0.294366,0.45589 0.12338,0.1898 0.241332,0.3834 0.352786,0.5802 0.09562,0.16821 0.20399,0.32876 0.295415,0.49944 0.08451,0.15382 0.194119,0.2942 0.266728,0.4548 0.06272,0.11804 0.120296,0.2384 0.193502,0.35067 0.07321,0.10158 0.146206,0.2007 0.236973,0.28799 0.08205,0.0888 0.168004,0.17006 0.264611,0.24335 0.08781,0.0829 0.187127,0.15299 0.280526,0.22953 0.118034,0.0878 0.260066,0.14024 0.378306,0.22846 0.158133,0.0907 0.324923,0.1678 0.463315,0.28904 0.08863,0.0769 0.188772,0.1351 0.291158,0.19227 0.159161,0.0952 0.3117,0.20049 0.461197,0.31028 0.128316,0.11084 0.254123,0.22359 0.366605,0.35067 0.07259,0.10096 0.158133,0.17952 0.236981,0.27524 0.07403,0.0872 0.143122,0.17911 0.222085,0.26247 0.104257,0.11454 0.218487,0.22024 0.307115,0.34855 0.107959,0.13778 0.223998,0.26687 0.331545,0.40485 0.118034,0.14971 0.231812,0.30266 0.337919,0.4612 0.05203,0.10405 0.169237,0.17047 0.227411,0.26992 0.06334,0.0814 0.126054,0.15834 0.202961,0.22527 0.09932,0.0886 0.199671,0.1752 0.307115,0.25398 0.11824,0.0874 0.231401,0.18178 0.357043,0.25715 0.14415,0.0987 0.29778,0.18219 0.437817,0.28692 0.161217,0.10939 0.334937,0.20028 0.505819,0.29329 0.192063,0.0905 0.377299,0.1896 0.556817,0.30286 0.130784,0.0837 0.311968,0.18651 0.33685,0.20502 0.132634,0.0841 0.260971,0.15669 0.380445,0.27417 0.100555,0.11043 0.211083,0.21043 0.282644,0.3443 0.051,0.0944 0.09356,0.19165 0.121119,0.29541 0.05285,0.12482 0.09624,0.25381 0.112694,0.38892 0.0378,0.13428 0.12235,0.24962 0.15833,0.38575 0.0432,0.15484 0.095,0.30688 0.12441,0.46543 0.0485,0.16656 0.10056,0.33173 0.13716,0.50158 0.0267,0.146 0.0401,0.29373 0.0658,0.43994 0.0455,0.214 0.10693,0.42502 0.13182,0.64289 0.0312,0.22322 0.058,0.44555 0.0456,0.67158 10e-5,0.11886 3.1e-4,0.23821 10e-4,0.35707 0,0.0831 1.4e-4,0.16656 0.004,0.24972 0.002,0.0635 0.008,0.12667 0.0212,0.18918 0.0185,0.10241 0.0419,0.20358 0.0765,0.30179 0.0302,0.10076 0.0504,0.20379 0.0925,0.30072 0.0551,0.16101 0.0827,0.32521 0.11803,0.49096 0.0487,0.19288 0.10961,0.3833 0.15526,0.57701 0.0123,0.0421 0.0736,0.24966 0.0722,0.25079 -0.80969,0.64552 -0.64158,0.87292 -0.94683,0.61632 -0.045,-0.0345 -0.2168,-0.18116 -0.22103,-0.19658 -0.06375,-0.0426 -0.08966,-0.0662 -0.115778,-0.0691 -0.296175,-0.16348 -0.01028,-0.0319 -0.272054,-0.16163 -0.119268,-0.0763 -0.237734,-0.15731 -0.343224,-0.25184 0.05079,0.0144 -0.209686,-0.15073 -0.219968,-0.17952 -0.117211,-0.1022 -0.267201,-0.16328 -0.376187,-0.27629 -0.115361,-0.088 -0.227103,-0.17973 -0.345343,-0.26354 0.105079,0.0677 -0.215381,-0.16801 -0.213592,-0.17212 -0.04565,-0.0455 -0.108781,-0.0705 -0.158339,-0.11166 -0.151141,-0.0847 -0.154637,-0.0954 -0.319864,-0.17417 -0.105696,-0.0658 -0.210447,-0.13387 -0.307095,-0.21255 -0.07279,-0.0405 -0.154431,-0.0652 -0.227411,-0.10837 0.03372,0.004 0.01234,0.002 -0.04668,-0.0165 -0.09726,-0.031 -0.192474,-0.0689 -0.283714,-0.11474 0.01028,0.002 0.0401,0.0123 0.02982,0.008 -0.115566,-0.0452 -0.231606,-0.087 -0.331544,-0.16368 -0.106313,-0.0784 -0.239667,-0.12297 -0.332614,-0.22209 -0.120296,-0.0958 -0.18322,-0.15052 -0.303928,-0.23697 -0.07752,-0.06 -0.152992,-0.12338 -0.230578,-0.18486 -0.112893,-0.0868 -0.218239,-0.16143 -0.31242,-0.25715 -0.0438,-0.0481 -0.09377,-0.0882 -0.141271,-0.13387 -0.101172,-0.0796 -0.195147,-0.16718 -0.290117,-0.25396 -0.095,-0.0827 -0.195764,-0.15792 -0.291158,-0.24016 0.04174,0.0224 0.01028,0.006 -0.04565,-0.0372 -0.03701,-0.0284 -0.140654,-0.11433 -0.173144,-0.14127 -0.01028,-0.008 -0.01851,-0.0185 -0.02982,-0.0275 -0.05367,-0.0487 -0.125848,-0.0862 -0.169032,-0.13716 -0.142504,-0.0639 -0.274357,-0.14209 -0.400617,-0.23377 -0.05881,-0.0395 -0.111042,-0.0695 -0.234855,-0.14764 -0.140242,-0.0771 -0.1752,-0.10467 -0.306046,-0.17952 -0.12482,-0.0837 -0.157927,-0.10816 -0.309212,-0.21252 -0.112893,-0.0884 -0.227432,-0.1752 -0.329426,-0.27629 -0.07773,-0.0837 -0.16677,-0.15526 -0.232717,-0.24973 -0.09562,-0.11824 -0.192063,-0.23329 -0.247604,-0.37723 -0.01234,-0.0304 -0.02426,-0.0602 -0.07341,-0.12009 -0.07794,-0.10776 -0.147645,-0.22137 -0.21678,-0.33262 -0.0765,-0.10796 -0.159983,-0.20966 -0.24016,-0.31454 -0.01851,-0.0267 -0.203578,-0.28221 -0.124409,-0.17314 -0.10693,-0.10899 -0.12811,-0.15176 -0.200905,-0.22315 -0.08719,-0.0874 -0.204195,-0.14025 -0.293276,-0.23165 -0.156076,-0.14292 -0.317499,-0.27909 -0.48139,-0.41337 -0.125643,-0.11515 -0.25801,-0.22167 -0.38468,-0.3358 -0.08986,-0.0884 -0.186305,-0.17828 -0.268847,-0.29648 -0.0841,-0.10447 -0.161012,-0.21343 -0.255028,-0.31028 -0.104668,-0.12873 -0.204195,-0.2619 -0.281596,-0.40913 -0.04915,-0.10221 -0.132223,-0.18652 -0.182809,-0.28904 -0.08616,-0.14395 -0.163068,-0.29188 -0.22848,-0.44631 -0.05511,-0.12811 -0.103023,-0.25812 -0.15402,-0.38787 -0.05305,-0.15176 -0.09562,-0.30703 -0.155254,-0.45694 -0.03126,-0.11392 -0.07629,-0.22307 -0.114744,-0.33473 -0.02056,-0.0843 -0.09398,-0.17911 -0.106313,-0.27627 -0.03414,-0.10323 -0.0985,-0.19597 -0.124409,-0.30286 -0.01851,-0.11104 -0.120296,-0.19967 -0.126465,-0.31561 -0.0401,-0.11721 -0.08102,-0.23436 -0.08925,-0.35918 -0.01851,-0.0884 -0.0327,-0.17788 -0.07341,-0.25929 -0.06663,-0.1571 -0.118651,-0.31891 -0.171088,-0.48137 -0.02879,-0.12255 -0.07937,-0.23728 -0.126465,-0.35387 -0.07588,-0.22209 -0.135719,-0.44903 -0.165742,-0.68221 -0.0473,-0.25002 -0.09171,-0.49961 -0.113716,-0.75341 -0.02488,-0.18404 -0.03496,-0.36689 -0.02879,-0.55258 0.0021,-0.094 0.0021,-0.18877 0.0041,-0.28266 0.0041,-0.12256 0.0082,-0.24508 0.0255,-0.36661 0.02529,-0.16204 0.06333,-0.32223 0.124409,-0.47501 0.08184,-0.21014 0.175406,-0.4158 0.280547,-0.61526 0.111454,-0.18816 0.217685,-0.37985 0.352786,-0.55258 l -0.001,0.004 c 0.222805,-0.2846 0.46681,-0.41137 0.675838,-0.424 z m 0.807609,2.71719 c 5.14e-4,0.002 0.0016,0.006 0.0021,0.008 0.0041,0.0658 0.01645,0.12955 0.02858,0.1935 0.02241,-0.0164 0.04442,-0.0335 0.06704,-0.05 -0.03249,-0.0508 -0.06663,-0.10056 -0.09768,-0.15196 z m 4.719208,5.15914 c 0.0144,0.0206 0.02858,0.0387 0.04257,0.0584 0.04956,0.0543 0.102201,0.10549 0.152992,0.15834 -0.06189,-0.0759 -0.127082,-0.1425 -0.195558,-0.21678 z m 0.105285,1.75442 c 0.01234,0.0214 0.02591,0.0415 0.03825,0.0627 -0.0062,-0.0273 -0.01439,-0.0436 -0.03825,-0.0627 z m 5.11132,6.2271 c -0.05429,0.0609 -0.123175,0.11474 -0.205018,0.16163 0.0144,0.0103 0.02961,0.0245 0.04154,0.0329 0.02714,-0.0206 0.05141,-0.0366 0.0839,-0.0658 0.03681,-0.0331 0.06436,-0.0646 0.08719,-0.0967 -0.0021,-0.0103 -0.0062,-0.0212 -0.0082,-0.0319 z m 1.440967,1.37508 c 0.022,0.0185 0.0434,0.0395 0.0637,0.0607 0.0206,0.021 -0.0348,-0.064 -0.0637,-0.0607 z" /><g
       id="g1"
       transform="translate(177.90061,111.5172)"><g
         id="g14"
         inkscape:label="phone"
         transform="matrix(2.0563446,0,0,2.0563446,-289.614,-267.29858)"><path
           style="fill:#eac85e"
           d="m 105.30299,169.29447 c -0.65142,-0.0603 -0.73263,-0.12802 -1.03753,-0.86519 -0.77481,-1.8733 -2.45431,-3.83442 -3.94217,-4.60317 -0.922316,-0.47654 -0.955207,-0.48078 -1.197981,-0.15424 -0.287863,0.38718 -0.292259,0.37804 -0.585635,-1.2177 -0.144218,-0.78444 -0.128115,-4.23099 0.06222,-13.31736 0.141237,-6.74247 0.258433,-12.60511 0.260437,-13.02809 l 0.0036,-0.76906 6.835069,0.11001 c 3.75929,0.0605 7.89939,0.15741 9.20023,0.21536 l 2.36515,0.10536 -0.11667,7.43286 c -0.0642,4.08808 -0.16884,9.95796 -0.2326,13.0442 -0.11395,5.51583 -0.12164,5.60562 -0.45156,5.2757 -0.23789,-0.23789 -0.35241,-0.64504 -0.39322,-1.39796 -0.0743,-1.37049 -0.19166,-1.7137 -0.67286,-1.96729 -0.51056,-0.26906 -14.46044,-0.57983 -15.15932,-0.33771 -0.548036,0.18986 -0.605665,0.33387 -0.76029,1.89995 -0.133997,1.35716 0.02788,1.86477 0.86004,2.69693 l 0.61332,0.61332 5.17407,0.1285 c 2.84573,0.0707 5.63058,0.0998 6.18854,0.0647 0.81256,-0.0511 1.01445,-0.0112 1.01437,0.20076 -1.4e-4,0.3787 0.93757,2.27249 1.47991,2.98878 0.44211,0.58391 0.61201,1.24455 0.32007,1.24455 -0.077,0 -0.60931,0.39688 -1.183,0.88195 l -1.04306,0.88194 -3.44722,-0.0308 c -1.89597,-0.017 -3.76525,-0.0603 -4.15395,-0.0962 z m 2.91513,-0.31574 c 1.04024,-0.53793 1.21886,-1.88972 0.36281,-2.74577 -0.71729,-0.71729 -1.55858,-0.70734 -2.29305,0.0271 -0.86291,0.8629 -0.71989,2.15686 0.29954,2.71009 0.61868,0.33574 0.99416,0.33771 1.6307,0.009 z m -1.45693,-0.65963 c -0.72512,-0.55883 -0.27477,-1.89618 0.63853,-1.89618 0.63721,0 1.05005,0.4161 1.05005,1.05833 0,0.90397 -0.97503,1.38776 -1.68858,0.83785 z m 8.49615,-14.179 c 0.33233,-0.42248 0.36558,-0.70146 0.36558,-3.06726 0,-2.22313 -0.0453,-2.65849 -0.31099,-2.98656 -0.30572,-0.37755 -0.43322,-0.38708 -7.52205,-0.56239 -7.20902,-0.17828 -7.21116,-0.17823 -7.58241,0.19252 -0.336979,0.33653 -0.37662,0.60575 -0.428207,2.9082 -0.07057,3.14955 0.08846,3.61348 1.252007,3.6524 1.9002,0.0636 9.9563,0.26462 11.80072,0.29449 2.03264,0.0329 2.06458,0.0272 2.42535,-0.4314 z m -0.0674,-8.43486 c 0.42238,-0.42237 0.43296,-0.49967 0.43296,-3.1622 0,-2.68575 -0.007,-2.73465 -0.43187,-3.06895 -0.40333,-0.31725 -0.90026,-0.34824 -7.52053,-0.46896 -7.06214,-0.12878 -7.09006,-0.12787 -7.46154,0.24311 -0.340166,0.33972 -0.377817,0.60192 -0.429299,2.98963 -0.05446,2.52585 -0.04214,2.63354 0.352779,3.08364 l 0.40921,0.46638 6.08542,0.14738 c 3.34697,0.0811 6.54543,0.15988 7.10767,0.17515 0.87108,0.0237 1.08628,-0.0362 1.4552,-0.40518 z m -3.97824,-8.91101 c 0.56218,-0.35542 -0.17287,-0.4967 -2.90525,-0.55838 -2.55517,-0.0577 -2.82411,-0.0353 -2.87825,0.23985 -0.0537,0.2727 0.17851,0.30904 2.28936,0.35836 1.292,0.0302 2.54753,0.071 2.79006,0.0907 0.24254,0.0197 0.55937,-0.039 0.70408,-0.13052 z m -8.24421,31.31469 c -0.30816,-0.62492 -1.01659,-1.67409 -1.57428,-2.33149 -0.79918,-0.94207 -0.89417,-1.10996 -0.4484,-0.79254 0.78471,0.55876 2.86003,3.58103 2.86003,4.16503 0,0.37223 -0.363,-0.079 -0.83735,-1.041 z m 10.05406,-6.71308 c 0.002,-0.38806 0.0381,-0.52604 0.0803,-0.30663 0.0422,0.21941 0.0406,0.53691 -0.004,0.70556 -0.0442,0.16864 -0.0787,-0.0109 -0.0767,-0.39893 z m -12.69163,-0.79375 c 0,-0.53358 0.0331,-0.75186 0.0735,-0.48507 0.0404,0.26678 0.0404,0.70335 0,0.97013 -0.0404,0.26679 -0.0735,0.0485 -0.0735,-0.48506 z m 12.83746,-0.45568 c 0.008,-0.20548 0.0503,-0.24728 0.10657,-0.10656 0.051,0.12733 0.0447,0.27946 -0.0139,0.33807 -0.0586,0.0586 -0.1003,-0.0456 -0.0926,-0.23151 z m 1.73661,-0.20578 -0.42762,-0.48507 0.48507,0.42762 c 0.26679,0.23519 0.48507,0.45347 0.48507,0.48507 0,0.13834 -0.14284,0.0258 -0.54252,-0.42762 z m -5.76338,-0.70362 c 0.55783,-0.035 1.47064,-0.035 2.02847,0 0.55783,0.035 0.10142,0.0636 -1.01424,0.0636 -1.11566,0 -1.57206,-0.0286 -1.01423,-0.0636 z m -7.40834,-0.17569 c 0.46082,-0.0363 1.21488,-0.0363 1.6757,0 0.46081,0.0363 0.0838,0.0661 -0.83785,0.0661 -0.92163,0 -1.29866,-0.0297 -0.83785,-0.0661 z"
           id="path7" /><path
           style="fill:#daa438"
           d="m 103.80486,163.12231 c -2.73207,-0.0557 -3.10274,-0.11561 -3.32927,-0.53793 -0.15468,-0.28838 0.0625,-0.29997 3.65498,-0.195 2.10069,0.0614 4.99021,0.12091 6.42117,0.13229 2.47724,0.0197 2.60173,0.0376 2.60173,0.37347 0,0.34217 -0.10475,0.35162 -3.48368,0.31426 -1.91602,-0.0212 -4.55524,-0.0604 -5.86493,-0.0871 z m 4.58611,-1.30467 c -2.47385,-0.0591 -5.27182,-0.11858 -6.2177,-0.13229 l -1.7198,-0.0249 v -1.03674 c 0,-0.71731 0.0835,-1.10604 0.27103,-1.26166 0.21478,-0.17825 1.5411,-0.19867 6.39084,-0.0984 3.3659,0.0696 6.13655,0.14332 6.15701,0.16379 0.0205,0.0205 -0.0575,0.59078 -0.17313,1.26737 l -0.21033,1.23018 z m -8.947788,-1.39194 c 0,-0.43657 0.0344,-0.61516 0.07644,-0.39688 0.04204,0.21828 0.04204,0.57547 0,0.79375 -0.04204,0.21828 -0.07644,0.0397 -0.07644,-0.39687 z m 16.576998,-0.0882 c 0.002,-0.38805 0.0381,-0.52603 0.0803,-0.30662 0.0422,0.21941 0.0406,0.53691 -0.004,0.70555 -0.0442,0.16865 -0.0787,-0.0109 -0.0767,-0.39893 z m -1.15675,-0.54169 c -0.40055,-0.34676 -0.43418,-0.42793 -0.17639,-0.42575 0.4705,0.004 0.80262,0.2665 0.73275,0.57917 -0.0504,0.22538 -0.15079,0.19768 -0.55636,-0.15342 z m -16.482141,-2.28053 c 0.002,-0.38806 0.03808,-0.52604 0.08027,-0.30662 0.04219,0.21941 0.04059,0.53691 -0.0036,0.70555 -0.04415,0.16864 -0.07867,-0.0109 -0.07671,-0.39893 z m 12.084311,0.31622 c 0.21941,-0.0422 0.53691,-0.0406 0.70556,0.004 0.16864,0.0442 -0.0109,0.0787 -0.39894,0.0767 -0.38805,-0.002 -0.52603,-0.0381 -0.30662,-0.0803 z m -9.17222,-0.17639 c 0.21941,-0.0422 0.53691,-0.0406 0.70555,0.004 0.16865,0.0442 -0.0109,0.0787 -0.39893,0.0767 -0.38805,-0.002 -0.52603,-0.0381 -0.30662,-0.0803 z m 15.6123,-2.1683 c 0,-0.43657 0.0344,-0.61516 0.0764,-0.39688 0.0421,0.21828 0.0421,0.57547 0,0.79375 -0.042,0.21828 -0.0764,0.0397 -0.0764,-0.39687 z m -18.344442,-7.05556 c 0,-0.43656 0.0344,-0.61515 0.07644,-0.39687 0.04204,0.21828 0.04204,0.57547 0,0.79375 -0.04204,0.21828 -0.07644,0.0397 -0.07644,-0.39688 z m 18.520832,-2.64583 c 0,-0.43656 0.0344,-0.61516 0.0764,-0.39688 0.042,0.21828 0.042,0.57547 0,0.79375 -0.042,0.21828 -0.0764,0.0397 -0.0764,-0.39687 z m -18.348003,-6.4382 c 0.002,-0.38805 0.03808,-0.52603 0.08027,-0.30662 0.04219,0.21941 0.04059,0.53691 -0.0036,0.70555 -0.04415,0.16865 -0.07867,-0.0109 -0.07671,-0.39893 z m 11.464893,-2.50284 c 0.16977,-0.0444 0.44759,-0.0444 0.61736,0 0.16978,0.0444 0.0309,0.0807 -0.30868,0.0807 -0.33955,0 -0.47845,-0.0363 -0.30868,-0.0807 z m 7.05238,-0.58396 c 0,-0.33955 0.0363,-0.47846 0.0807,-0.30868 0.0444,0.16977 0.0444,0.44758 0,0.61736 -0.0444,0.16977 -0.0807,0.0309 -0.0807,-0.30868 z m -11.28571,-0.12634 c 0.26679,-0.0404 0.70335,-0.0404 0.97014,0 0.26678,0.0404 0.0485,0.0735 -0.48507,0.0735 -0.53358,0 -0.75186,-0.0331 -0.48507,-0.0735 z"
           id="path4" /></g><path
         style="fill:#070606;stroke-width:2.05634"
         d="M 9.3876283,39.19355 C 9.2560222,38.992234 8.9581402,36.870415 8.7257732,34.478249 7.3604221,20.422456 3.029596,7.9623031 -4.418155,-3.3379682 -7.6473151,-8.2374765 -9.6205833,-10.622178 -14.797266,-15.881135 -29.920981,-31.245217 -50.231394,-39.703497 -71.97041,-39.690933 c -8.565416,0.0041 -18.600951,1.478615 -24.043745,3.530682 -0.249369,0.09398 -0.453395,-0.06868 -0.453395,-0.361546 0,-0.87261 7.280825,-2.638661 14.690001,-3.563214 4.322847,-0.53942 15.049275,-0.530619 19.586702,0.01645 28.021499,3.376189 53.2125012,21.783249 64.5481006,47.1652654 4.0667709,9.1060696 5.9984804,16.1235306 7.0890216,25.7528576 0.4288096,3.78645 0.3987047,7.043494 -0.058606,6.344357 z"
         id="path31" /><path
         style="fill:#070606;stroke-width:2.05634"
         d="m -149.36328,68.848769 c -3.6364,-10.071523 -5.30009,-22.384828 -4.47241,-33.100994 0.52922,-6.851884 1.12457,-10.588633 1.65563,-10.39147 0.21904,0.08143 0.36023,0.323175 0.31375,0.537446 -0.0465,0.214271 -0.34119,2.471911 -0.6549,5.017008 -0.72852,5.910345 -0.72957,15.005763 -0.002,20.905165 0.58164,4.718673 2.43737,12.656266 3.79133,16.216744 0.82336,2.165125 0.93518,2.901728 0.44051,2.901728 -0.17521,0 -0.65736,-0.938536 -1.07152,-2.085627 z"
         id="path29" /><g
         id="g41"
         transform="matrix(2.0563446,0,0,2.0563446,-289.614,-267.29858)"><path
           style="fill:#ef8b73"
           d="m 139.7,165.00106 c -1.26849,-0.37234 -2.38125,-1.80491 -2.38125,-3.06564 0,-1.29079 1.34668,-2.99212 2.72967,-3.44855 1.05547,-0.34834 2.57259,-0.1544 3.56258,0.45541 0.77361,0.47653 0.87322,0.61542 1.08884,1.51822 0.20553,0.86051 0.20054,1.12031 -0.0373,1.93828 -0.6078,2.09075 -2.79605,3.23823 -4.96259,2.60228 z"
           id="path37" /><path
           id="path24"
           style="fill:#070606"
           d="m 138.28952,174.08725 c -4.70919,-1.29109 -7.92711,-5.26309 -8.16402,-10.07716 -0.10483,-2.13021 0.26574,-3.77636 1.26155,-5.60414 0.42022,-0.77131 0.8552,-1.43276 0.96662,-1.4699 0.34636,-0.11545 0.22428,0.30775 -0.31478,1.09124 -1.13544,1.65031 -1.73249,4.5471 -1.41505,6.8656 0.32952,2.40665 1.05008,3.89565 2.81958,5.82651 0.81533,0.88967 0.96485,0.98773 1.07582,0.70555 0.0709,-0.18025 0.13446,-0.50334 0.14128,-0.71798 0.007,-0.21465 0.17675,-0.82954 0.37763,-1.36643 0.5154,-1.37753 1.80803,-2.73652 3.19487,-3.3589 0.97305,-0.43668 1.06529,-0.5191 0.77094,-0.68883 -1.59796,-0.92146 -2.48431,-2.53948 -2.3446,-4.28001 0.30121,-3.75249 4.90929,-5.40142 7.47472,-2.67472 0.73378,0.77991 1.05624,1.46083 1.19744,2.52859 0.21665,1.63826 -0.62104,3.38532 -2.00518,4.18193 l -0.67751,0.38992 0.93715,0.47271 c 1.28865,0.65001 2.25474,1.40889 2.05186,1.61177 -0.10089,0.10089 -0.48308,-0.0798 -0.99448,-0.47016 l -0.83061,-0.63402 -0.38068,0.55909 c -0.74184,1.08953 -2.01017,1.61221 -3.19225,1.31553 -0.74789,-0.18771 -0.54169,-0.50564 0.24207,-0.37322 0.92249,0.15585 2.10155,-0.3653 2.5362,-1.12102 0.30838,-0.53616 0.30838,-0.56 0,-0.68635 -0.41698,-0.17085 -4.04346,-0.17029 -4.21416,6.4e-4 -0.0723,0.0724 -0.0421,0.32749 0.067,0.56697 0.12369,0.27146 0.13476,0.47474 0.0294,0.53986 -0.0929,0.0574 -0.25976,-0.0948 -0.37071,-0.3383 -0.19173,-0.42079 -0.22632,-0.43001 -0.69808,-0.18606 -1.34237,0.69417 -2.53831,2.55216 -2.77992,4.31883 l -0.1459,1.06687 1.07422,0.5962 c 1.70414,0.94583 2.90834,1.2312 5.13115,1.21596 2.16877,-0.0149 3.52317,-0.36584 5.13307,-1.33016 l 0.89972,-0.53894 -0.21544,-0.99291 c -0.1185,-0.54611 -0.27661,-1.22155 -0.35136,-1.50099 -0.10308,-0.38534 -0.0796,-0.48928 0.0973,-0.43032 0.31052,0.10351 0.66842,1.12881 0.68508,1.96263 0.0132,0.66004 0.0202,0.66675 0.4103,0.39472 0.67802,-0.47279 2.24374,-2.43422 2.68152,-3.35924 1.74931,-3.69628 1.15049,-8.50005 -1.41533,-11.35387 -0.98441,-1.0949 -2.72092,-2.4218 -3.77974,-2.88817 -3.47971,-1.53269 -7.82677,-0.94705 -10.85941,1.46299 -0.44323,0.35223 -0.71105,0.46905 -0.75729,0.33033 -0.12862,-0.38585 2.01111,-1.84987 3.53938,-2.42167 2.14731,-0.80342 5.2572,-0.82357 7.46277,-0.0484 3.15256,1.10803 5.64739,3.7012 6.80139,7.06947 0.47455,1.38509 0.56484,4.29232 0.18079,5.82083 -0.96088,3.82424 -4.11649,7.00637 -7.96312,8.03005 -1.20299,0.32014 -4.18253,0.31296 -5.37124,-0.0129 z m 4.47692,-9.24144 c 0.85138,-0.43434 1.68447,-1.37844 1.96414,-2.22584 0.12956,-0.39257 0.17844,-1.08595 0.12112,-1.71809 -0.12767,-1.40798 -0.76548,-2.33658 -2.05351,-2.98973 -3.91048,-1.98295 -7.61088,2.68827 -4.7259,5.96578 0.40093,0.45548 0.97088,0.93352 1.26654,1.0623 0.82746,0.36043 2.63355,0.31068 3.42761,-0.0944 z" /></g><g
         id="g42"
         transform="matrix(2.0563446,0,0,2.0563446,-289.614,-267.29858)"><path
           style="fill:#ef8b73"
           d="m 73.241994,125.43705 c -1.384198,-0.58345 -2.165129,-1.21503 -2.875588,-2.32566 -1.231489,-1.92512 -1.20707,-3.50303 0.08515,-5.50234 2.009884,-3.10969 5.829893,-3.91615 9.030024,-1.90637 1.227509,0.77091 1.857889,1.65936 2.126557,2.99716 0.375817,1.87133 -0.265308,3.87217 -1.700687,5.30755 -1.222859,1.22286 -2.372783,1.72054 -4.148421,1.79541 -1.280694,0.054 -1.647699,6.7e-4 -2.517034,-0.36575 z"
           id="path41" /><path
           id="path32"
           style="fill:#070606"
           d="m 72.522374,139.70362 c -6.607272,-1.38051 -11.652567,-6.14491 -13.359185,-12.61542 -0.579302,-2.19638 -0.586509,-6.00436 -0.01536,-8.11389 0.44855,-1.65672 1.841586,-4.7625 2.13612,-4.7625 0.271108,0 0.255682,0.0482 -0.495025,1.54731 -1.167519,2.33144 -1.62165,4.42133 -1.626584,7.48545 -0.0082,5.07893 2.476864,9.93728 6.718908,13.13572 0.227093,0.17123 0.271604,0.0456 0.314132,-0.88623 0.145013,-3.17756 1.648724,-5.87111 4.339325,-7.77291 0.59355,-0.41954 1.512851,-0.92209 2.042891,-1.11679 l 0.96371,-0.35399 -0.875515,-0.44466 c -2.751006,-1.39719 -4.244336,-4.22649 -3.776497,-7.15505 0.556592,-3.48412 3.567617,-5.86397 7.129961,-5.63535 3.727049,0.23919 6.523084,3.53635 6.218338,7.33285 -0.168531,2.09955 -1.714228,4.38414 -3.605128,5.3285 l -0.803628,0.40135 1.129813,0.3728 c 0.621398,0.20504 1.585833,0.63223 2.143189,0.94932 1.050821,0.59782 2.418299,1.72969 2.418299,2.00165 0,0.34177 -0.444911,0.11796 -1.235474,-0.62152 -0.457097,-0.42757 -1.151774,-0.94099 -1.543727,-1.14095 l -0.712641,-0.36356 -0.463296,0.94694 c -0.783483,1.60138 -2.392951,2.50956 -4.108027,2.31804 -1.006176,-0.11236 -1.814614,-0.41495 -1.814614,-0.6792 0,-0.0936 0.176644,-0.11414 0.396875,-0.0462 1.541947,0.47577 2.856327,0.37032 3.898882,-0.31279 0.654906,-0.42911 1.361077,-1.43136 1.401477,-1.98908 0.03158,-0.43599 -0.05032,-0.5148 -0.758345,-0.72974 -1.457892,-0.44259 -4.481515,-0.27537 -6.041319,0.33412 -0.5623,0.21971 -0.5834,0.32688 -0.20748,1.05383 0.152674,0.29524 0.22662,0.58777 0.164325,0.65006 -0.136184,0.13619 -0.785211,-0.67135 -0.79077,-0.98389 -0.0022,-0.12127 -0.09251,-0.22049 -0.200777,-0.22049 -0.380393,0 -1.881715,1.24093 -2.691792,2.22492 -1.429653,1.73659 -2.063519,3.41241 -2.275251,6.01533 -0.07267,0.89333 -0.05636,0.93225 0.560151,1.33684 1.702204,1.11709 4.23483,1.94189 6.896802,2.24607 3.596497,0.41098 7.348433,-0.47307 10.441886,-2.46035 l 1.357858,-0.87231 -0.10384,-0.67337 c -0.05711,-0.37036 -0.254476,-1.229 -0.438587,-1.9081 -0.184112,-0.6791 -0.380642,-1.41332 -0.436734,-1.6316 -0.182026,-0.70835 0.254108,-0.42066 0.534808,0.35278 0.445129,1.2265 0.637028,2.11341 0.63807,2.94899 l 9.84e-4,0.78823 1.071024,-1.05281 c 2.219605,-2.18186 3.838917,-4.9343 4.614647,-7.84378 0.510319,-1.91403 0.548279,-5.88934 0.07495,-7.84931 -1.863116,-7.71487 -9.109716,-13.16901 -16.896273,-12.71696 -3.850027,0.22352 -6.905663,1.40275 -9.79642,3.78064 -0.629481,0.5178 -1.190648,0.89532 -1.247038,0.83893 -0.29436,-0.29436 2.390759,-2.37427 4.318243,-3.34493 3.733944,-1.88039 8.854141,-2.24597 12.71442,-0.90782 5.618275,1.94755 9.427464,5.8946 11.067659,11.46819 0.572291,1.94472 0.772717,5.34686 0.437435,7.42526 -0.651488,4.03855 -2.905548,7.90479 -6.069376,10.4104 -1.650904,1.30744 -4.368323,2.71119 -6.286496,3.24744 -1.74862,0.48886 -5.720962,0.62902 -7.469988,0.26358 z m 5.202301,-14.12368 c 1.565798,-0.55245 3.053999,-2.06801 3.687227,-3.75501 0.297049,-0.79138 0.361744,-1.29129 0.31184,-2.40965 -0.110684,-2.48043 -1.373702,-4.35679 -3.659273,-5.43629 -0.946873,-0.44722 -1.354627,-0.53643 -2.469444,-0.54029 -2.341675,-0.008 -4.067348,0.90741 -5.357557,2.84231 -2.374925,3.56161 -0.367434,8.49993 3.889244,9.56733 0.83848,0.21026 2.617423,0.0776 3.597963,-0.2684 z"
           sodipodi:nodetypes="sssssssssscssssscssssscssscssssssssssssscssssscsssssssssssssssssscsss" /></g><path
         id="path19"
         style="fill:#070606;stroke-width:2.05634"
         d="m -138.4787,106.0925 c -7.7992,-1.53483 -13.49949,-9.991264 -12.12882,-17.99322 0.45651,-2.665084 2.45993,-7.008824 3.2326,-7.008824 0.66006,0 0.62694,0.158955 -0.36064,1.730105 -1.40056,2.228214 -2.09645,4.876375 -2.0896,7.951946 0.008,4.132759 1.42231,7.598296 4.17868,10.247813 1.04662,1.00607 1.30037,1.12046 1.30037,0.58616 0,-2.526073 2.86636,-6.642279 5.2174,-7.492433 l 1.19046,-0.430475 -1.54927,-1.549271 c -5.83017,-5.830169 2.30909,-14.617381 8.62046,-9.306707 1.4159,1.191405 2.11775,2.841704 2.11775,4.97948 0,2.06056 -0.67533,3.409069 -2.43272,4.857661 -1.00284,0.82663 -1.18664,1.12079 -0.70029,1.12079 0.84195,0 3.47777,1.850176 3.48798,2.448346 0.0107,0.621715 -0.2223,0.573206 -1.38882,-0.289246 l -1.00448,-0.742649 -1.36431,1.286717 c -1.0066,0.949332 -1.6848,1.286716 -2.58659,1.286716 -1.75924,0 -1.87245,-0.593605 -0.16533,-0.866584 1.3591,-0.217335 2.89003,-1.273001 2.89003,-1.992845 0,-0.67115 -3.52783,-1.027494 -5.34658,-0.540037 -0.64403,0.172527 -0.76757,0.397368 -0.59544,1.0832 0.25528,1.01713 -0.1316,1.130002 -0.79062,0.230639 -0.43917,-0.599383 -0.52221,-0.592391 -1.49085,0.125643 -1.59272,1.180589 -3.04226,3.785114 -3.12762,5.619685 -0.0744,1.59819 -0.0726,1.60068 1.92048,2.5937 3.73698,1.86196 8.60406,1.90091 12.61486,0.10097 2.47121,-1.10901 2.71737,-1.65963 1.85186,-4.142422 -0.22256,-0.638434 -0.30145,-1.263994 -0.17532,-1.390131 0.41991,-0.419905 0.95532,0.481535 1.22529,2.062923 l 0.26685,1.56319 1.55106,-1.5892 c 4.04297,-4.142342 5.05764,-10.830459 2.493,-16.432353 -1.11609,-2.437878 -4.54655,-5.855358 -7.02017,-6.993627 -3.99792,-1.839709 -9.111,-1.8058 -13.02495,0.08637 -2.05377,0.992885 -2.32151,1.055028 -2.32151,0.538906 0,-0.195352 0.67436,-0.699383 1.49857,-1.119864 5.02585,-2.563995 10.72838,-2.382193 15.64434,0.498766 3.22126,1.887765 5.90461,5.392455 6.99162,9.131609 0.95058,3.269897 0.62488,7.699715 -0.78762,10.712342 -3.24126,6.913031 -10.34626,10.511391 -17.84222,9.036251 z m 6.35963,-13.744956 c 1.36418,-0.831791 2.64434,-3.131134 2.64434,-4.749601 0,-2.881823 -2.52139,-5.419331 -5.38489,-5.419331 -5.63154,0 -7.80148,6.804094 -3.20999,10.065374 1.49623,1.062781 4.29741,1.111516 5.95054,0.10364 z" /><path
         id="path14"
         style="fill:#070606;stroke-width:2.05634"
         d="m -97.128192,42.691104 c -0.81787,0.02673 -1.622838,0.751635 -2.090223,1.975448 -1.419165,3.716021 0.347853,8.312378 4.973181,12.937714 1.88991,1.889904 3.040747,2.800639 3.144367,2.489781 0.08988,-0.269628 -0.958218,-1.601029 -2.329318,-2.959471 -4.354255,-4.314066 -6.037683,-8.255026 -5.044378,-11.808122 0.664183,-2.375818 1.614397,-2.150052 4.959366,1.175304 2.039067,2.027123 2.851077,2.638187 2.851077,2.147605 0,-0.597286 -4.277962,-4.944255 -5.653274,-5.744666 -0.263407,-0.153198 -0.538174,-0.222538 -0.810798,-0.213593 z M -78.6371,57.205767 c -6.964991,0.01645 -6.223913,0.747872 -6.223913,4.479048 0,4.260931 0.158729,4.395909 5.49387,4.669279 2.265289,0.116184 8.158588,0.275551 13.096056,0.354926 7.445222,0.119884 8.977219,0.05963 8.977219,-0.353877 0,-0.381123 -0.70621,-0.505305 -2.992413,-0.521756 -7.477301,-0.05655 -23.160897,-0.619022 -23.380309,-0.838433 -0.353335,-0.353322 -0.126053,-6.151781 0.256098,-6.535269 0.177668,-0.178285 2.57588,-0.302365 5.33023,-0.275221 7.085114,0.07012 23.325054,0.503866 23.325054,0.622723 0,0.0547 -0.263849,1.129118 -0.586572,2.388814 -0.985524,3.846927 -0.09747,8.368397 2.447276,12.458466 1.096793,1.762863 1.115403,1.865002 0.670513,3.627865 -0.251738,0.997471 -0.866441,2.221654 -1.366544,2.720379 -1.541333,1.53718 -2.946516,5.023403 -3.363275,8.347073 -0.408863,3.260828 -0.256159,5.910592 0.630146,10.967575 h -0.0011 c 0.387086,2.208741 0.710241,3.173041 1.062657,3.173041 0.62227,0 0.622085,0.0625 -0.01234,-3.264445 -1.623546,-8.507838 -0.689307,-15.306936 2.562041,-18.654726 0.714785,-0.736007 1.213428,-1.42408 1.108349,-1.52916 -0.105079,-0.105079 0.04421,-0.982624 0.331544,-1.949949 l 0.521757,-1.758668 -1.469629,-2.273001 c -0.808123,-1.250299 -1.711783,-3.108 -2.008411,-4.128379 -0.681,-2.342732 -0.771129,-6.495191 -0.179519,-8.287583 l 0.453753,-1.372939 0.869238,0.816122 c 0.478161,0.449209 0.869237,1.176764 0.869237,1.616287 0,0.439544 0.244849,1.002365 0.544088,1.250731 0.471705,0.391486 0.544068,0.201316 0.544068,-1.430332 0,-2.361054 -0.408226,-3.132121 -1.90107,-3.587478 -0.649887,-0.198232 -7.742528,-0.465063 -15.761161,-0.592968 -4.347113,-0.0693 -7.524803,-0.143533 -9.846477,-0.138186 z m 31.161023,7.728627 c -0.308945,0.190829 0.914189,1.665598 3.881844,4.68096 2.526363,2.567017 4.431155,4.810263 4.568313,5.381228 0.148674,0.619021 -0.08184,1.952746 -0.626959,3.626816 -0.474275,1.456406 -0.982973,3.19815 -1.129591,3.870143 -0.486654,2.232059 0.604524,1.080712 1.348489,-1.422867 1.199631,-4.033787 1.486779,-5.609091 1.218857,-6.676601 -0.346124,-1.379047 -8.635557,-9.846189 -9.260953,-9.459679 z m -21.182775,8.801895 c -1.600741,-0.01028 -3.215959,1.108103 -3.275079,3.363275 -0.0327,1.245117 0.144973,1.682439 0.972322,2.39414 2.223094,1.912216 5.489618,0.511125 5.489618,-2.354823 0,-2.255501 -1.586121,-3.392804 -3.186861,-3.402592 z m -0.02756,0.861794 c 0.511248,-0.0082 1.018363,0.226609 1.530208,0.703475 1.113099,1.036953 1.041024,2.640532 -0.161629,3.586429 -0.525622,0.41347 -1.1562,0.751286 -1.401625,0.751286 -0.245445,0 -0.877051,-0.337816 -1.402694,-0.751286 -1.212483,-0.953773 -1.26165,-2.461094 -0.115772,-3.53755 0.525169,-0.493399 1.040202,-0.744191 1.55145,-0.752354 z m -19.001161,2.86383 c 0.0417,0.05244 0.08495,0.103639 0.127514,0.156282 0.09689,0.132017 0.185729,0.269895 0.261411,0.415484 0.08787,0.157516 0.196052,0.30475 0.294353,0.455892 0.12336,0.1898 0.241343,0.383405 0.352797,0.580197 0.09558,0.168209 0.203907,0.328769 0.295417,0.499445 0.08458,0.153815 0.194139,0.294202 0.266724,0.454802 0.06272,0.118034 0.120399,0.238392 0.193399,0.350668 0.0731,0.101584 0.146288,0.2007 0.236969,0.287992 0.08205,0.08883 0.167962,0.170059 0.2646,0.243347 0.08787,0.08287 0.187189,0.152992 0.280537,0.22953 0.118014,0.0878 0.260064,0.140242 0.378304,0.228459 0.158153,0.09068 0.324921,0.167798 0.463313,0.28904 0.08861,0.07691 0.188752,0.135102 0.291164,0.192268 0.159161,0.09521 0.311694,0.200494 0.46119,0.310282 0.128316,0.110837 0.254124,0.223587 0.366606,0.350669 0.07259,0.100966 0.158132,0.179519 0.236973,0.275241 0.07403,0.08719 0.143121,0.179108 0.222085,0.262472 0.104257,0.114539 0.218487,0.220235 0.307115,0.348551 0.107958,0.137775 0.223998,0.266872 0.331544,0.404853 0.118035,0.149702 0.231812,0.302653 0.33792,0.461197 0.05203,0.104051 0.169237,0.170471 0.227411,0.269915 0.06334,0.08143 0.126054,0.158339 0.202961,0.225273 0.09932,0.08863 0.199671,0.175201 0.307115,0.253979 0.11824,0.0874 0.2314,0.181781 0.357043,0.257146 0.14415,0.0987 0.297779,0.182192 0.437816,0.286922 0.161218,0.109397 0.334938,0.200288 0.50582,0.293296 0.192063,0.09048 0.377298,0.189595 0.556817,0.302859 0.122147,0.07814 0.272754,0.16389 0.314538,0.19124 -1.032655,-1.294079 -2.519515,-2.817377 -4.722395,-4.975305 -1.876313,-1.838023 -3.22501,-3.104279 -4.157067,-3.902038 z m -0.587641,1.214621 c 5.14e-4,0.0021 0.0016,0.0062 0.0021,0.0082 0.0051,0.0658 0.01604,0.12955 0.02869,0.193502 0.02245,-0.01645 0.04435,-0.03352 0.06696,-0.04997 -0.03241,-0.05079 -0.06654,-0.100555 -0.09776,-0.151964 z m -2.253873,0.410179 c -0.08096,0.344787 -0.134958,0.68213 -0.134958,1.007382 0,1.235575 0.670967,2.764221 1.818187,4.400413 -0.05435,-0.09973 -0.105408,-0.20111 -0.149825,-0.306046 -0.05511,-0.12811 -0.103085,-0.258112 -0.154082,-0.387867 -0.05305,-0.151759 -0.09572,-0.307033 -0.155152,-0.456941 -0.03126,-0.113921 -0.07631,-0.223072 -0.114764,-0.334731 -0.01995,-0.08431 -0.09393,-0.179108 -0.106272,-0.27627 -0.03414,-0.103229 -0.09842,-0.19597 -0.124327,-0.302859 -0.01892,-0.111042 -0.120275,-0.199671 -0.126444,-0.315608 -0.0401,-0.117211 -0.08104,-0.234361 -0.08927,-0.359181 -0.01769,-0.08842 -0.03261,-0.177874 -0.07333,-0.259285 -0.06663,-0.157104 -0.118651,-0.318918 -0.171088,-0.481369 -0.02879,-0.122559 -0.07938,-0.237282 -0.126465,-0.353877 -0.07588,-0.222085 -0.13576,-0.449023 -0.165783,-0.682213 -0.0473,-0.25001 -0.09169,-0.499609 -0.113695,-0.753403 -0.0062,-0.04627 -0.0084,-0.09212 -0.01275,-0.138187 z m 6.973083,4.748963 c 0.01439,0.02056 0.02858,0.03866 0.04257,0.0584 0.04956,0.05429 0.1022,0.105491 0.152992,0.158339 -0.0619,-0.07588 -0.127082,-0.142505 -0.195558,-0.21678 z m 43.77355,0.666276 c -0.04956,0.02447 -0.10364,0.07279 -0.163685,0.13284 -0.81205,0.81203 1.132737,13.040083 3.642753,22.907448 1.107218,4.35277 1.334465,5.73889 1.02227,6.23881 -0.220748,0.35346 -1.795394,1.31094 -3.499302,2.12741 -1.703887,0.81647 -2.689925,1.37483 -2.191179,1.24117 3.71637,-0.99628 14.623448,-7.43911 20.31142,-11.99727 3.366709,-2.69794 8.342816,-7.33531 8.342816,-7.775388 0,-0.827864 -1.067345,-0.107341 -3.776641,2.550361 -1.613449,1.582747 -3.994203,3.724677 -5.290913,4.759597 -3.80325,3.03539 -11.383492,7.96027 -12.252297,7.96027 -0.726548,0 -3.615013,-12.796301 -4.790399,-21.219973 -0.853218,-6.114808 -1.008287,-7.096486 -1.354884,-6.925254 z m -43.668348,1.088135 c 0.01234,0.02139 0.02591,0.04154 0.03825,0.06272 -0.0062,-0.02735 -0.01439,-0.04359 -0.03825,-0.06272 z m -4.118817,0.532388 c 0.520607,0.602057 1.085195,1.20876 1.717235,1.818199 -0.07152,-0.100966 -0.137631,-0.205758 -0.201912,-0.309233 -0.07643,-0.107958 -0.159963,-0.209665 -0.240159,-0.314538 -0.01933,-0.02673 -0.203496,-0.282213 -0.124326,-0.173145 -0.10693,-0.108986 -0.128049,-0.151758 -0.200844,-0.223154 -0.08715,-0.0874 -0.204256,-0.140243 -0.29329,-0.231647 -0.156056,-0.142916 -0.317487,-0.279087 -0.481378,-0.413367 -0.05727,-0.05244 -0.116451,-0.102611 -0.175344,-0.152992 z m 9.667945,1.474954 c 0.0041,0.02056 0.01028,0.03866 0.01234,0.0584 0.03784,0.13428 0.122353,0.24962 0.158339,0.38575 0.04318,0.154843 0.095,0.306889 0.124409,0.465433 0.04853,0.166564 0.100555,0.33173 0.137158,0.501584 0.02673,0.146 0.0401,0.293728 0.0658,0.439934 0.04545,0.214004 0.10693,0.425026 0.131812,0.642896 0.03126,0.223216 0.05799,0.445548 0.04565,0.671581 1.03e-4,0.118857 3.09e-4,0.238207 0.0011,0.357064 0,0.08308 1.44e-4,0.166564 0.0041,0.249722 0.0021,0.06354 0.0082,0.126671 0.02118,0.189184 0.01851,0.102406 0.04195,0.203578 0.0765,0.301789 0.03023,0.100761 0.05038,0.203784 0.09253,0.30072 0.05511,0.161012 0.08267,0.325211 0.118034,0.490952 0.04874,0.192885 0.109604,0.383303 0.155255,0.57701 0.01234,0.04216 0.07362,0.249661 0.07218,0.250792 -0.594057,0.473618 -0.662307,0.719844 -0.776805,0.717294 0.632162,0.380691 1.146413,0.669731 1.265619,0.672651 0.07732,0.0019 0.03599,-0.89087 -0.09254,-1.983961 -0.264713,-2.252294 -0.595579,-3.682234 -1.613099,-5.288795 z m -6.151651,1.963768 c 0.472809,0.395435 0.977909,0.783755 1.489836,1.171047 -0.0438,-0.04812 -0.09377,-0.08822 -0.141271,-0.133868 -0.101172,-0.07958 -0.195147,-0.167181 -0.290109,-0.253958 -0.095,-0.08267 -0.195764,-0.157928 -0.291158,-0.240161 0.04174,0.02241 0.01028,0.0062 -0.04565,-0.03722 -0.03701,-0.02838 -0.140654,-0.114332 -0.173144,-0.141271 -0.01028,-0.0082 -0.01851,-0.01851 -0.02982,-0.02755 -0.05367,-0.04874 -0.125848,-0.08616 -0.169031,-0.137158 -0.123587,-0.05552 -0.238619,-0.12338 -0.349614,-0.199671 z m 2.87976,2.185874 c 1.251718,0.882727 2.532101,1.728954 3.52694,2.336748 -0.05573,-0.04421 -0.202139,-0.169238 -0.206169,-0.183838 -0.06375,-0.04257 -0.08966,-0.06621 -0.115773,-0.06909 -0.296175,-0.163479 -0.01028,-0.03187 -0.272054,-0.161629 -0.119268,-0.07629 -0.237734,-0.15731 -0.343224,-0.25184 0.05079,0.01439 -0.209686,-0.15073 -0.219968,-0.179519 -0.117211,-0.1022 -0.267201,-0.163274 -0.376187,-0.27629 -0.115361,-0.08801 -0.227103,-0.179725 -0.345343,-0.263542 0.105079,0.06765 -0.215381,-0.168003 -0.213592,-0.172116 -0.04565,-0.04545 -0.108781,-0.07053 -0.158339,-0.111659 -0.151141,-0.08472 -0.154637,-0.09541 -0.319864,-0.174172 -0.105696,-0.0658 -0.210447,-0.133868 -0.307095,-0.212544 -0.07279,-0.04051 -0.154431,-0.06519 -0.227411,-0.10837 0.03372,0.0041 0.01234,0.0021 -0.04668,-0.01645 -0.09727,-0.03105 -0.192474,-0.06889 -0.283714,-0.114744 0.01028,0.0021 0.0401,0.01234 0.02982,0.0082 -0.04092,-0.01645 -0.08081,-0.03311 -0.121118,-0.04997 z m 2.834075,0.07012 c -0.05429,0.06087 -0.123175,0.114744 -0.205018,0.161629 0.0144,0.01028 0.02961,0.02447 0.04154,0.0329 0.02714,-0.02056 0.05141,-0.0366 0.0839,-0.0658 0.03681,-0.03311 0.06436,-0.06457 0.08719,-0.09665 -0.0021,-0.01028 -0.0062,-0.02118 -0.0082,-0.03187 z m 1.440963,1.375078 c 0.022,0.01851 0.04339,0.03948 0.06375,0.06066 0.02056,0.02097 -0.03475,-0.06395 -0.06375,-0.06066 z m -4.092249,0.764035 c -0.18466,0.04688 -0.182809,0.377812 -0.04565,1.194407 0.694962,4.139935 2.270307,8.493569 4.067799,11.239609 0.293811,0.44886 0.678799,0.8161 0.855439,0.8161 0.59706,0 0.322374,-0.90033 -0.774666,-2.53971 -1.171314,-1.7504 -2.66457,-6.004256 -3.078491,-8.771088 -0.142094,-0.950011 -0.483797,-1.786861 -0.775736,-1.898932 -0.104873,-0.0403 -0.187127,-0.05593 -0.248653,-0.0403 z M -72.208,110.10745 c -0.673782,0 -0.26825,0.8823 1.075386,2.33996 1.871931,2.0308 3.185668,4.34884 3.710756,6.54695 0.238268,0.99747 0.487436,2.01725 0.55365,2.26662 0.06621,0.24942 0.303784,0.45376 0.527062,0.45376 0.899671,0 -0.436603,-4.69402 -2.09447,-7.35884 -1.035575,-1.66457 -3.329941,-4.24845 -3.772384,-4.24845 z m 28.236613,8.12392 c -0.07629,-0.0763 -1.268991,0.2561 -2.650238,0.73856 -1.381246,0.48248 -2.339112,0.8899 -2.128481,0.90429 0.543266,0.0383 4.946311,-1.47546 4.778719,-1.64285 z m -5.705349,1.72044 c -0.299239,0 -0.870862,0.14086 -1.269854,0.3124 -0.45727,0.19659 -0.524677,0.31137 -0.181781,0.31137 0.299239,0 0.870862,-0.13983 1.269854,-0.31137 0.45727,-0.19659 0.524656,-0.3124 0.181781,-0.3124 z" /><path
         style="fill:#070606;stroke-width:2.05634"
         d="m -83.047054,122.63631 c -10.80992,-1.57697 -21.403106,-5.22419 -30.147076,-10.37957 -4.93564,-2.91001 -6.24532,-3.84511 -5.78441,-4.12996 0.21744,-0.13428 1.49483,0.48392 2.83865,1.37403 9.82404,6.50708 22.655347,10.99394 36.023703,12.59675 5.380281,0.64508 22.005621,-0.0494 26.267807,-1.09703 1.617952,-0.39776 2.200227,-0.45838 1.944273,-0.20235 -0.304462,0.30446 -5.461178,1.29971 -9.538251,1.8409 -4.828955,0.64099 -17.202905,0.63944 -21.604696,-0.002 z"
         id="path1" /></g></g></svg>
