<?xml version="1.0" encoding="UTF-8" standalone="no"?>
<svg
   baseprofile="tiny"
   fill="#6f9c76"
   height="909"
   stroke="#ffffff"
   stroke-linecap="round"
   stroke-linejoin="round"
   stroke-width="0.5"
   version="1.2"
   viewbox="0 0 1000 812"
   width="909"
   id="svg"
   sodipodi:docname="pictorial_logo.svg"
   inkscape:version="1.4 (e7c3feb1, 2024-10-09)"
   xml:space="preserve"
   xmlns:inkscape="http://www.inkscape.org/namespaces/inkscape"
   xmlns:sodipodi="http://sodipodi.sourceforge.net/DTD/sodipodi-0.dtd"
   xmlns="http://www.w3.org/2000/svg"
   xmlns:svg="http://www.w3.org/2000/svg"><defs
     id="defs1" /><sodipodi:namedview
     id="namedview"
     pagecolor="#ffffff"
     bordercolor="#000000"
     borderopacity="0.25"
     inkscape:showpageshadow="2"
     inkscape:pageopacity="0.0"
     inkscape:pagecheckerboard="0"
     inkscape:deskcolor="#d1d1d1"
     inkscape:zoom="0.46840316"
     inkscape:cx="533.72825"
     inkscape:cy="514.51404"
     inkscape:window-width="1440"
     inkscape:window-height="773"
     inkscape:window-x="0"
     inkscape:window-y="25"
     inkscape:window-maximized="0"
     inkscape:current-layer="logo"
     showgrid="false"><inkscape:grid
       id="grid6"
       units="px"
       originx="0"
       originy="0"
       spacingx="1"
       spacingy="1"
       empcolor="#0099e5"
       empopacity="0.30196078"
       color="#0099e5"
       opacity="0.14901961"
       empspacing="5"
       enabled="true"
       visible="false" /></sodipodi:namedview><g
     id="logo"
     inkscape:label="logo"
     transform="translate(-40.980174,129.87322)"><path
       d="m 113.46508,77.234282 3.9,-2.83254 0.9,-1.10839 0.5,-2.09362 -0.4,-1.84731 -0.9,-1.84731 -1.8,-2.33992 -0.3,-0.24631 -0.3,-0.24631 -0.4,-0.98523 -0.2,-0.98523 -0.5,-5.41878 0.4,-1.601 0.8,-1.3547 1.3,-1.601 1.3,-3.20201 -0.4,-3.202 -1.8,-7.01978 v -4.18724 l 2,-12.56171 -0.7,-23.7687298 0.3,-0.98524 16.6,-15.3942502 4.9,-5.78824 12.1,-23.52242 2.4,-20.56673 0.2,-2.216772 0.2,-22.906652 4.9,-0.246308 2.2,-0.492616 2.2,-1.354695 11.9,-14.039559 3.5,-3.20201 4.1,-1.97046 9.1,-2.70939 15,-4.5567 2.5,-0.36946 1.7,0.98523 1.7,1.97047 1.7,0.98523 4.4,0.36946 7.7,-1.72416 10.9,0.49262 2.6,-0.61577 0.8,-0.36946 2.4,-2.09362 1,-1.47785 1.3,-3.57147 0.8,-1.47785 2.1,-1.23154 11.2,-2.46308 2.5,0.61577 21.4,10.59125 21.5,10.59125 0.7,0.36946 0.5,0.61577 0.5,0.24631 0.7,-0.24631 4.4,-3.07885 1.5,-0.36946 4.1,1.10838 1.4,0.36947 5,3.57146 10.7,12.561719 12.3,16.748946 6.2,14.039557 1.9,4.18724 4.5,6.40401 2.7,3.20201 2.5,2.21677 2.3,1.10839 2.5,0.36946 h 5.6 l 1.4,-0.24631 0.4,-0.12315 1.7,-0.98524 3.5,-3.94093 4.7,-6.77347 1.6,-0.36946 7.9,1.84731 h 2.8 l 2.3,-0.98523 27.6,-20.566727 2.6,-1.354694 2.6,-0.369463 19.2,3.448314 2.1,0.985232 0.8,0.738924 1.8,2.093619 2.1,1.601003 2.6,2.586235 1.1,0.615767 2.2,0.73893 h 0.1 l 1,0.61577 1,1.10838 1.9,2.83255 7.5,8.49763 0.6,0.49261 0.8,0.36946 h 0.2 l 0.4,-0.2463 0.8,-0.61577 0.9,-0.24631 1.9,-0.36946 h 0.9 l 2,0.61577 1.8,1.10838 3.3,3.07885 1.5,1.97047 2.2,4.43354 1.3,1.97047 2.8,1.97046 19.9,7.38925 2.7,0.36946 22.1,3.202 h 2.8 l 4,-1.47785 1.4,-0.12315 16.1,2.33993 1.6,-0.12316 0.5,-0.24631 0.8,-0.73892 0.9,-0.86208 0.5,-0.73892 13,-19.08888 2.6,-2.9557 1.4,-1.23154 0.8,-0.2463 h 0.4 0.3 l 0.6,-0.86208 0.4,-0.98523 0.3,-2.33993 0.3,-0.98523 1.3,-1.60101 14.4,-9.975474 3.2,-1.601003 36.8,-9.852323 2.1,-0.492617 7.3,-0.738924 13.7,1.970465 36.9,-0.246308 22.9,7.266088 8.4,4.187238 10.5,8.005008 3.5,3.44832 1.5,0.86208 4.5,1.35469 2.5,-0.24631 1.1,-0.24631 1.6,-1.35469 1.2,-0.36946 3.8,1.72415 0.9,0.61577 0.3,0.61578 v 0.49261 l 0.2,0.36946 0.6,0.12316 0.2,-0.24631 0.4,-0.49262 0.4,-0.49261 0.8,-0.12316 0.7,0.61577 0.6,0.86208 0.5,0.36946 0.8,-0.49261 1.2,0.49261 2.7,0.12316 h 2 l 1.8,0.36946 1.4,0.61577 1.3,0.36946 1,-0.61577 0.4,-1.10838 0.6,-5.17247 0.4,-0.36947 1.7,-0.36946 0.6,-0.24631 0.6,-0.86208 0.4,-0.98523 0.5,-2.09362 -1.3,-0.61577 0.6,-1.35469 0.9,-1.724157 0.3,-1.601003 2.7,-3.202005 0.4,-0.369462 0.3,0.492616 0.5,-0.123154 0.5,-0.492616 0.5,-0.615771 0.2,-0.61577 0.1,-1.601002 0.8,0.862078 0.6,0.738924 0.8,0.738924 1.2,0.246309 0.6,-0.492617 0.5,-2.216772 0.9,-0.492617 1.7,-0.492616 1.3,-1.23154 1.9,-2.955697 0.5,-1.601003 h 0.1 l 0.3,-0.369462 0.4,0.369462 0.4,0.738924 0.2,0.246308 h 1.1 l -0.1,-0.369462 -0.4,-0.738924 -0.3,-1.108386 0.2,-0.369462 1,-0.492617 0.3,-0.246308 h 0.2 l 0.7,0.123154 0.2,-0.123154 v -0.246308 l -0.1,-0.738924 0.1,-0.246308 2.1,-2.955697 1,-0.985233 -0.5,-0.738924 -0.5,-0.61577 -0.5,-0.369462 -0.6,-0.246308 v -0.738921 l 1.1,0.36946 1,0.615769 0.7,-0.123154 0.3,-1.477845 2.1,0.49261 2.1,-0.49261 6.8,-4.18724 2,-0.86208 2.1,-0.246309 v 0.615769 l -0.4,0.98524 0.8,0.36946 1.4,-0.12316 1.3,-0.49261 v 0.36946 0.98523 l 0.5,-0.73892 0.6,-1.60101 0.4,-0.369459 0.8,0.246309 0.1,0.73893 -0.1,0.98523 -0.3,0.73892 2,-1.10838 2.1,-0.49262 1.8,-0.86208 1.4,-2.216769 -1.1,-0.12316 -0.1,-0.49261 0.7,-1.3547 0.3,-0.12315 h 0.5 l 0.5,-0.12315 0.2,-0.73893 -0.1,-0.49262 -0.4,-0.73892 0.1,-0.36946 0.4,-0.98523 0.5,-0.86208 3,-3.57147 1.2,-0.98523 -0.1,-1.601 0.7,-0.73893 2.2,-0.36946 0.1,-0.12315 18.7,1.10838 17.4,29.926433 17.3,30.049589 4.3,25.49288 4.2,25.49289 0.1,7.3892402 0.1,0.36947 0.4,1.601 v 1.84731 l -0.4,2.9556998 v 1.10838 l 0.7,1.47785 1,0.73893 1.2,0.2463 15.5,0.61577 4.9,1.47785 2.1,1.3547 0.2,0.98523 -0.4,1.35469 0.2,0.98524 0.5,0.61577 2.2,2.09362 0.9,0.49261 v 0.61577 l -0.3,0.24631 -0.8,0.49262 1.5,1.23154 1.6,1.10838 1.2,1.23154 0.5,1.97047 0.4,0.36946 1,-0.36946 1,-0.73893 0.7,-0.2463 0.9,0.49261 0.3,0.98523 0.1,0.98524 -1.4,1.84731 -0.2,0.61577 -0.4,0.61577 -0.4,1.10838 -1.3,6.77348 0.1,0.98523 -1.3,1.10839 0.1,1.84731 1.5,4.18723 0.1,0.98524 v 0.73892 l -0.3,3.07885 -0.8,3.07885 -1.7,9.72917 -0.5,1.601 -2.8,4.5567 -0.4,0.73893 0.2,0.86208 0.6,1.23154 0.3,0.12315 h 1.3 l 0.6,0.36946 0.3,0.61577 0.3,0.73893 0.4,0.61577 1.2,1.47785 0.9,1.601 0.4,1.97046 v 2.46308 l -0.2,1.97047 -0.6,2.33993 -0.8,2.21677 -0.9,1.84731 -1.3,0.86208 -3.9,1.72415 -1.6,1.231548 -2.8,3.07885 -1.6,1.10838 -4.5,1.72416 -1.4,0.98523 -6.8,7.75871 -0.6,0.2463 -2,0.36947 -0.9,0.49261 -2.1,2.70939 -1.4,1.23154 -1.6,0.98523 -1.7,0.49262 -1.5,-0.24631 -5.3,-2.83254 -3,-0.98523 h -2.4 l -2.9,2.83254 -2.8,3.57147 -2.5,3.94093 -1.8,4.06408 -1.3,3.81778 -0.9,1.47784 -2.9,1.97047 -1.2,1.35469 -0.9,1.60101 -0.3,1.97046 0.5,3.57147 -0.6,1.47785 -0.4,1.23154 -13.5,23.89188 -2.1,5.41878 -2.8,11.82279 -2.6,17.98049 -1.7,5.91139 v 1.23154 l 0.5,1.84731 0.1,1.10839 -0.1,1.35469 -1.2,3.20201 -0.9,1.35469 -1.6,1.47785 -0.7,0.61577 -1.1,0.73893 -1.4,0.73892 -6,0.86208 -2.5,1.10839 -1.3,3.32516 v 1.84731 l 0.9,3.07885 0.3,1.84731 -0.3,2.21677 -1.8,3.44831 -0.6,1.97047 0.1,2.09362 0.8,1.601 2.2,2.83254 0.8,2.09362 -0.1,1.47785 -0.8,1.601 -0.7,2.21678 -1,6.40401 -0.3,6.1577 -2.2,6.77347 -4.9,2.33993 -6,1.10838 -5.2,2.83255 -1,1.10838 -2.2,3.44832 -0.9,0.98523 -0.6,0.61577 -4.4,2.58623 -0.5,0.49262 -0.6,1.72416 0.4,0.2463 2.2,0.36947 0.7,1.97046 0.6,2.83254 -0.1,3.69463 -0.3,1.84731 -0.4,1.601 -3.5,7.7587 -1.6,4.5567 v 3.69462 l 0.5,3.44832 -1.7,17.85733 -0.8,4.06409 -1.7,2.83254 -1,0.49262 h -0.9 l -1,-0.24631 h -1.1 l -0.8,0.49262 -0.6,1.10838 -0.6,2.58624 -1.2,3.07885 -1.3,1.84731 -7.8,5.04931 -1.1,0.36947 -1.2,-0.24631 -2.4,-1.47785 -1,-0.24631 -1.4,0.12316 -0.9,0.61577 -0.9,0.73892 -1.2,0.73892 -1,0.12316 -1.1,-0.24631 -2.1,-0.86208 0.6,1.3547 1.8,5.41877 0.2,1.23154 0.1,2.70939 -0.7,0.86208 -2.3,1.97047 -0.6,0.86208 -0.4,1.23154 -0.6,1.10838 -0.9,0.73893 -1.6,0.2463 -2.9,-0.61577 -1.7,0.86208 -1.7,3.07885 -0.6,4.06409 0.2,4.31039 1.2,7.63555 -0.1,1.84731 -0.2,0.86208 -0.4,1.23154 -3.1,5.41878 -0.4,2.21677 v 3.69462 l 0.4,3.57147 0.5,2.33992 0.2,1.60101 -0.4,1.35469 -2.9,3.69462 -7.5,12.93118 -2.7,6.1577 -0.5,1.97046 -0.3,1.97047 0.2,2.09362 1.1,5.41878 -0.3,1.97046 -1,1.10839 -1.2,0.98523 -2,3.69462 -4.7,5.78824 -4.5,5.29562 -4.7,8.74394 -1.5,1.72416 -1.4,1.23154 -0.6,0.86208 0.4,0.49261 1.8,0.49262 1.1,1.10839 3.8,6.77347 2.9,3.94093 1,2.33992 -0.7,2.09362 -0.8,0.36947 -0.6,-0.12316 -0.7,-0.49261 h -0.8 l -1.1,0.36946 -0.8,0.61577 -3.2,3.57147 -1.2,0.98523 -0.2,0.86208 -0.1,0.86207 -0.5,0.73893 -0.5,0.24631 h -1.2 l -0.8,0.2463 -0.8,-0.12315 -0.3,0.12315 -0.3,0.49262 -0.3,1.23154 -0.3,0.49262 -4.4,3.44831 -4.6,5.29562 -1.4,2.33993 -0.4,2.46308 0.5,1.47785 1.6,2.33993 0.4,1.601 -0.2,2.58624 -0.5,2.46308 -2.2,6.40401 -1.8,3.07885 -2,1.35469 -3,0.36946 -2,2.09362 -1.2,3.07885 -0.4,3.94093 -0.5,2.09362 -1.5,1.72416 -1.9,1.23154 -1.9,0.49262 h -0.8 l -1.7,-0.49262 -0.8,-0.12316 -0.3,0.24631 -0.8,0.86208 -0.4,0.24631 -0.6,-0.12315 -0.8,-0.61577 -0.4,-0.24631 -2.3,0.36946 -4.7,0.61577 -2,-0.36946 -1.3,-1.47785 -1.4,-4.43355 -1.3,-7.26609 -0.3,-3.69462 0.2,-3.69462 -0.3,-4.43354 -1.4,-3.81778 -2.6,-2.46308 -7.1,-1.601 -2.4,-3.07885 -1.5,-4.06409 -0.7,-4.31039 -1.2,-3.69462 -2.5,-2.09362 -6.3,-2.9557 -5.3,-3.44831 -2,-0.73892 -1.3,-1.3547 -0.4,-4.67985 -1.4,-2.21677 -1.1,2.70938 -1,3.32516 -0.6,3.57147 -0.5,7.26609 -0.3,0.24631 -0.4,0.12315 -0.5,0.49262 -0.9,1.47785 -0.6,1.35469 -0.3,1.47785 -0.1,2.09362 -19.5,0.36946 -2.1,-0.86208 -1.6,-1.47785 -0.8,-1.84731 -1.1,-6.89662 -0.6,-1.60101 -1,-0.2463 -1.8,1.23154 -18.6,19.45834 -1.7,0.98523 -1.5,-0.61577 -1.5,-0.86208 -1.8,-0.12315 -1.4,1.97046 -5.8,22.41404 v 0.36946 l -1,0.86208 h -2.7 -0.9 l -2.2,0.61577 -1.2,1.10838 -1.7,4.18724 -1.2,1.47785 -1.6,0.98523 -3,1.3547 -0.5,0.2463 -2.2,1.72416 -2.3,5.41878 -2.1,1.601 -1.2,0.12316 -1,-0.12316 -0.9,0.12316 -1,0.61577 -1,1.47784 -2.2,5.66509 -1.9,3.32516 -10.4,10.34494 -7,8.99024 -1.6,2.9557 -1,1.23154 -1.2,0.73893 -0.4,0.61577 -0.2,2.70939 -0.2,1.23154 -1.4,0.2463 -1.6,-0.73892 -1.7,-0.36946 -1.3,1.601 -1,1.601 -2.7,2.21678 -0.8,1.47784 0.2,1.97047 0.8,1.47785 0.7,1.601 -0.4,2.33993 -1.3,2.09362 -1.3,1.23154 -0.6,1.23154 1,2.46308 1.5,1.84731 1.7,1.601 1.4,1.84731 0.8,2.46308 -0.4,2.21677 -1.1,1.84732 -1.4,1.72415 -1.2,1.84731 -0.4,1.97047 0.1,1.84731 0.2,1.84731 0.1,1.97046 -0.5,2.09362 -1.6,3.94093 -0.5,2.21677 0.1,1.23154 0.6,2.33993 0.1,0.98523 -2.1,12.68487 -0.5,1.23154 -0.8,0.49262 -0.9,0.12315 -0.8,0.49262 -0.8,0.98523 -1.5,2.83254 -0.4,1.23154 -1.2,4.06409 -0.7,1.84731 -1.1,1.97046 -3,5.78824 -0.4,1.72416 -2.1,1.84731 -0.7,1.47785 0.3,1.97046 0.2,1.3547 0.3,1.35469 -1.3,1.47785 h -0.1 l -0.1,-0.49262 -0.5,-0.36946 -0.7,-0.24631 -0.6,0.36947 -0.8,0.86207 -0.7,0.98524 -0.3,0.73892 -0.1,0.73892 -0.7,1.84732 -0.2,0.98523 v 0.86208 l 0.5,1.35469 v 0.86208 l -0.7,1.47785 -0.8,0.49261 -1,-0.2463 -1.2,-0.36947 h -0.3 l -0.7,0.12316 -0.6,-0.24631 0.4,-0.86208 0.3,-0.61577 0.3,-0.98523 0.2,-0.98523 -0.3,-0.36947 -0.7,0.24631 -1.5,0.86208 -1,0.24631 -2.2,-1.10839 -0.1,-2.58623 0.7,-3.32516 0.4,-3.20201 h -0.5 l -0.5,3.20201 -1.7,1.601 -2.1,-0.12315 -2,-2.21678 0.2,-0.36946 0.3,-0.86208 -0.5,-0.2463 -1.6,-0.98524 0.4,-1.35469 -0.6,-0.98523 -2.1,-1.84731 -1.8,-1.3547 h -0.1 l -0.4,-1.601 -0.9,-1.97047 -0.5,-0.86207 -1,-0.36947 -0.8,-0.36946 -0.9,-1.10839 -0.8,-0.98523 -0.3,-0.73892 h -0.5 v 0.61577 l 4.1,4.80301 1.1,1.601 1.9,4.5567 0.3,2.09362 -1.2,1.10838 0.5,1.23154 0.8,1.47785 0.8,1.23154 0.7,0.49262 0.8,0.86208 1.1,4.06408 1,1.47785 -0.3,0.61577 -0.6,2.09362 -0.1,0.86208 0.3,1.35469 0.7,0.49262 0.9,0.36946 0.7,0.73892 0.2,2.09362 -1.2,1.3547 -1.4,1.10838 -0.8,1.47785 -1,2.83254 -0.7,0.49262 -0.8,0.12315 h -3.3 l -4.3,-0.61577 h -6.5 l -3.1,-0.49261 h -1.5 l -2.5,1.601 -1.5,0.24631 h -3.3 l -12.9,1.84731 -0.8,-0.49262 -0.9,-0.12315 -0.9,0.36946 -0.6,0.98523 h 0.8 0.7 l 0.6,0.24631 0.5,0.36946 -1.6,0.49262 -2.5,0.24631 -2.2,-0.49262 -1,-1.23154 -1,-0.36946 -6.8,-0.49262 0.3,-0.49261 0.1,-0.24631 0.2,-0.24631 0.5,-0.36946 -1,-0.36946 -0.9,0.2463 -0.6,-0.12315 -0.2,-1.10839 0.3,-0.49261 0.5,-0.36946 0.5,-0.61577 0.3,-0.98524 -0.2,-0.49261 -1.4,-2.09362 0.3,-0.36946 0.3,-0.98524 -1.1,-1.601 0.2,-2.33993 1.4,-4.31039 h -0.5 l -0.8,0.73893 -0.5,0.36946 -0.5,0.86208 -0.3,0.86208 0.2,1.35469 0.2,1.10839 v 0.86208 l -0.6,1.10838 v 0.61577 l 1,1.601 0.3,0.73893 -0.3,0.24631 -1.2,1.72415 -0.7,0.73893 -0.9,0.61577 h -0.9 l -0.7,-0.73893 h -0.5 l -0.7,1.84731 -1.6,-0.12315 -2.6,-1.72416 -1.9,-0.12315 -2,-0.49262 -1.7,-0.98523 -0.9,-1.601 -0.5,0.36946 -0.5,0.12315 -1.4,0.12316 -0.2,0.24631 -0.1,0.73892 -0.3,0.61577 -0.7,0.36946 v 0.61577 l 0.5,0.36947 0.5,0.2463 -0.4,0.61577 1,0.49262 1.2,1.23154 2.1,0.49262 0.4,0.73892 -0.1,0.73893 -0.5,0.86207 -3.4,0.61577 -0.3,-0.49261 -1.7,-3.07885 -4.8,-6.40401 -0.7,-1.97047 v -2.46308 l -0.2,-0.86208 h -0.5 l -1.1,0.61577 h -1.6 l -0.3,-0.12315 -0.6,-0.86208 -1.4,-1.35469 -0.6,-0.98524 -1.2,-4.31039 -0.8,-1.35469 -0.1,0.86208 -0.4,0.86207 -0.4,0.73893 h -0.2 l 0.2,0.98523 0.4,0.12315 0.5,0.12316 0.5,0.73892 0.7,3.20201 0.8,1.35469 1.3,0.61577 2.4,1.3547 1.7,3.202 0.3,3.07885 -2,1.23154 1,0.86208 1.1,1.3547 0.7,1.601 -0.5,1.72416 -2.1,2.83254 -1.2,0.73892 -1.6,-0.73892 -0.1,1.35469 0.1,0.49262 -1.4,-0.73892 -1.1,-1.10839 -0.4,-1.3547 0.3,-1.84731 -1,1.10839 -0.2,1.601 0.4,1.60101 0.8,1.47784 -2.1,0.61577 h -0.5 l -0.9,-2.21677 -0.5,-2.33993 -0.2,-4.67985 -1.2,-2.58623 -0.4,-1.60101 0.9,-0.73892 0.3,-0.73892 0.4,-1.72416 0.2,-1.97047 -0.2,-1.23154 0.4,0.24631 0.7,0.12316 0.5,0.12315 -0.5,-0.98523 -1.6,-2.09362 -0.3,-0.98523 -0.4,-2.09362 -0.3,-0.86208 -1.4,2.46308 h -0.5 l -0.3,-1.601 -0.9,-2.09362 -0.4,1.47785 0.2,2.21677 -0.3,0.73892 0.8,1.60101 1.7,5.54193 h -0.8 l -0.5,-0.12316 -0.4,-0.36946 -0.3,-0.86208 -0.3,0.36947 -0.7,0.36946 -0.7,-1.84731 -0.8,-1.601 -2.2,-3.07886 0.2,1.60101 0.3,1.23154 1.1,2.33992 0.6,0.98524 0.3,0.49261 0.1,0.73893 -0.3,0.86208 -0.5,0.49261 -0.2,0.49262 0.5,1.10838 0.8,-1.47784 1.4,-0.49262 1.3,0.49262 0.7,1.10838 -0.8,6.52717 0.2,2.21677 2.7,6.52716 0.9,1.47785 -0.1,0.98523 -0.4,0.86208 -0.8,0.36946 -1,-0.12315 -0.8,-0.49262 -1.4,-0.73892 0.1,0.36946 0.1,0.49262 0.2,0.49261 -1.6,-0.61577 -1.7,-0.98523 -1.7,-0.36946 -1.8,0.73892 -0.8,-1.10838 -0.6,-1.47785 -0.1,-1.72416 0.5,-1.601 -1.3,-0.73892 -1.2,-2.46309 -0.8,-2.95569 -0.3,-2.46308 0.1,-1.60101 0.4,-0.98523 0.5,-0.61577 0.6,-0.98523 0.3,-0.86208 0.3,-1.47785 -0.2,-1.47785 -1.2,-0.61577 -2,-1.35469 -1.3,-3.07885 -1.2,-5.78824 -0.2,-2.33993 0.3,-1.23154 0.7,-1.23154 0.6,-1.23154 -0.2,-0.73892 -0.7,-0.12316 -1,1.10839 -0.7,-1.10839 -0.2,-0.61577 -0.1,-0.86208 -0.7,0.36947 -0.6,0.12315 -0.7,-0.12315 -0.6,-0.36947 0.3,1.60101 0.2,1.601 0.3,1.35469 1,0.61577 0.7,0.61577 0.5,1.72416 0.6,3.32516 0.3,3.57147 0.4,1.601 0.6,0.73892 1,0.61577 1,1.47785 1.4,2.9557 -1.7,1.84731 -0.4,0.73892 -0.1,1.3547 1.5,9.1134 0.8,2.83254 1,1.47785 -0.2,2.09362 1.6,1.72415 0.9,1.3547 -1.8,1.23154 -2.4,0.49262 -3,0.2463 -2.8,-0.2463 -1.7,-1.23154 -0.2,-1.3547 0.2,-5.41878 0.4,-0.73892 0.1,-0.49262 -0.2,-0.49261 -0.7,-0.61577 -0.1,-0.36947 v -3.32516 l 0.2,-1.47784 1.7,-5.66509 0.2,-0.98523 -0.1,-2.70939 -1.4,2.21677 -1.2,3.94093 -0.5,4.18724 0.5,3.07885 -0.3,0.86208 v 1.84731 l -0.2,1.10838 -0.7,-2.09361 -0.2,-1.23154 -0.2,-5.78824 -0.4,-1.10839 -0.3,0.61577 -0.4,0.61577 -0.4,0.36946 -0.5,0.36946 0.4,1.3547 0.1,4.31039 0.3,1.601 0.9,1.97047 0.6,1.84731 0.8,3.202 v 1.10839 l -0.5,0.98523 -0.8,0.36946 -2.3,-0.12315 -2.2,0.36946 -0.4,-0.61577 -0.8,-3.07885 -0.3,-2.83254 0.1,-4.31039 -0.3,-3.32516 -1.1,-2.46308 -2.3,0.2463 2.1,2.09362 0.7,3.32516 -0.2,3.81778 -1,3.57146 -0.2,3.07886 -3.7,1.10838 -4.4,-0.49261 -2.1,-1.72416 -1,0.24631 -1,0.36946 0.5,1.72416 -1.2,0.61577 -1.9,0.12315 -1.4,0.49262 -1.5,0.73892 -3.4,0.12316 -1.5,0.61577 -1.8,-2.58624 1.5,-3.94093 5,-6.89663 -1,-0.12315 -0.6,-0.12315 h -0.5 l -0.6,0.2463 -2.6,3.81778 -0.3,-5.04932 -1.3,-4.5567 h -0.4 l -0.1,1.84732 0.1,2.46308 0.4,2.33992 0.6,1.60101 -0.8,-0.86208 -0.6,-0.98524 -0.9,-0.86207 -1.4,-0.36947 0.9,2.21678 0.8,1.35469 0.5,1.601 -0.1,2.46308 -0.5,1.84732 -0.5,1.35469 -0.5,0.49262 -0.6,0.2463 -0.5,0.49262 v 1.3547 l 0.6,-0.36947 h 0.5 l 1,0.36947 -0.4,0.86207 -2.1,0.86208 -2.8,0.24631 -1.9,-0.61577 -0.3,0.36946 -0.5,0.49262 -0.3,0.36946 -1.2,-0.61577 -0.7,-0.86208 -0.2,-1.35469 v -1.72416 l 0.3,-1.47785 1,-2.21677 0.2,-1.3547 -0.3,0.24631 -0.8,0.24631 -0.4,0.12315 v -1.47784 l 0.3,-2.58624 h -0.8 l -0.8,-0.24631 -0.9,-0.49261 -0.9,0.36946 -0.3,0.86208 0.2,1.47785 0.3,1.23154 0.3,0.86207 -0.3,1.23155 0.4,0.98523 0.6,1.10838 0.4,1.47785 -0.3,1.97047 h -0.5 l -0.9,-0.98524 -1.2,-0.61577 -1.7,-0.12315 -0.6,-0.49262 -0.1,-3.32515 0.5,-0.12316 0.1,-0.24631 -1,-1.84731 -0.1,-0.24631 -0.1,-1.601 0.1,-1.601 h -0.4 l -0.6,3.202 -0.4,-0.49261 -1.2,-0.86208 1.2,3.202 0.2,1.60101 -0.9,0.98523 -1.1,-0.12315 -1.2,-0.86208 -0.9,-1.10839 -0.6,-0.49262 -1.6,-0.61577 -1.7,-1.72415 -0.9,-2.33993 0.8,-2.33993 -0.8,-0.12315 -0.6,0.36946 -0.2,0.61577 0.1,1.10839 h -0.5 l -1.3,-1.601 -3,-2.21678 -0.9,-1.35469 0.5,0.36946 1,0.49262 0.5,0.49261 -0.6,-1.23154 -0.9,-0.61577 -1,-0.2463 -1.1,-0.49262 -1.6,-2.21677 -0.6,-0.98524 -2,-2.58623 -0.5,-0.36946 -7,-8.12817 -2.1,-3.57147 -0.8,-4.06408 0.3,0.12315 0.3,0.12316 0.5,0.49261 v -1.84731 l -3.3,-2.46308 -0.9,-1.84731 -0.3,-1.47785 -1.9,-4.06408 -0.9,-1.10839 2.6,1.84731 -0.6,-2.21677 -2.5,-3.32516 -2.1,-7.26609 -0.6,-4.43354 -0.4,-1.3547 -1,-2.46308 -0.4,-1.47785 -0.2,-1.47785 -0.2,-0.73892 -0.6,-0.73892 -0.5,-0.98524 -0.3,-1.47784 0.4,-1.10839 0.9,-0.49262 1.2,0.12316 1.2,0.49261 0.8,0.86208 1.4,2.33993 0.9,0.73892 -1.1,-3.69462 -0.5,-1.47785 1.6,0.24631 1.6,0.49262 -0.6,-1.23154 -2.1,-2.70939 -0.7,-0.61577 -0.3,0.36946 v 1.72416 l -0.2,0.36946 -0.7,0.12315 -0.6,0.12316 -1.1,0.49261 -1,-0.61577 -1.8,0.36946 -0.8,-0.49261 -0.1,-0.73893 0.1,-3.32516 -0.3,-4.31039 -1.6,-8.49763 0.4,-1.23154 1.8,-0.49261 5,-0.12316 1.4,-0.49261 0.2,0.86208 0.2,0.61577 0.7,1.10838 0.6,-0.49261 0.5,-1.47785 0.5,-0.61577 0.4,-0.36946 2.6,-1.23155 1.3,-0.36946 1.1,0.12316 0.8,0.61577 h 0.5 l -0.6,-1.10839 -1.8,-1.97046 -0.7,-1.47785 -0.3,-1.23154 -0.1,-1.60101 0.2,-1.47784 0.4,-1.10839 1,-0.73893 1.2,-0.36946 2.5,0.12316 0.9,-0.49262 0.9,-1.23154 1.1,-2.09362 -1.2,0.61577 -1,1.10839 -1.1,0.73892 -1.4,-0.61577 -0.2,0.49262 -0.5,0.36946 -0.4,0.49262 -1.7,-0.49262 -1.8,1.10839 -1.1,2.09362 0.5,2.46308 -0.9,2.21677 -1,1.47785 -1.2,0.36946 -1.6,-0.86208 -0.4,-0.61577 -0.2,-0.61577 -0.3,-0.49262 -0.9,-0.12315 -0.4,0.49262 0.2,1.23154 0.5,1.23154 0.5,0.86208 -4.4,-0.36947 -8.6,-3.44831 -0.3,-0.49262 -0.4,-1.10838 -0.2,-0.49262 -2.4,-2.70939 -1.6,-1.35469 -0.6,-1.97047 -0.1,-1.97046 0.2,-0.98523 0.5,-0.24631 1.2,-1.72416 0.7,-0.49261 0.5,-0.12316 7.5,0.36946 2.8,0.49262 1.5,1.10839 h 0.6 l 0.7,-1.3547 1.3,-3.32516 0.6,-1.10838 0.9,-0.49262 h 1.2 l 1.2,0.49262 0.8,0.73892 0.2,0.61577 0.4,2.09362 0.2,0.49262 0.8,-0.12316 0.4,-0.24631 0.1,-0.61577 v -0.98523 l -0.6,-1.47785 -1.2,-1.601 -1.6,-1.35469 -1.3,-0.73893 -1.4,0.12316 -0.8,0.86207 -0.9,2.9557 -0.8,0.86208 -1.2,0.73892 -1.4,0.36947 -1.3,-0.12316 -1.4,-0.98523 -0.6,-1.3547 v -1.601 l 1.4,-5.04931 0.2,-1.3547 -0.1,-1.84731 h -0.5 l -2.1,7.01978 -0.8,1.84731 -1,1.23154 -1.3,0.61577 -1.8,0.24631 -0.8,0.24631 -1.8,1.23154 -1.9,0.86208 -0.4,-0.24631 -1.1,-0.86208 -1.1,-1.23154 -1.2,-1.84731 -1,-1.97046 -0.7,-2.58624 -0.7,-1.35469 -0.7,-1.72416 -0.3,-2.09362 0.2,-1.97046 0.5,-2.09362 0.7,-1.72416 0.9,-0.73892 0.9,0.36946 1.5,1.47785 0.6,0.24631 0.4,-0.61577 -0.2,-0.86208 -0.3,-0.98524 0.1,-0.86207 2.4,-2.58624 6.2,-2.83254 1.7,-3.57147 -1.6,0.36946 -2.6,2.83255 -3,1.10838 -5.7,3.81778 -1.1,0.98523 -3.8,4.31039 h -0.8 l -2.8,-7.7587 -9.2,-14.65533 -1.6,-1.84731 -3,-1.60101 -1.3,-1.84731 -2,-3.81777 -2.6,-3.32516 -2.3,-2.33993 -5.7,-4.43355 -2.5,-1.97046 -4.7,-5.41878 -2.9,-2.21677 -1.2,-0.73892 -6.6,-3.57147 -4.9,-1.10839 -16.3,-3.69462 -19.4,-1.97046 -32.29999,1.97046 -1.7,-0.36946 -0.900003,-0.86208 -0.8,-0.98523 -1.1,-0.98524 0.7,-0.49261 0.6,-0.12316 0.4,0.12316 0.5,0.49261 1.100003,-1.35469 0.5,0.49262 0.1,1.47785 0.3,1.35469 2.69999,-3.07885 0.4,0.12315 0.3,0.73893 h 0.6 l 1,-0.36947 1.4,-0.12315 1.3,-0.24631 1.2,-0.73892 1,-1.47785 0.1,-1.10839 -0.1,-0.98523 v -0.86208 l 0.8,-0.24631 h 3.1 l 1.6,-0.49261 3.3,-1.23154 1,0.36946 1.7,-0.86208 1.5,-1.10838 1.1,-1.47785 0.4,-1.97047 1,-0.49261 6.3,-1.10839 -0.6,-0.61577 -0.5,-0.24631 h -0.4 l -0.6,0.12316 -4.3,-1.23155 -4.3,1.97047 -4,2.9557 -3.7,1.47785 h -1.4 l -0.8,0.12315 -2.6,1.72416 -0.9,0.49261 -0.9,0.12316 -1,0.12315 -0.2,-0.24631 -0.9,-0.36946 h -0.9 l -0.5,-0.49262 -0.3,-0.2463 -0.3,-1.23154 -0.1,-1.10839 0.6,-2.09362 v -1.23154 l -1.3,0.86208 -0.9,0.98523 -1.69999,2.21677 -0.6,0.36947 h -0.800003 l -0.6,0.2463 -0.3,0.73893 0.1,0.61577 0.4,1.47785 v 0.86207 l -0.3,0.98524 -1,1.97046 -0.3,1.10839 -0.3,0.73892 -0.5,0.49262 -0.3,0.61577 0.4,0.73892 0.4,0.49262 0.2,0.49262 0.1,0.61577 0.4,0.49261 -0.4,2.09362 -4.4,0.49262 -8.5,-0.49262 -10,1.47785 -11.7,-0.73893 -17,1.97047 0.1,-5.78824 0.5,-4.18724 0.3,-1.84731 0.3,-0.98523 1.4,-5.04932 0.1,-1.97046 -0.6,-3.94093 v -1.97047 l 0.9,-1.97046 1.3,-1.47785 1,-0.73892 0.4,-1.10839 -0.3,-4.31039 -0.1,-0.98523 -0.4,-0.36947 -1,-0.12315 -0.8,-0.36946 -0.6,-0.49262 -0.6,-0.98523 -0.4,-1.84731 0.2,-2.09362 0.8,-3.94093 -0.3,-3.94093 -1.1,-3.57147 -0.2,-3.44831 2,-3.32516 0.8,-0.49261 1,-0.36947 0.8,-0.49261 0.3,-1.10839 -0.5,-0.86208 -1.9,-1.97046 -0.7,-0.98523 -0.3,-1.23154 0.1,-0.73893 0.3,-0.61577 0.7,-1.72416 0.6,-0.98523 0.3,-0.86208 0.1,-1.35469 -1.6,-23.15296 0.2,-0.98523 0.5,-0.36947 h 0.8 l 1.7,0.36947 0.2,-0.24631 0.1,-0.49262 0.1,-0.86208 0.2,-3.94093 -1.6,-3.44831 -2.3,-3.32516 -1.5,-3.44831 -0.4,-3.69462 0.2,-3.07885 0.7,-12.68487 -0.2,-1.35469 -0.7,-1.3547 -1.8,-2.46308 -0.8,-2.70939 -0.7,-1.23154 v -0.36946 -0.36946 l 0.1,-0.73893 0.8,-1.72415 0.3,-0.86208 0.3,-6.03455 0.9,-5.9114 0.2,-5.66508 0.2,-1.72416 0.6,-1.601 0.8,-1.47785 0.6,-1.84731 v -1.97046 l -0.5,-2.09362 -1.5,-3.81778 -0.6,-2.09362 -0.3,-2.33992 0.1,-1.72416 0.6,-3.94093 v -0.86208 l -0.2,-1.72416 v -0.86207 l 0.4,-1.23154 1.5,-2.09362 0.6,-1.10839 0.6,-3.202 -0.1,-2.70939 -1.5,-23.02981 v -0.12315 -0.98524 l 0.4,-0.73892 1.3,-0.61577 0.4,-0.49262 0.1,-0.86207 -0.4,-1.47785 -0.1,-0.86208 0.3,-1.47785 1,-2.70939 v -1.35469 l -0.3,-0.73893 -0.4,-0.12315 -0.3,-0.24631 -0.1,-0.73892 0.2,-0.12316 0.8,-1.601 0.2,-0.61577 0.5,-2.58624 0.1,-6.03454 -0.2,-2.46309 5.8,0.61577 1,-0.2463 0.8,-0.61577 0.6,-0.86208 0.8,-0.61577 0.8,-0.24631 h 2.4 l 0.8,0.12315 0.8,0.49262 0.8,0.61577 0.7,0.36946 h 0.9 l 5.2,-1.601 1.8,-1.601 1.2,-2.9557 2.5,-9.72917 1.6,-3.69462 0.4,-1.97047 0.1,-6.1577 -0.3,-1.47785 -1,-3.07885 -0.5,-2.58623 0.3,-2.58624 1.5,-2.95569 0.5,-0.49262 1.2,-0.49262 0.6,-0.61577 4.6,-7.51239 0.1,-0.49262 -0.4,-1.23154 -0.1,-0.61577 0.6,-2.33993 1.2,-0.49261 1.5,0.36946 1.3,0.12315 2.5,-1.72415 0.5,-2.46308 -0.6,-2.83255 -0.9,-2.95569 -0.3,-1.84732 0.2,-2.21677 0.7,-1.84731 1.2,-1.10838 5.4,-2.83255 2.999993,-0.86208 4.5,0.61577 1.4,-1.601 2,-4.5567 2.4,-3.57147 0.8,-1.84731 0.5,-8.12816 0.5,-1.60101 1.1,-1.35469 1.1,-0.61577 1,-0.86208 0.7,-2.09362 v -0.49261 l 0.2,-1.72416 -0.2,-1.47785 -0.7,-1.23154 -5.1,-6.52716 -1.1,-2.21678 -0.1,-1.72415 1.6,-4.31039 1.9,-3.69463 0.3,-1.10838 0.1,-1.84731 0.2,-0.61577 0.5,-0.86208 1.5,-1.84731 1.5,-0.61577 1.6,0.36946 4.8,3.202 1.2,-0.2463 1.2,-1.84731 0.5,-1.72416 v -4.92616 l 0.7,-2.46308 2,-4.80301 0.5,-2.46308 v -2.9557 -2.33993 l -0.4,-2.70938 -0.7,-1.84732 -0.9,-0.73892 -1.1,-0.24631 -1,-0.36946 -0.7,-0.98523 -0.7,-3.07885 -0.4,-1.10839 -0.6,-0.73892 -0.6,-0.73893 -0.6,-0.73892 -0.4,-1.23154 0.1,-1.60101 1.6,-5.04931 0.1,-2.70939 -1.5,-8.49763 -0.8,-1.601 -0.6,-1.84731 -0.3,-1.84731 v -2.09362 l 0.8,-3.69462 -0.7,-0.73893 h -0.6 -0.1 l -0.7,0.12316 -0.6,-0.12316 -1.8,-2.09362 -13.6,-23.76873 -1.1,-2.58623 -0.2,-2.21677 1.6,-5.049318 0.4,-1.47785 0.9,-4.31039 5.3,-11.08386 z m 298.8,680.179788 2.5,-0.36946 0.8,0.36946 -0.4,1.23154 -0.7,1.10839 -1.3,0.36946 -2.9,-0.12316 -1.2,0.12316 -3.7,1.72415 -1.3,0.12316 -5.6,-0.36946 -1.2,-0.73893 -0.4,-1.23154 0.7,-1.72415 0.7,-0.36947 3.7,-1.47785 0.9,0.49262 2.7,1.601 1.3,0.49262 1.4,-0.24631 2.7,-0.86208 z m -20.2,-0.73893 3.5,-0.36946 0.9,0.36946 -0.9,0.98524 -0.5,1.10838 -0.1,1.3547 v 1.35469 l -0.3,1.47785 -0.8,0.98523 -1,0.73893 -1.1,0.61577 -6.7,1.72415 -2.6,-0.36946 -0.7,-1.10838 0.7,-1.72416 2.4,-3.20201 1.8,-3.202 1.4,-2.09362 0.3,-0.86208 0.3,-1.601 1.1,0.73892 1.1,2.58624 z"
       id="NG"
       inkscape:label="NG"
       style="fill:#1b7339;fill-opacity:1;stroke:none;stroke-width:0.554874" /><g
       id="g1"
       inkscape:label="pin"
       transform="matrix(0.80377363,0,0,0.85451653,87.13906,-45.090164)"><path
         d="M 427.53147,428.43347 C 312.95967,262.33838 291.69297,245.29194 291.69297,184.2495 c 0,-83.61491 67.7829,-151.397698 151.3977,-151.397698 83.6149,0 151.3977,67.782788 151.3977,151.397698 0,61.04244 -21.2666,78.08888 -135.8384,244.18397 -7.5186,10.86121 -23.6007,10.86042 -31.1185,0 z"
         id="map_marker"
         inkscape:label="map_marker"
         style="fill:#ffffff;stroke:#000000;stroke-width:20;stroke-dasharray:none;stroke-opacity:1" /><g
         id="gas_pump"
         inkscape:label="gas_pump"
         transform="translate(-368.59355,501.03999)"><g
           id="gas_pump_body"
           inkscape:label="gas_pump_body"><g
             id="gas_pump_display"
             inkscape:label="gas_pump_display"
             transform="translate(19.787145,-219.75817)"><g
               id="gas_marks"
               inkscape:label="gas_marks"><path
                 style="fill:#1b7339;fill-opacity:1;stroke:none;stroke-width:0;stroke-dasharray:none"
                 d="m 780.31641,-134.34766 a 1,1 0 0 0 -0.72657,0.2461 l -6.84179,6 a 1,1 0 0 0 -0.0937,1.41015 1,1 0 0 0 1.41211,0.0937 l 6.84375,-6 a 1,1 0 0 0 0.0918,-1.41211 1,1 0 0 0 -0.68554,-0.33789 z"
                 id="right_1_gas_mark"
                 inkscape:label="right_1_gas_mark" /><path
                 style="fill:#1b7339;fill-opacity:1;stroke:none;stroke-width:0;stroke-dasharray:none"
                 d="m 769.69727,-144.24414 a 1,1 0 0 0 -1.3418,0.44727 l -5,10 a 1,1 0 0 0 0.44726,1.34179 1,1 0 0 0 1.3418,-0.44726 l 5,-10 a 1,1 0 0 0 -0.44726,-1.3418 z"
                 id="right_2_gas_mark"
                 inkscape:label="right_2_gas_mark" /><path
                 style="fill:#1b7339;fill-opacity:1;stroke:none;stroke-width:0;stroke-dasharray:none"
                 d="m 752.67399,-149.88827 a 1,1 0 0 0 -1,1 v 15 a 1,1 0 0 0 1,1 1,1 0 0 0 1,-1 v -15 a 1,1 0 0 0 -1,-1 z"
                 id="center_gas_mark"
                 inkscape:label="center_gas_mark" /><path
                 style="fill:#1b7339;fill-opacity:1;stroke:none;stroke-width:0;stroke-dasharray:none"
                 d="m 735.80273,-144.24414 a 1,1 0 0 0 -0.44726,1.3418 l 5,10 a 1,1 0 0 0 1.3418,0.44726 1,1 0 0 0 0.44726,-1.34179 l -5,-10 a 1,1 0 0 0 -1.3418,-0.44727 z"
                 id="left_2_gas_mark"
                 inkscape:label="left_2_gas_mark" /><path
                 style="fill:#1b7339;fill-opacity:1;stroke:none;stroke-width:0;stroke-dasharray:none"
                 d="m 727.73242,-134.34766 a 1,1 0 0 0 -0.6875,0.33789 1,1 0 0 0 0.0937,1.41211 l 6.8418,6 a 1,1 0 0 0 1.41211,-0.0937 1,1 0 0 0 -0.0937,-1.41015 l -6.8418,-6 a 1,1 0 0 0 -0.72461,-0.2461 z"
                 id="left_1_gas_mark"
                 inkscape:label="left_1_gas_mark" /></g><path
               style="fill:#1b7339;fill-opacity:1;stroke:none;stroke-width:0;stroke-dasharray:none"
               d="m 752.67399,-128.07235 a 1.5386647,1 0 0 0 -1.53866,1 v 15 a 1.5386647,1 0 0 0 1.53866,1 1.5386647,1 0 0 0 1.53867,-1 v -15 a 1.5386647,1 0 0 0 -1.53867,-1 z"
               id="gas_marker"
               inkscape:label="gas_marker" /></g><path
             id="gas_pump_rect"
             style="fill:#1b7339;fill-opacity:1;stroke:none;stroke-width:4.67825"
             inkscape:label="gas_pump_rect"
             d="m 740.56101,-392.78964 c -10.33488,0 -18.71289,8.37801 -18.71289,18.71289 v 130.99023 c 0,10.33489 8.37801,18.7129 18.71289,18.71289 h 65.49414 c 10.33488,0 18.71289,-8.37801 18.71289,-18.71289 v -37.42578 h 0.0566 v -18.71289 h -0.0566 v -74.85156 c 0,-10.33488 -8.37801,-18.71289 -18.71289,-18.71289 z m 0,18.71289 h 65.49414 v 41.7832 h -65.49414 z" /></g><path
           d="m 1176.7819,181.00797 a 9.944796,9.944796 0 0 1 -7.0957,-3.06407 10.38828,10.38828 0 0 1 0.1343,-14.47371 l 6.2357,-6.24909 a 1.2632579,1.2632579 0 0 1 0.9542,-0.40317 1.3438913,1.3438913 0 0 1 0.9541,0.41661 l 6.1282,6.34316 a 10.38828,10.38828 0 0 1 -0.121,14.47371 9.8507236,9.8507236 0 0 1 -7.1898,2.95656 z"
           id="droplet"
           inkscape:label="droplet"
           style="fill:#fbc02d;fill-opacity:1;stroke:none;stroke-width:0.671946"
           transform="translate(-332.54309,-526.54284)" /><path
           id="gas_pump_nozzle"
           style="display:inline;fill:#1b7339;fill-opacity:1;stroke:none;stroke-width:4.67825"
           inkscape:label="gas_pump_nozzle"
           d="m 857.94168,-388.33892 -11.78906,14.53907 19.33984,15.66406 c -9.81768,5.96597 -14.99017,17.32642 -13.04297,28.64844 1.40346,8.41147 7.19493,15.68189 14.68946,19.75195 8.37405,4.5566 15.71918,4.1368 22.25,1.8164 l -0.14063,57.83984 c 0.049,6.72672 -6.82579,11.28818 -13.0039,8.62696 -1.11451,-0.47664 -2.12642,-1.16526 -2.97657,-2.0293 -1.74684,-1.75042 -2.72623,-4.12472 -2.72265,-6.59766 l 0.21484,-18.71289 c 0.0191,-7.43879 -2.9346,-14.57658 -8.20508,-19.82617 -5.26433,-5.27585 -12.41024,-8.2406 -19.86328,-8.24218 l -18.03693,0.15973 v 18.71289 l 18.03693,-0.15973 c 1.27244,-0.0113 2.498,0.25328 3.65821,0.73046 2.22676,0.97482 4.0023,2.75592 4.96874,4.98633 0.48538,1.15186 0.73231,2.38873 0.72852,3.63867 l -0.22461,18.71289 c 0,3.79873 0.74002,7.47714 2.20899,10.92969 1.41283,3.35897 3.44372,6.36283 5.99804,8.89844 5.24657,5.30233 12.40403,8.27188 19.86328,8.24219 3.79873,0 7.46584,-0.73067 10.92774,-2.20899 3.34962,-1.40347 6.36284,-3.43242 8.89844,-5.99609 5.29079,-5.25433 8.25823,-12.40869 8.24218,-19.86524 l 0.22461,-84.20702 c -0.0189,-9.552 -4.89863,-18.43721 -12.94922,-23.57813 l 0.13086,-0.16015 z m 22.17578,44.69532 c 5.16494,0.004 9.34961,4.19248 9.34961,9.35742 0,5.16494 -4.18467,9.35193 -9.34961,9.35547 -5.16995,0.004 -9.36328,-4.18552 -9.36328,-9.35547 0,-5.16995 4.19333,-9.36097 9.36328,-9.35742 z"
           sodipodi:nodetypes="cccccccccccccccscccccccccccccccscsc" /></g></g></g></svg>
